<?xml version="1.0" encoding="UTF-8" standalone="no"?>
<!DOCTYPE svg PUBLIC "-//W3C//DTD SVG 1.1//EN"
 "http://www.w3.org/Graphics/SVG/1.1/DTD/svg11.dtd">
<!-- Generated by graphviz version 2.38.0 (20140413.2041)
 -->
<!-- Title: %3 Pages: 1 -->
<svg width="535pt" height="420pt"
 viewBox="0.00 0.00 535.15 420.00" xmlns="http://www.w3.org/2000/svg" xmlns:xlink="http://www.w3.org/1999/xlink">
<g id="graph0" class="graph" transform="scale(1 1) rotate(0) translate(4 416)">
<title>%3</title>
<polygon fill="white" stroke="none" points="-4,4 -4,-416 531.15,-416 531.15,4 -4,4"/>
<!-- (OASIS dataset) -->
<g id="node1" class="node"><title>(OASIS dataset)</title>
<ellipse fill="ghostwhite" stroke="gray" cx="233.15" cy="-394" rx="51.6054" ry="18"/>
<text text-anchor="middle" x="233.15" y="-391.5" font-family="Arial" font-size="10.00" fill="blue">(OASIS dataset)</text>
</g>
<!-- (OASIS record) -->
<g id="node2" class="node"><title>(OASIS record)</title>
<ellipse fill="ghostwhite" stroke="gray" cx="233.15" cy="-300" rx="48.7185" ry="18"/>
<text text-anchor="middle" x="233.15" y="-297.5" font-family="Arial" font-size="10.00" fill="blue">(OASIS record)</text>
</g>
<!-- (OASIS dataset)&#45;&gt;(OASIS record) -->
<g id="edge1" class="edge"><title>(OASIS dataset)&#45;&gt;(OASIS record)</title>
<path fill="none" stroke="black" d="M233.15,-375.696C233.15,-362.46 233.15,-343.947 233.15,-328.663"/>
<polygon fill="black" stroke="black" points="236.65,-328.227 233.15,-318.227 229.65,-328.227 236.65,-328.227"/>
<g id="a_edge1&#45;label"><a xlink:href="http://www.cidoc-crm.org/cidoc-crm/P148_has_component" xlink:title="crm:P148_has_component\n(is component of)">
<text text-anchor="middle" x="291.65" y="-350" font-family="Arial" font-size="10.00" fill="maroon">crm:P148_has_component</text>
<text text-anchor="middle" x="291.65" y="-339" font-family="Arial" font-size="10.00" fill="maroon">(is component of)</text>
</a>
</g>
</g>
<!-- (investigation) -->
<g id="node3" class="node"><title>(investigation)</title>
<ellipse fill="ghostwhite" stroke="gray" cx="233.15" cy="-206" rx="44.978" ry="18"/>
<text text-anchor="middle" x="233.15" y="-203.5" font-family="Arial" font-size="10.00" fill="blue">(investigation)</text>
</g>
<!-- (OASIS record)&#45;&gt;(investigation) -->
<g id="edge2" class="edge"><title>(OASIS record)&#45;&gt;(investigation)</title>
<path fill="none" stroke="black" d="M233.15,-281.696C233.15,-268.46 233.15,-249.947 233.15,-234.663"/>
<polygon fill="black" stroke="black" points="236.65,-234.227 233.15,-224.227 229.65,-234.227 236.65,-234.227"/>
<g id="a_edge2&#45;label"><a xlink:href="http://www.cidoc-crm.org/cidoc-crm/P67_refers_to" xlink:title="crm:P67_refers_to\n(is referred_to_by)">
<text text-anchor="middle" x="273.15" y="-256" font-family="Arial" font-size="10.00" fill="maroon">crm:P67_refers_to</text>
<text text-anchor="middle" x="273.15" y="-245" font-family="Arial" font-size="10.00" fill="maroon">(is referred_to_by)</text>
</a>
</g>
</g>
<!-- (organization) -->
<g id="node4" class="node"><title>(organization)</title>
<ellipse fill="ghostwhite" stroke="gray" cx="44.1497" cy="-112" rx="44.3" ry="18"/>
<text text-anchor="middle" x="44.1497" y="-109.5" font-family="Arial" font-size="10.00" fill="blue">(organization)</text>
</g>
<!-- (investigation)&#45;&gt;(organization) -->
<g id="edge3" class="edge"><title>(investigation)&#45;&gt;(organization)</title>
<path fill="none" stroke="black" d="M189.531,-201.578C143.974,-197.108 76.6128,-187.678 58.1497,-170 50.1455,-162.336 46.4153,-150.897 44.7723,-140.274"/>
<polygon fill="black" stroke="black" points="48.2312,-139.69 43.7441,-130.092 41.2667,-140.393 48.2312,-139.69"/>
<g id="a_edge3&#45;label"><a xlink:href="http://www.cidoc-crm.org/cidoc-crm/P14_carried_out_by" xlink:title="crm:P14_carried_out_by\n(performed)">
<text text-anchor="middle" x="111.15" y="-162" font-family="Arial" font-size="10.00" fill="maroon">crm:P14_carried_out_by</text>
<text text-anchor="middle" x="111.15" y="-151" font-family="Arial" font-size="10.00" fill="maroon">(performed)</text>
</a>
</g>
</g>
<!-- (site) -->
<g id="node5" class="node"><title>(site)</title>
<ellipse fill="ghostwhite" stroke="gray" cx="173.15" cy="-112" rx="27" ry="18"/>
<text text-anchor="middle" x="173.15" y="-109.5" font-family="Arial" font-size="10.00" fill="blue">(site)</text>
</g>
<!-- (investigation)&#45;&gt;(site) -->
<g id="edge4" class="edge"><title>(investigation)&#45;&gt;(site)</title>
<path fill="none" stroke="black" d="M200.791,-193.321C190.446,-187.89 180.134,-180.297 174.15,-170 168.945,-161.045 167.829,-149.886 168.328,-139.822"/>
<polygon fill="black" stroke="black" points="171.81,-140.169 169.329,-129.869 164.846,-139.468 171.81,-140.169"/>
<g id="a_edge4&#45;label"><a xlink:href="http://www.cidoc-crm.org/cidoc-crm/P7_took_place_at" xlink:title="crm:P7_took_place_at\n(witnessed)">
<text text-anchor="middle" x="223.15" y="-162" font-family="Arial" font-size="10.00" fill="maroon">crm:P7_took_place_at</text>
<text text-anchor="middle" x="223.15" y="-151" font-family="Arial" font-size="10.00" fill="maroon">(witnessed)</text>
</a>
</g>
</g>
<!-- (timespan) -->
<g id="node6" class="node"><title>(timespan)</title>
<ellipse fill="ghostwhite" stroke="gray" cx="294.15" cy="-112" rx="36.4942" ry="18"/>
<text text-anchor="middle" x="294.15" y="-109.5" font-family="Arial" font-size="10.00" fill="blue">(timespan)</text>
</g>
<!-- (investigation)&#45;&gt;(timespan) -->
<g id="edge5" class="edge"><title>(investigation)&#45;&gt;(timespan)</title>
<path fill="none" stroke="black" d="M253.594,-189.847C260.185,-184.188 267.087,-177.339 272.15,-170 278.474,-160.832 283.312,-149.596 286.818,-139.53"/>
<polygon fill="black" stroke="black" points="290.161,-140.566 289.886,-129.974 283.496,-138.426 290.161,-140.566"/>
<g id="a_edge5&#45;label"><a xlink:href="http://www.cidoc-crm.org/cidoc-crm/P4_has_time-span" xlink:title="crm:P4_has_time&#45;span\n(is time&#45;span of)">
<text text-anchor="middle" x="332.65" y="-162" font-family="Arial" font-size="10.00" fill="maroon">crm:P4_has_time&#45;span</text>
<text text-anchor="middle" x="332.65" y="-151" font-family="Arial" font-size="10.00" fill="maroon">(is time&#45;span of)</text>
</a>
</g>
</g>
<!-- (report production) -->
<g id="node7" class="node"><title>(report production)</title>
<ellipse fill="ghostwhite" stroke="gray" cx="418.15" cy="-112" rx="55.8461" ry="18"/>
<text text-anchor="middle" x="418.15" y="-109.5" font-family="Arial" font-size="10.00" fill="blue">(report production)</text>
</g>
<!-- (investigation)&#45;&gt;(report production) -->
<g id="edge6" class="edge"><title>(investigation)&#45;&gt;(report production)</title>
<path fill="none" stroke="black" d="M278.059,-204.423C311.192,-201.872 355.782,-193.751 387.15,-170 397.291,-162.321 404.517,-150.326 409.427,-139.317"/>
<polygon fill="black" stroke="black" points="412.678,-140.613 413.16,-130.029 406.183,-138.002 412.678,-140.613"/>
<g id="a_edge6&#45;label"><a xlink:href="http://www.cidoc-crm.org/cidoc-crm/P9_consists_of" xlink:title="crm:P9_consists_of\n(forms part of)">
<text text-anchor="middle" x="447.65" y="-162" font-family="Arial" font-size="10.00" fill="maroon">crm:P9_consists_of</text>
<text text-anchor="middle" x="447.65" y="-151" font-family="Arial" font-size="10.00" fill="maroon">(forms part of)</text>
</a>
</g>
</g>
<!-- (OASIS report) -->
<g id="node8" class="node"><title>(OASIS report)</title>
<ellipse fill="ghostwhite" stroke="gray" cx="418.15" cy="-18" rx="47.1863" ry="18"/>
<text text-anchor="middle" x="418.15" y="-15.5" font-family="Arial" font-size="10.00" fill="blue">(OASIS report)</text>
</g>
<!-- (report production)&#45;&gt;(OASIS report) -->
<g id="edge7" class="edge"><title>(report production)&#45;&gt;(OASIS report)</title>
<path fill="none" stroke="black" d="M418.15,-93.6955C418.15,-80.4599 418.15,-61.9471 418.15,-46.6634"/>
<polygon fill="black" stroke="black" points="421.65,-46.2269 418.15,-36.2269 414.65,-46.2269 421.65,-46.2269"/>
<g id="a_edge7&#45;label"><a xlink:href="http://www.cidoc-crm.org/cidoc-crm/P108_has_produced" xlink:title="crm:P108_has_produced\n(was produced by)">
<text text-anchor="middle" x="472.65" y="-68" font-family="Arial" font-size="10.00" fill="maroon">crm:P108_has_produced</text>
<text text-anchor="middle" x="472.65" y="-57" font-family="Arial" font-size="10.00" fill="maroon">(was produced by)</text>
</a>
</g>
</g>
</g>
</svg>
