<?xml version="1.0" encoding="UTF-8" standalone="no"?>
<!DOCTYPE svg PUBLIC "-//W3C//DTD SVG 1.1//EN"
 "http://www.w3.org/Graphics/SVG/1.1/DTD/svg11.dtd">
<!-- Generated by graphviz version 2.38.0 (20140413.2041)
 -->
<!-- Title: %3 Pages: 1 -->
<svg width="714pt" height="321pt"
 viewBox="0.00 0.00 713.59 321.43" xmlns="http://www.w3.org/2000/svg" xmlns:xlink="http://www.w3.org/1999/xlink">
<g id="graph0" class="graph" transform="scale(1 1) rotate(0) translate(4 317.426)">
<title>%3</title>
<polygon fill="white" stroke="none" points="-4,4 -4,-317.426 709.593,-317.426 709.593,4 -4,4"/>
<!-- (investigation) -->
<g id="node1" class="node"><title>(investigation)</title>
<ellipse fill="none" stroke="gray" stroke-dasharray="5,2" cx="293.093" cy="-295.426" rx="44.978" ry="18"/>
<text text-anchor="middle" x="293.093" y="-292.926" font-family="Arial" font-size="10.00" fill="blue">(investigation)</text>
</g>
<!-- (site) -->
<g id="node2" class="node"><title>(site)</title>
<ellipse fill="lavender" stroke="gray" cx="293.093" cy="-201.426" rx="27" ry="18"/>
<text text-anchor="middle" x="293.093" y="-198.926" font-family="Arial" font-size="10.00" fill="blue">(site)</text>
</g>
<!-- (investigation)&#45;&gt;(site) -->
<g id="edge1" class="edge"><title>(investigation)&#45;&gt;(site)</title>
<path fill="none" stroke="black" d="M293.093,-277.122C293.093,-263.886 293.093,-245.373 293.093,-230.09"/>
<polygon fill="black" stroke="black" points="296.593,-229.653 293.093,-219.653 289.593,-229.653 296.593,-229.653"/>
<g id="a_edge1&#45;label"><a xlink:href="http://www.cidoc-crm.org/cidoc-crm/P7_took_place_at" xlink:title="crm:P7_took_place_at\n(witnessed)">
<text text-anchor="middle" x="342.093" y="-251.426" font-family="Arial" font-size="10.00" fill="maroon">crm:P7_took_place_at</text>
<text text-anchor="middle" x="342.093" y="-240.426" font-family="Arial" font-size="10.00" fill="maroon">(witnessed)</text>
</a>
</g>
</g>
<!-- crm:E53_Place -->
<g id="node3" class="node"><title>crm:E53_Place</title>
<g id="a_node3"><a xlink:href="http://www.cidoc-crm.org/cidoc-crm/E53_Place" xlink:title="crm:E53_Place" target="crm">
<ellipse fill="thistle" stroke="gray" cx="311.093" cy="-18" rx="48.7185" ry="18"/>
<text text-anchor="middle" x="311.093" y="-15.5" font-family="Arial" font-size="10.00" fill="blue">crm:E53_Place</text>
</a>
</g>
</g>
<!-- (site)&#45;&gt;crm:E53_Place -->
<g id="edge3" class="edge"><title>(site)&#45;&gt;crm:E53_Place</title>
<path fill="none" stroke="black" d="M282.808,-184.653C269.331,-161.924 248.78,-118.762 261.093,-83 266.264,-67.9809 276.567,-53.7865 286.483,-42.5995"/>
<polygon fill="black" stroke="black" points="289.295,-44.7164 293.557,-35.0164 284.176,-39.9416 289.295,-44.7164"/>
<g id="a_edge3&#45;label"><a xlink:href="http://www.w3.org/1999/02/22-rdf-syntax-ns#type" xlink:title="rdf:type">
<text text-anchor="middle" x="277.593" y="-101.713" font-family="Arial" font-size="10.00" fill="maroon">rdf:type</text>
</a>
</g>
</g>
<!-- aat:300000809 -->
<g id="node6" class="node"><title>aat:300000809</title>
<g id="a_node6"><a xlink:href="http://vocab.getty.edu/aat/300000809" xlink:title="aat:300000809">
<ellipse fill="ghostwhite" stroke="gray" cx="160.093" cy="-104.213" rx="47.1863" ry="18"/>
<text text-anchor="middle" x="160.093" y="-101.713" font-family="Arial" font-size="10.00" fill="blue">aat:300000809</text>
</a>
</g>
</g>
<!-- (site)&#45;&gt;aat:300000809 -->
<g id="edge2" class="edge"><title>(site)&#45;&gt;aat:300000809</title>
<path fill="none" stroke="black" d="M266.835,-197.205C232.176,-192.356 174.025,-181.949 161.093,-165.426 153.89,-156.223 152.786,-143.577 153.829,-132.249"/>
<polygon fill="black" stroke="black" points="157.293,-132.754 155.277,-122.353 150.366,-131.741 157.293,-132.754"/>
<g id="a_edge2&#45;label"><a xlink:href="http://www.cidoc-crm.org/cidoc-crm/P2_has_type" xlink:title="crm:P2_has_type\n(is type of)">
<text text-anchor="middle" x="199.593" y="-157.426" font-family="Arial" font-size="10.00" fill="maroon">crm:P2_has_type</text>
<text text-anchor="middle" x="199.593" y="-146.426" font-family="Arial" font-size="10.00" fill="maroon">(is type of)</text>
</a>
</g>
</g>
<!-- (site name) -->
<g id="node8" class="node"><title>(site name)</title>
<ellipse fill="ghostwhite" stroke="gray" cx="519.093" cy="-104.213" rx="38.0276" ry="18"/>
<text text-anchor="middle" x="519.093" y="-101.713" font-family="Arial" font-size="10.00" fill="blue">(site name)</text>
</g>
<!-- (site)&#45;&gt;(site name) -->
<g id="edge6" class="edge"><title>(site)&#45;&gt;(site name)</title>
<path fill="none" stroke="black" d="M319.613,-197.593C350.131,-193.567 401.171,-184.456 441.093,-165.426 461.159,-155.862 480.95,-140.494 495.576,-127.678"/>
<polygon fill="black" stroke="black" points="498.045,-130.164 503.139,-120.874 493.363,-124.96 498.045,-130.164"/>
<g id="a_edge6&#45;label"><a xlink:href="http://www.cidoc-crm.org/cidoc-crm/P1_is_identified_by" xlink:title="crm:P1_is_identified_by\n(identifies)">
<text text-anchor="middle" x="528.093" y="-157.426" font-family="Arial" font-size="10.00" fill="maroon">crm:P1_is_identified_by</text>
<text text-anchor="middle" x="528.093" y="-146.426" font-family="Arial" font-size="10.00" fill="maroon">(identifies)</text>
</a>
</g>
</g>
<!-- (postcode/district/\nparish/county/country) -->
<g id="node10" class="node"><title>(postcode/district/\nparish/county/country)</title>
<ellipse fill="ghostwhite" stroke="gray" cx="383.093" cy="-104.213" rx="79.8062" ry="21.4286"/>
<text text-anchor="middle" x="383.093" y="-107.213" font-family="Arial" font-size="10.00" fill="blue">(postcode/district/</text>
<text text-anchor="middle" x="383.093" y="-96.2132" font-family="Arial" font-size="10.00" fill="blue">parish/county/country)</text>
</g>
<!-- (site)&#45;&gt;(postcode/district/\nparish/county/country) -->
<g id="edge9" class="edge"><title>(site)&#45;&gt;(postcode/district/\nparish/county/country)</title>
<path fill="none" stroke="black" d="M307.156,-185.549C320.532,-171.398 340.976,-149.769 357.284,-132.517"/>
<polygon fill="black" stroke="black" points="360.119,-134.613 364.445,-124.941 355.032,-129.804 360.119,-134.613"/>
<g id="a_edge9&#45;label"><a xlink:href="http://www.cidoc-crm.org/cidoc-crm/P89_falls_within" xlink:title="crm:P89_falls_within\n(contains)">
<text text-anchor="middle" x="392.093" y="-157.426" font-family="Arial" font-size="10.00" fill="maroon">crm:P89_falls_within</text>
<text text-anchor="middle" x="392.093" y="-146.426" font-family="Arial" font-size="10.00" fill="maroon">(contains)</text>
</a>
</g>
</g>
<!-- crm:E41_Appellation -->
<g id="node4" class="node"><title>crm:E41_Appellation</title>
<g id="a_node4"><a xlink:href="http://www.cidoc-crm.org/cidoc-crm/E41_Appellation" xlink:title="crm:E41_Appellation" target="crm">
<ellipse fill="thistle" stroke="gray" cx="484.093" cy="-18" rx="62.9739" ry="18"/>
<text text-anchor="middle" x="484.093" y="-15.5" font-family="Arial" font-size="10.00" fill="blue">crm:E41_Appellation</text>
</a>
</g>
</g>
<!-- crm:E55_Type -->
<g id="node5" class="node"><title>crm:E55_Type</title>
<g id="a_node5"><a xlink:href="http://www.cidoc-crm.org/cidoc-crm/E55_Type" xlink:title="crm:E55_Type" target="crm">
<ellipse fill="thistle" stroke="gray" cx="47.093" cy="-18" rx="47.1863" ry="18"/>
<text text-anchor="middle" x="47.093" y="-15.5" font-family="Arial" font-size="10.00" fill="blue">crm:E55_Type</text>
</a>
</g>
</g>
<!-- aat:300000809&#45;&gt;crm:E55_Type -->
<g id="edge4" class="edge"><title>aat:300000809&#45;&gt;crm:E55_Type</title>
<path fill="none" stroke="black" d="M139.63,-87.9628C121.821,-74.6913 95.8158,-55.3106 75.9047,-40.4719"/>
<polygon fill="black" stroke="black" points="77.8958,-37.5907 67.7861,-34.4215 73.7129,-43.2035 77.8958,-37.5907"/>
<g id="a_edge4&#45;label"><a xlink:href="http://www.w3.org/1999/02/22-rdf-syntax-ns#type" xlink:title="rdf:type">
<text text-anchor="middle" x="123.593" y="-57" font-family="Arial" font-size="10.00" fill="maroon">rdf:type</text>
</a>
</g>
</g>
<!-- &quot;sites (locations)&quot;@en -->
<g id="node7" class="node"><title>&quot;sites (locations)&quot;@en</title>
<polygon fill="ghostwhite" stroke="gray" points="225.593,-36 112.593,-36 112.593,-0 225.593,-0 225.593,-36"/>
<text text-anchor="middle" x="169.093" y="-15.5" font-family="Arial" font-size="10.00">&quot;sites (locations)&quot;@en</text>
</g>
<!-- aat:300000809&#45;&gt;&quot;sites (locations)&quot;@en -->
<g id="edge5" class="edge"><title>aat:300000809&#45;&gt;&quot;sites (locations)&quot;@en</title>
<path fill="none" stroke="black" d="M161.914,-86.1714C163.146,-74.6427 164.8,-59.1726 166.209,-45.9847"/>
<polygon fill="black" stroke="black" points="169.692,-46.3318 167.274,-36.0165 162.732,-45.5879 169.692,-46.3318"/>
<g id="a_edge5&#45;label"><a xlink:href="http://www.w3.org/2000/01/rdf-schema#label" xlink:title="rdfs:label">
<text text-anchor="middle" x="186.093" y="-57" font-family="Arial" font-size="10.00" fill="maroon">rdfs:label</text>
</a>
</g>
</g>
<!-- (site name)&#45;&gt;crm:E41_Appellation -->
<g id="edge7" class="edge"><title>(site name)&#45;&gt;crm:E41_Appellation</title>
<path fill="none" stroke="black" d="M512.01,-86.1714C507.171,-74.5286 500.662,-58.8658 495.146,-45.5936"/>
<polygon fill="black" stroke="black" points="498.235,-43.9074 491.165,-36.0165 491.771,-46.594 498.235,-43.9074"/>
<g id="a_edge7&#45;label"><a xlink:href="http://www.w3.org/1999/02/22-rdf-syntax-ns#type" xlink:title="rdf:type">
<text text-anchor="middle" x="519.593" y="-57" font-family="Arial" font-size="10.00" fill="maroon">rdf:type</text>
</a>
</g>
</g>
<!-- &quot;Boundary Wall of Former\nCinema Site, Sandgate&quot;@en -->
<g id="node9" class="node"><title>&quot;Boundary Wall of Former\nCinema Site, Sandgate&quot;@en</title>
<polygon fill="ghostwhite" stroke="gray" points="705.593,-36 564.593,-36 564.593,-0 705.593,-0 705.593,-36"/>
<text text-anchor="middle" x="635.093" y="-21" font-family="Arial" font-size="10.00">&quot;Boundary Wall of Former</text>
<text text-anchor="middle" x="635.093" y="-10" font-family="Arial" font-size="10.00">Cinema Site, Sandgate&quot;@en</text>
</g>
<!-- (site name)&#45;&gt;&quot;Boundary Wall of Former\nCinema Site, Sandgate&quot;@en -->
<g id="edge8" class="edge"><title>(site name)&#45;&gt;&quot;Boundary Wall of Former\nCinema Site, Sandgate&quot;@en</title>
<path fill="none" stroke="black" d="M539.034,-88.7364C556.684,-75.9234 582.751,-56.9991 603.279,-42.0961"/>
<polygon fill="black" stroke="black" points="605.376,-44.899 611.412,-36.1917 601.264,-39.2343 605.376,-44.899"/>
<g id="a_edge8&#45;label"><a xlink:href="http://www.w3.org/2000/01/rdf-schema#label" xlink:title="rdfs:label">
<text text-anchor="middle" x="604.093" y="-57" font-family="Arial" font-size="10.00" fill="maroon">rdfs:label</text>
</a>
</g>
</g>
<!-- (postcode/district/\nparish/county/country)&#45;&gt;crm:E53_Place -->
<g id="edge10" class="edge"><title>(postcode/district/\nparish/county/country)&#45;&gt;crm:E53_Place</title>
<path fill="none" stroke="black" d="M366.03,-83.2558C355.796,-71.2862 342.708,-55.9782 331.874,-43.3064"/>
<polygon fill="black" stroke="black" points="334.292,-40.7477 325.133,-35.4214 328.971,-45.2966 334.292,-40.7477"/>
<g id="a_edge10&#45;label"><a xlink:href="http://www.w3.org/1999/02/22-rdf-syntax-ns#type" xlink:title="rdf:type">
<text text-anchor="middle" x="366.593" y="-57" font-family="Arial" font-size="10.00" fill="maroon">rdf:type</text>
</a>
</g>
</g>
</g>
</svg>
