<?xml version="1.0" encoding="UTF-8" standalone="no"?>
<!DOCTYPE svg PUBLIC "-//W3C//DTD SVG 1.1//EN"
 "http://www.w3.org/Graphics/SVG/1.1/DTD/svg11.dtd">
<!-- Generated by graphviz version 2.38.0 (20140413.2041)
 -->
<!-- Title: %3 Pages: 1 -->
<svg width="272pt" height="315pt"
 viewBox="0.00 0.00 271.86 315.00" xmlns="http://www.w3.org/2000/svg" xmlns:xlink="http://www.w3.org/1999/xlink">
<g id="graph0" class="graph" transform="scale(1 1) rotate(0) translate(4 311)">
<title>%3</title>
<polygon fill="white" stroke="none" points="-4,4 -4,-311 267.859,-311 267.859,4 -4,4"/>
<!-- crm:E41_Appellation -->
<g id="node1" class="node"><title>crm:E41_Appellation</title>
<g id="a_node1"><a xlink:href="http://www.cidoc-crm.org/cidoc-crm/E41_Appellation" xlink:title="crm:E41_Appellation" target="crm">
<ellipse fill="thistle" stroke="gray" cx="96.859" cy="-18" rx="62.9739" ry="18"/>
<text text-anchor="middle" x="96.859" y="-15.5" font-family="Arial" font-size="10.00" fill="blue">crm:E41_Appellation</text>
</a>
</g>
</g>
<!-- crm:E53_Place -->
<g id="node2" class="node"><title>crm:E53_Place</title>
<g id="a_node2"><a xlink:href="http://www.cidoc-crm.org/cidoc-crm/E53_Place" xlink:title="crm:E53_Place" target="crm">
<ellipse fill="thistle" stroke="gray" cx="48.859" cy="-101" rx="48.7185" ry="18"/>
<text text-anchor="middle" x="48.859" y="-98.5" font-family="Arial" font-size="10.00" fill="blue">crm:E53_Place</text>
</a>
</g>
</g>
<!-- (activity) -->
<g id="node3" class="node"><title>(activity)</title>
<ellipse fill="none" stroke="gray" stroke-dasharray="5,2" cx="76.859" cy="-289" rx="31.3996" ry="18"/>
<text text-anchor="middle" x="76.859" y="-286.5" font-family="Arial" font-size="10.00" fill="blue">(activity)</text>
</g>
<!-- (place) -->
<g id="node4" class="node"><title>(place)</title>
<ellipse fill="lavender" stroke="gray" cx="76.859" cy="-195" rx="27.1572" ry="18"/>
<text text-anchor="middle" x="76.859" y="-192.5" font-family="Arial" font-size="10.00" fill="blue">(place)</text>
</g>
<!-- (activity)&#45;&gt;(place) -->
<g id="edge1" class="edge"><title>(activity)&#45;&gt;(place)</title>
<path fill="none" stroke="black" d="M76.859,-270.696C76.859,-257.46 76.859,-238.947 76.859,-223.663"/>
<polygon fill="black" stroke="black" points="80.3591,-223.227 76.859,-213.227 73.3591,-223.227 80.3591,-223.227"/>
<g id="a_edge1&#45;label"><a xlink:href="http://www.cidoc-crm.org/cidoc-crm/P7_took_place_at" xlink:title="crm:P7_took_place_at\n(witnessed)">
<text text-anchor="middle" x="125.859" y="-245" font-family="Arial" font-size="10.00" fill="maroon">crm:P7_took_place_at</text>
<text text-anchor="middle" x="125.859" y="-234" font-family="Arial" font-size="10.00" fill="maroon">(witnessed)</text>
</a>
</g>
</g>
<!-- (place)&#45;&gt;crm:E53_Place -->
<g id="edge2" class="edge"><title>(place)&#45;&gt;crm:E53_Place</title>
<path fill="none" stroke="black" d="M71.7234,-177.126C67.605,-163.594 61.748,-144.35 56.9931,-128.726"/>
<polygon fill="black" stroke="black" points="60.317,-127.626 54.0569,-119.079 53.6202,-129.665 60.317,-127.626"/>
<g id="a_edge2&#45;label"><a xlink:href="http://www.w3.org/1999/02/22-rdf-syntax-ns#type" xlink:title="rdf:type">
<text text-anchor="middle" x="83.359" y="-145.5" font-family="Arial" font-size="10.00" fill="maroon">rdf:type</text>
</a>
</g>
</g>
<!-- (place)&#45;&gt;(place) -->
<g id="edge4" class="edge"><title>(place)&#45;&gt;(place)</title>
<path fill="none" stroke="black" d="M100.975,-203.454C112.163,-204.377 121.938,-201.559 121.938,-195 121.938,-190.593 117.525,-187.875 111.236,-186.846"/>
<polygon fill="black" stroke="black" points="111.073,-183.34 100.975,-186.546 110.869,-190.337 111.073,-183.34"/>
<g id="a_edge4&#45;label"><a xlink:href="http://www.cidoc-crm.org/cidoc-crm/P89_falls_within" xlink:title="crm:P89_falls_within\n(contains)">
<text text-anchor="middle" x="166.938" y="-198" font-family="Arial" font-size="10.00" fill="maroon">crm:P89_falls_within</text>
<text text-anchor="middle" x="166.938" y="-187" font-family="Arial" font-size="10.00" fill="maroon">(contains)</text>
</a>
</g>
</g>
<!-- (place name) -->
<g id="node6" class="node"><title>(place name)</title>
<ellipse fill="ghostwhite" stroke="gray" cx="158.859" cy="-101" rx="42.9448" ry="18"/>
<text text-anchor="middle" x="158.859" y="-98.5" font-family="Arial" font-size="10.00" fill="blue">(place name)</text>
</g>
<!-- (place)&#45;&gt;(place name) -->
<g id="edge3" class="edge"><title>(place)&#45;&gt;(place name)</title>
<path fill="none" stroke="black" d="M90.0337,-179.219C102.795,-164.901 122.365,-142.944 137.38,-126.099"/>
<polygon fill="black" stroke="black" points="140.294,-128.089 144.335,-118.295 135.068,-123.432 140.294,-128.089"/>
<g id="a_edge3&#45;label"><a xlink:href="http://www.cidoc-crm.org/cidoc-crm/P87_is_identified_by" xlink:title="crm:P87_is_identified_by\n(identifies)">
<text text-anchor="middle" x="182.359" y="-151" font-family="Arial" font-size="10.00" fill="maroon">crm:P87_is_identified_by</text>
<text text-anchor="middle" x="182.359" y="-140" font-family="Arial" font-size="10.00" fill="maroon">(identifies)</text>
</a>
</g>
</g>
<!-- &quot;Aberdeen&quot;@en -->
<g id="node5" class="node"><title>&quot;Aberdeen&quot;@en</title>
<polygon fill="ghostwhite" stroke="gray" points="263.859,-36 177.859,-36 177.859,-0 263.859,-0 263.859,-36"/>
<text text-anchor="middle" x="220.859" y="-15.5" font-family="Arial" font-size="10.00">&quot;Aberdeen&quot;@en</text>
</g>
<!-- (place name)&#45;&gt;crm:E41_Appellation -->
<g id="edge5" class="edge"><title>(place name)&#45;&gt;crm:E41_Appellation</title>
<path fill="none" stroke="black" d="M146.312,-83.6084C137.547,-72.1563 125.686,-56.6606 115.777,-43.7155"/>
<polygon fill="black" stroke="black" points="118.457,-41.4586 109.6,-35.6452 112.899,-45.7134 118.457,-41.4586"/>
<g id="a_edge5&#45;label"><a xlink:href="http://www.w3.org/1999/02/22-rdf-syntax-ns#type" xlink:title="rdf:type">
<text text-anchor="middle" x="148.359" y="-57" font-family="Arial" font-size="10.00" fill="maroon">rdf:type</text>
</a>
</g>
</g>
<!-- (place name)&#45;&gt;&quot;Aberdeen&quot;@en -->
<g id="edge6" class="edge"><title>(place name)&#45;&gt;&quot;Aberdeen&quot;@en</title>
<path fill="none" stroke="black" d="M171.406,-83.6084C180.055,-72.308 191.719,-57.0704 201.546,-44.2312"/>
<polygon fill="black" stroke="black" points="204.39,-46.2741 207.689,-36.2059 198.832,-42.0193 204.39,-46.2741"/>
<g id="a_edge6&#45;label"><a xlink:href="http://www.w3.org/2000/01/rdf-schema#label" xlink:title="rdfs:label">
<text text-anchor="middle" x="213.859" y="-57" font-family="Arial" font-size="10.00" fill="maroon">rdfs:label</text>
</a>
</g>
</g>
</g>
</svg>
