<?xml version="1.0" encoding="UTF-8" standalone="no"?>
<!DOCTYPE svg PUBLIC "-//W3C//DTD SVG 1.1//EN"
 "http://www.w3.org/Graphics/SVG/1.1/DTD/svg11.dtd">
<!-- Generated by graphviz version 2.38.0 (20140413.2041)
 -->
<!-- Title: %3 Pages: 1 -->
<svg width="521pt" height="221pt"
 viewBox="0.00 0.00 520.98 221.00" xmlns="http://www.w3.org/2000/svg" xmlns:xlink="http://www.w3.org/1999/xlink">
<g id="graph0" class="graph" transform="scale(1 1) rotate(0) translate(4 217)">
<title>%3</title>
<polygon fill="white" stroke="none" points="-4,4 -4,-217 516.981,-217 516.981,4 -4,4"/>
<!-- aat:300012264 -->
<g id="node1" class="node"><title>aat:300012264</title>
<g id="a_node1"><a xlink:href="http://vocab.getty.edu/aat/300012264" xlink:title="aat:300012264" target="aat">
<ellipse fill="ghostwhite" stroke="black" cx="172.746" cy="-101" rx="47.1863" ry="18"/>
<text text-anchor="middle" x="172.746" y="-98.5" font-family="Arial" font-size="10.00" fill="blue">aat:300012264</text>
</a>
</g>
</g>
<!-- crm:E57_Material -->
<g id="node4" class="node"><title>crm:E57_Material</title>
<g id="a_node4"><a xlink:href="http://www.cidoc-crm.org/cidoc-crm/E57_Material" xlink:title="crm:E57_Material" target="crm">
<ellipse fill="thistle" stroke="black" cx="54.7457" cy="-18" rx="54.9924" ry="18"/>
<text text-anchor="middle" x="54.7457" y="-15.5" font-family="Arial" font-size="10.00" fill="blue">crm:E57_Material</text>
</a>
</g>
</g>
<!-- aat:300012264&#45;&gt;crm:E57_Material -->
<g id="edge3" class="edge"><title>aat:300012264&#45;&gt;crm:E57_Material</title>
<path fill="none" stroke="black" d="M150.827,-84.9544C132.515,-72.3842 106.189,-54.3125 85.7221,-40.2635"/>
<polygon fill="black" stroke="black" points="87.5753,-37.2904 77.35,-34.5165 83.6137,-43.0615 87.5753,-37.2904"/>
<g id="a_edge3&#45;label"><a xlink:href="http://www.w3.org/1999/02/22-rdf-syntax-ns#type" xlink:title="rdf:type">
<text text-anchor="middle" x="138.246" y="-57" font-family="Arial" font-size="10.00" fill="maroon">rdf:type</text>
</a>
</g>
</g>
<!-- &quot;oak (wood)&quot;@en -->
<g id="node6" class="node"><title>&quot;oak (wood)&quot;@en</title>
<polygon fill="ghostwhite" stroke="black" points="219.746,-36 127.746,-36 127.746,-0 219.746,-0 219.746,-36"/>
<text text-anchor="middle" x="173.746" y="-15.5" font-family="Arial" font-size="10.00">&quot;oak (wood)&quot;@en</text>
</g>
<!-- aat:300012264&#45;&gt;&quot;oak (wood)&quot;@en -->
<g id="edge4" class="edge"><title>aat:300012264&#45;&gt;&quot;oak (wood)&quot;@en</title>
<path fill="none" stroke="black" d="M172.958,-82.822C173.089,-72.1903 173.26,-58.306 173.41,-46.2035"/>
<polygon fill="black" stroke="black" points="176.91,-46.1957 173.534,-36.1533 169.911,-46.1093 176.91,-46.1957"/>
<g id="a_edge4&#45;label"><a xlink:href="http://www.w3.org/2000/01/rdf-schema#label" xlink:title="rdfs:label">
<text text-anchor="middle" x="193.746" y="-57" font-family="Arial" font-size="10.00" fill="maroon">rdfs:label</text>
</a>
</g>
</g>
<!-- aat:300404391 -->
<g id="node2" class="node"><title>aat:300404391</title>
<g id="a_node2"><a xlink:href="http://vocab.getty.edu/aat/300404391" xlink:title="aat:300404391" target="aat">
<ellipse fill="ghostwhite" stroke="black" cx="285.746" cy="-101" rx="47.1863" ry="18"/>
<text text-anchor="middle" x="285.746" y="-98.5" font-family="Arial" font-size="10.00" fill="blue">aat:300404391</text>
</a>
</g>
</g>
<!-- crm:E55_Type -->
<g id="node7" class="node"><title>crm:E55_Type</title>
<g id="a_node7"><a xlink:href="http://www.cidoc-crm.org/cidoc-crm/E55_Type" xlink:title="crm:E55_Type" target="crm">
<ellipse fill="thistle" stroke="black" cx="284.746" cy="-18" rx="47.1863" ry="18"/>
<text text-anchor="middle" x="284.746" y="-15.5" font-family="Arial" font-size="10.00" fill="blue">crm:E55_Type</text>
</a>
</g>
</g>
<!-- aat:300404391&#45;&gt;crm:E55_Type -->
<g id="edge6" class="edge"><title>aat:300404391&#45;&gt;crm:E55_Type</title>
<path fill="none" stroke="black" d="M285.534,-82.822C285.402,-72.1903 285.231,-58.306 285.082,-46.2035"/>
<polygon fill="black" stroke="black" points="288.581,-46.1093 284.957,-36.1533 281.581,-46.1957 288.581,-46.1093"/>
<g id="a_edge6&#45;label"><a xlink:href="http://www.w3.org/1999/02/22-rdf-syntax-ns#type" xlink:title="rdf:type">
<text text-anchor="middle" x="302.246" y="-57" font-family="Arial" font-size="10.00" fill="maroon">rdf:type</text>
</a>
</g>
</g>
<!-- &quot;picture frame&quot;@en -->
<g id="node8" class="node"><title>&quot;picture frame&quot;@en</title>
<polygon fill="ghostwhite" stroke="black" points="451.246,-36 350.246,-36 350.246,-0 451.246,-0 451.246,-36"/>
<text text-anchor="middle" x="400.746" y="-15.5" font-family="Arial" font-size="10.00">&quot;picture frame&quot;@en</text>
</g>
<!-- aat:300404391&#45;&gt;&quot;picture frame&quot;@en -->
<g id="edge7" class="edge"><title>aat:300404391&#45;&gt;&quot;picture frame&quot;@en</title>
<path fill="none" stroke="black" d="M307.107,-84.9544C324.195,-72.9186 348.443,-55.839 367.983,-42.0763"/>
<polygon fill="black" stroke="black" points="370.15,-44.8313 376.31,-36.2113 366.119,-39.1083 370.15,-44.8313"/>
<g id="a_edge7&#45;label"><a xlink:href="http://www.w3.org/2000/01/rdf-schema#label" xlink:title="rdfs:label">
<text text-anchor="middle" x="370.746" y="-57" font-family="Arial" font-size="10.00" fill="maroon">rdfs:label</text>
</a>
</g>
</g>
<!-- crm:E22_Man&#45;Made_Object -->
<g id="node3" class="node"><title>crm:E22_Man&#45;Made_Object</title>
<g id="a_node3"><a xlink:href="http://www.cidoc-crm.org/cidoc-crm/E22_Man-Made_Object" xlink:title="crm:E22_Man&#45;Made_Object" target="crm">
<ellipse fill="thistle" stroke="black" cx="431.746" cy="-101" rx="81.4717" ry="18"/>
<text text-anchor="middle" x="431.746" y="-98.5" font-family="Arial" font-size="10.00" fill="blue">crm:E22_Man&#45;Made_Object</text>
</a>
</g>
</g>
<!-- (monument) -->
<g id="node5" class="node"><title>(monument)</title>
<ellipse fill="lavender" stroke="black" cx="287.746" cy="-195" rx="40.0582" ry="18"/>
<text text-anchor="middle" x="287.746" y="-192.5" font-family="Arial" font-size="10.00" fill="blue">(monument)</text>
</g>
<!-- (monument)&#45;&gt;aat:300012264 -->
<g id="edge2" class="edge"><title>(monument)&#45;&gt;aat:300012264</title>
<path fill="none" stroke="black" d="M250.197,-188.676C230.113,-184.003 206.371,-175.27 190.746,-159 182.982,-150.916 178.566,-139.509 176.054,-129.02"/>
<polygon fill="black" stroke="black" points="179.451,-128.153 174.123,-118.995 172.577,-129.477 179.451,-128.153"/>
<g id="a_edge2&#45;label"><a xlink:href="http://www.cidoc-crm.org/cidoc-crm/P45_consists_of" xlink:title="crm:P45_consists_of\n(is incorporated in)">
<text text-anchor="middle" x="236.746" y="-151" font-family="Arial" font-size="10.00" fill="maroon">crm:P45_consists_of</text>
<text text-anchor="middle" x="236.746" y="-140" font-family="Arial" font-size="10.00" fill="maroon">(is incorporated in)</text>
</a>
</g>
</g>
<!-- (monument)&#45;&gt;aat:300404391 -->
<g id="edge5" class="edge"><title>(monument)&#45;&gt;aat:300404391</title>
<path fill="none" stroke="black" d="M287.369,-176.696C287.082,-163.46 286.679,-144.947 286.347,-129.663"/>
<polygon fill="black" stroke="black" points="289.837,-129.148 286.12,-119.227 282.838,-129.301 289.837,-129.148"/>
<g id="a_edge5&#45;label"><a xlink:href="http://www.cidoc-crm.org/cidoc-crm/P2_has_type" xlink:title="crm:P2_has_type\n(is type of)">
<text text-anchor="middle" x="326.246" y="-151" font-family="Arial" font-size="10.00" fill="maroon">crm:P2_has_type</text>
<text text-anchor="middle" x="326.246" y="-140" font-family="Arial" font-size="10.00" fill="maroon">(is type of)</text>
</a>
</g>
</g>
<!-- (monument)&#45;&gt;crm:E22_Man&#45;Made_Object -->
<g id="edge1" class="edge"><title>(monument)&#45;&gt;crm:E22_Man&#45;Made_Object</title>
<path fill="none" stroke="black" d="M318.559,-183.432C334.208,-177.396 353.157,-169.029 368.746,-159 383.158,-149.728 397.466,-137.131 408.794,-126.137"/>
<polygon fill="black" stroke="black" points="411.505,-128.377 416.126,-118.843 406.568,-123.415 411.505,-128.377"/>
<g id="a_edge1&#45;label"><a xlink:href="http://www.w3.org/1999/02/22-rdf-syntax-ns#type" xlink:title="rdf:type">
<text text-anchor="middle" x="413.246" y="-145.5" font-family="Arial" font-size="10.00" fill="maroon">rdf:type</text>
</a>
</g>
</g>
</g>
</svg>
