<?xml version="1.0" encoding="UTF-8" standalone="no"?>
<!DOCTYPE svg PUBLIC "-//W3C//DTD SVG 1.1//EN"
 "http://www.w3.org/Graphics/SVG/1.1/DTD/svg11.dtd">
<!-- Generated by graphviz version 2.38.0 (20140413.2041)
 -->
<!-- Title: %3 Pages: 1 -->
<svg width="548pt" height="503pt"
 viewBox="0.00 0.00 547.85 503.00" xmlns="http://www.w3.org/2000/svg" xmlns:xlink="http://www.w3.org/1999/xlink">
<g id="graph0" class="graph" transform="scale(1 1) rotate(0) translate(4 499)">
<title>%3</title>
<polygon fill="white" stroke="none" points="-4,4 -4,-499 543.846,-499 543.846,4 -4,4"/>
<!-- crm:E7_Activity -->
<g id="node1" class="node"><title>crm:E7_Activity</title>
<g id="a_node1"><a xlink:href="http://www.cidoc-crm.org/cidoc-crm/E7_Activity" xlink:title="crm:E7_Activity" target="crm">
<ellipse fill="thistle" stroke="gray" cx="50.0364" cy="-101" rx="50.0727" ry="18"/>
<text text-anchor="middle" x="50.0364" y="-98.5" font-family="Arial" font-size="10.00" fill="blue">crm:E7_Activity</text>
</a>
</g>
</g>
<!-- crm:E12_Production -->
<g id="node2" class="node"><title>crm:E12_Production</title>
<g id="a_node2"><a xlink:href="http://www.cidoc-crm.org/cidoc-crm/E12_Production" xlink:title="crm:E12_Production" target="crm">
<ellipse fill="thistle" stroke="gray" cx="478.036" cy="-289" rx="61.6198" ry="18"/>
<text text-anchor="middle" x="478.036" y="-286.5" font-family="Arial" font-size="10.00" fill="blue">crm:E12_Production</text>
</a>
</g>
</g>
<!-- crm:E31_Document -->
<g id="node3" class="node"><title>crm:E31_Document</title>
<g id="a_node3"><a xlink:href="http://www.cidoc-crm.org/cidoc-crm/E31_Document" xlink:title="crm:E31_Document" target="crm">
<ellipse fill="thistle" stroke="gray" cx="357.036" cy="-195" rx="60.7649" ry="18"/>
<text text-anchor="middle" x="357.036" y="-192.5" font-family="Arial" font-size="10.00" fill="blue">crm:E31_Document</text>
</a>
</g>
</g>
<!-- crm:E52_Time&#45;Span -->
<g id="node4" class="node"><title>crm:E52_Time&#45;Span</title>
<g id="a_node4"><a xlink:href="http://www.cidoc-crm.org/cidoc-crm/E52_Time-Span" xlink:title="crm:E52_Time&#45;Span" target="crm">
<ellipse fill="thistle" stroke="gray" cx="411.036" cy="-18" rx="61.6198" ry="18"/>
<text text-anchor="middle" x="411.036" y="-15.5" font-family="Arial" font-size="10.00" fill="blue">crm:E52_Time&#45;Span</text>
</a>
</g>
</g>
<!-- crm:E53_Place -->
<g id="node5" class="node"><title>crm:E53_Place</title>
<g id="a_node5"><a xlink:href="http://www.cidoc-crm.org/cidoc-crm/E53_Place" xlink:title="crm:E53_Place" target="crm">
<ellipse fill="thistle" stroke="gray" cx="282.036" cy="-18" rx="48.7185" ry="18"/>
<text text-anchor="middle" x="282.036" y="-15.5" font-family="Arial" font-size="10.00" fill="blue">crm:E53_Place</text>
</a>
</g>
</g>
<!-- crm:E73_Information_Object -->
<g id="node6" class="node"><title>crm:E73_Information_Object</title>
<g id="a_node6"><a xlink:href="http://www.cidoc-crm.org/cidoc-crm/E73_Information_Object" xlink:title="crm:E73_Information_Object" target="crm">
<ellipse fill="thistle" stroke="gray" cx="92.0364" cy="-289" rx="82.3257" ry="18"/>
<text text-anchor="middle" x="92.0364" y="-286.5" font-family="Arial" font-size="10.00" fill="blue">crm:E73_Information_Object</text>
</a>
</g>
</g>
<!-- crm:E74_Group -->
<g id="node7" class="node"><title>crm:E74_Group</title>
<g id="a_node7"><a xlink:href="http://www.cidoc-crm.org/cidoc-crm/E74_Group" xlink:title="crm:E74_Group" target="crm">
<ellipse fill="thistle" stroke="gray" cx="162.036" cy="-18" rx="50.0727" ry="18"/>
<text text-anchor="middle" x="162.036" y="-15.5" font-family="Arial" font-size="10.00" fill="blue">crm:E74_Group</text>
</a>
</g>
</g>
<!-- (dataset) -->
<g id="node8" class="node"><title>(dataset)</title>
<ellipse fill="ghostwhite" stroke="gray" cx="133.036" cy="-477" rx="32.2534" ry="18"/>
<text text-anchor="middle" x="133.036" y="-474.5" font-family="Arial" font-size="10.00" fill="blue">(dataset)</text>
</g>
<!-- (dataset)&#45;&gt;crm:E73_Information_Object -->
<g id="edge1" class="edge"><title>(dataset)&#45;&gt;crm:E73_Information_Object</title>
<path fill="none" stroke="black" d="M129.253,-458.835C122.113,-426.446 106.604,-356.087 98.032,-317.2"/>
<polygon fill="black" stroke="black" points="101.382,-316.136 95.8109,-307.124 94.5456,-317.643 101.382,-316.136"/>
<g id="a_edge1&#45;label"><a xlink:href="http://www.w3.org/1999/02/22-rdf-syntax-ns#type" xlink:title="rdf:type">
<text text-anchor="middle" x="132.536" y="-380.5" font-family="Arial" font-size="10.00" fill="maroon">rdf:type</text>
</a>
</g>
</g>
<!-- (record) -->
<g id="node9" class="node"><title>(record)</title>
<ellipse fill="ghostwhite" stroke="gray" cx="196.036" cy="-383" rx="29.3664" ry="18"/>
<text text-anchor="middle" x="196.036" y="-380.5" font-family="Arial" font-size="10.00" fill="blue">(record)</text>
</g>
<!-- (dataset)&#45;&gt;(record) -->
<g id="edge9" class="edge"><title>(dataset)&#45;&gt;(record)</title>
<path fill="none" stroke="black" d="M144.01,-459.975C153.767,-445.727 168.176,-424.685 179.358,-408.355"/>
<polygon fill="black" stroke="black" points="182.426,-410.07 185.188,-399.842 176.65,-406.115 182.426,-410.07"/>
<g id="a_edge9&#45;label"><a xlink:href="http://www.cidoc-crm.org/cidoc-crm/P148_has_component" xlink:title="crm:P148_has_component\n(is component of)">
<text text-anchor="middle" x="230.536" y="-433" font-family="Arial" font-size="10.00" fill="maroon">crm:P148_has_component</text>
<text text-anchor="middle" x="230.536" y="-422" font-family="Arial" font-size="10.00" fill="maroon">(is component of)</text>
</a>
</g>
</g>
<!-- (record)&#45;&gt;crm:E73_Information_Object -->
<g id="edge2" class="edge"><title>(record)&#45;&gt;crm:E73_Information_Object</title>
<path fill="none" stroke="black" d="M179.786,-367.625C163.418,-353.145 137.889,-330.562 118.578,-313.479"/>
<polygon fill="black" stroke="black" points="120.8,-310.772 110.991,-306.767 116.162,-316.015 120.8,-310.772"/>
<g id="a_edge2&#45;label"><a xlink:href="http://www.w3.org/1999/02/22-rdf-syntax-ns#type" xlink:title="rdf:type">
<text text-anchor="middle" x="173.536" y="-333.5" font-family="Arial" font-size="10.00" fill="maroon">rdf:type</text>
</a>
</g>
</g>
<!-- (investigation) -->
<g id="node10" class="node"><title>(investigation)</title>
<ellipse fill="ghostwhite" stroke="gray" cx="222.036" cy="-195" rx="44.978" ry="18"/>
<text text-anchor="middle" x="222.036" y="-192.5" font-family="Arial" font-size="10.00" fill="blue">(investigation)</text>
</g>
<!-- (record)&#45;&gt;(investigation) -->
<g id="edge10" class="edge"><title>(record)&#45;&gt;(investigation)</title>
<path fill="none" stroke="black" d="M198.436,-364.835C202.963,-332.446 212.798,-262.087 218.234,-223.2"/>
<polygon fill="black" stroke="black" points="221.725,-223.512 219.643,-213.124 214.792,-222.543 221.725,-223.512"/>
<g id="a_edge10&#45;label"><a xlink:href="http://www.cidoc-crm.org/cidoc-crm/P67_refers_to" xlink:title="crm:P67_refers_to\n(is referred_to_by)">
<text text-anchor="middle" x="252.036" y="-292" font-family="Arial" font-size="10.00" fill="maroon">crm:P67_refers_to</text>
<text text-anchor="middle" x="252.036" y="-281" font-family="Arial" font-size="10.00" fill="maroon">(is referred_to_by)</text>
</a>
</g>
</g>
<!-- (report) -->
<g id="node15" class="node"><title>(report)</title>
<ellipse fill="ghostwhite" stroke="gray" cx="341.036" cy="-289" rx="27.8353" ry="18"/>
<text text-anchor="middle" x="341.036" y="-286.5" font-family="Arial" font-size="10.00" fill="blue">(report)</text>
</g>
<!-- (record)&#45;&gt;(report) -->
<g id="edge11" class="edge"><title>(record)&#45;&gt;(report)</title>
<path fill="none" stroke="black" d="M208.456,-366.458C219.165,-353.891 235.617,-336.462 253.036,-325 257.994,-321.738 285.349,-311.023 308.261,-302.3"/>
<polygon fill="black" stroke="black" points="309.621,-305.527 317.731,-298.71 307.139,-298.982 309.621,-305.527"/>
<g id="a_edge11&#45;label"><a xlink:href="http://www.cidoc-crm.org/cidoc-crm/P67_refers_to" xlink:title="crm:P67_refers_to\n(is referred_to_by)">
<text text-anchor="middle" x="293.036" y="-339" font-family="Arial" font-size="10.00" fill="maroon">crm:P67_refers_to</text>
<text text-anchor="middle" x="293.036" y="-328" font-family="Arial" font-size="10.00" fill="maroon">(is referred_to_by)</text>
</a>
</g>
</g>
<!-- (investigation)&#45;&gt;crm:E7_Activity -->
<g id="edge3" class="edge"><title>(investigation)&#45;&gt;crm:E7_Activity</title>
<path fill="none" stroke="black" d="M184.128,-185.151C163.484,-179.417 137.96,-170.795 117.036,-159 100.994,-149.956 85.1993,-136.785 72.978,-125.382"/>
<polygon fill="black" stroke="black" points="75.1356,-122.602 65.4962,-118.205 70.2897,-127.653 75.1356,-122.602"/>
<g id="a_edge3&#45;label"><a xlink:href="http://www.w3.org/1999/02/22-rdf-syntax-ns#type" xlink:title="rdf:type">
<text text-anchor="middle" x="133.536" y="-145.5" font-family="Arial" font-size="10.00" fill="maroon">rdf:type</text>
</a>
</g>
</g>
<!-- (organization) -->
<g id="node11" class="node"><title>(organization)</title>
<ellipse fill="ghostwhite" stroke="gray" cx="162.036" cy="-101" rx="44.3" ry="18"/>
<text text-anchor="middle" x="162.036" y="-98.5" font-family="Arial" font-size="10.00" fill="blue">(organization)</text>
</g>
<!-- (investigation)&#45;&gt;(organization) -->
<g id="edge12" class="edge"><title>(investigation)&#45;&gt;(organization)</title>
<path fill="none" stroke="black" d="M188.097,-183.183C176.825,-177.79 165.508,-169.999 159.036,-159 153.777,-150.062 153.319,-138.907 154.616,-128.84"/>
<polygon fill="black" stroke="black" points="158.08,-129.355 156.474,-118.883 151.199,-128.071 158.08,-129.355"/>
<g id="a_edge12&#45;label"><a xlink:href="http://www.cidoc-crm.org/cidoc-crm/P14_carried_out_by" xlink:title="crm:P14_carried_out_by\n(performed)">
<text text-anchor="middle" x="212.036" y="-151" font-family="Arial" font-size="10.00" fill="maroon">crm:P14_carried_out_by</text>
<text text-anchor="middle" x="212.036" y="-140" font-family="Arial" font-size="10.00" fill="maroon">(performed)</text>
</a>
</g>
</g>
<!-- (site) -->
<g id="node12" class="node"><title>(site)</title>
<ellipse fill="ghostwhite" stroke="gray" cx="283.036" cy="-101" rx="27" ry="18"/>
<text text-anchor="middle" x="283.036" y="-98.5" font-family="Arial" font-size="10.00" fill="blue">(site)</text>
</g>
<!-- (investigation)&#45;&gt;(site) -->
<g id="edge13" class="edge"><title>(investigation)&#45;&gt;(site)</title>
<path fill="none" stroke="black" d="M244.899,-179.377C252.192,-173.761 259.735,-166.803 265.036,-159 271.096,-150.081 275.202,-139.012 277.942,-129.007"/>
<polygon fill="black" stroke="black" points="281.389,-129.643 280.327,-119.101 274.583,-128.004 281.389,-129.643"/>
<g id="a_edge13&#45;label"><a xlink:href="http://www.cidoc-crm.org/cidoc-crm/P7_took_place_at" xlink:title="crm:P7_took_place_at\n(witnessed)">
<text text-anchor="middle" x="324.036" y="-151" font-family="Arial" font-size="10.00" fill="maroon">crm:P7_took_place_at</text>
<text text-anchor="middle" x="324.036" y="-140" font-family="Arial" font-size="10.00" fill="maroon">(witnessed)</text>
</a>
</g>
</g>
<!-- (timespan) -->
<g id="node13" class="node"><title>(timespan)</title>
<ellipse fill="ghostwhite" stroke="gray" cx="411.036" cy="-101" rx="36.4942" ry="18"/>
<text text-anchor="middle" x="411.036" y="-98.5" font-family="Arial" font-size="10.00" fill="blue">(timespan)</text>
</g>
<!-- (investigation)&#45;&gt;(timespan) -->
<g id="edge14" class="edge"><title>(investigation)&#45;&gt;(timespan)</title>
<path fill="none" stroke="black" d="M258.044,-184.182C267.453,-181.727 277.602,-179.175 287.036,-177 326.786,-167.835 343.723,-182.541 377.036,-159 387.735,-151.44 395.637,-139.352 401.116,-128.249"/>
<polygon fill="black" stroke="black" points="404.418,-129.441 405.317,-118.885 398.031,-126.576 404.418,-129.441"/>
<g id="a_edge14&#45;label"><a xlink:href="http://www.cidoc-crm.org/cidoc-crm/P4_has_time-span" xlink:title="crm:P4_has_time&#45;span\n(is time&#45;span of)">
<text text-anchor="middle" x="446.536" y="-151" font-family="Arial" font-size="10.00" fill="maroon">crm:P4_has_time&#45;span</text>
<text text-anchor="middle" x="446.536" y="-140" font-family="Arial" font-size="10.00" fill="maroon">(is time&#45;span of)</text>
</a>
</g>
</g>
<!-- (organization)&#45;&gt;crm:E74_Group -->
<g id="edge4" class="edge"><title>(organization)&#45;&gt;crm:E74_Group</title>
<path fill="none" stroke="black" d="M162.036,-82.822C162.036,-72.1903 162.036,-58.306 162.036,-46.2035"/>
<polygon fill="black" stroke="black" points="165.536,-46.1532 162.036,-36.1533 158.536,-46.1533 165.536,-46.1532"/>
<g id="a_edge4&#45;label"><a xlink:href="http://www.w3.org/1999/02/22-rdf-syntax-ns#type" xlink:title="rdf:type">
<text text-anchor="middle" x="178.536" y="-57" font-family="Arial" font-size="10.00" fill="maroon">rdf:type</text>
</a>
</g>
</g>
<!-- (site)&#45;&gt;crm:E53_Place -->
<g id="edge5" class="edge"><title>(site)&#45;&gt;crm:E53_Place</title>
<path fill="none" stroke="black" d="M282.824,-82.822C282.693,-72.1903 282.522,-58.306 282.372,-46.2035"/>
<polygon fill="black" stroke="black" points="285.871,-46.1093 282.248,-36.1533 278.872,-46.1957 285.871,-46.1093"/>
<g id="a_edge5&#45;label"><a xlink:href="http://www.w3.org/1999/02/22-rdf-syntax-ns#type" xlink:title="rdf:type">
<text text-anchor="middle" x="299.536" y="-57" font-family="Arial" font-size="10.00" fill="maroon">rdf:type</text>
</a>
</g>
</g>
<!-- (timespan)&#45;&gt;crm:E52_Time&#45;Span -->
<g id="edge6" class="edge"><title>(timespan)&#45;&gt;crm:E52_Time&#45;Span</title>
<path fill="none" stroke="black" d="M411.036,-82.822C411.036,-72.1903 411.036,-58.306 411.036,-46.2035"/>
<polygon fill="black" stroke="black" points="414.536,-46.1532 411.036,-36.1533 407.536,-46.1533 414.536,-46.1532"/>
<g id="a_edge6&#45;label"><a xlink:href="http://www.w3.org/1999/02/22-rdf-syntax-ns#type" xlink:title="rdf:type">
<text text-anchor="middle" x="427.536" y="-57" font-family="Arial" font-size="10.00" fill="maroon">rdf:type</text>
</a>
</g>
</g>
<!-- (report production) -->
<g id="node14" class="node"><title>(report production)</title>
<ellipse fill="ghostwhite" stroke="gray" cx="412.036" cy="-383" rx="55.8461" ry="18"/>
<text text-anchor="middle" x="412.036" y="-380.5" font-family="Arial" font-size="10.00" fill="blue">(report production)</text>
</g>
<!-- (report production)&#45;&gt;crm:E12_Production -->
<g id="edge7" class="edge"><title>(report production)&#45;&gt;crm:E12_Production</title>
<path fill="none" stroke="black" d="M436.07,-366.575C443.229,-361.077 450.604,-354.394 456.036,-347 462.63,-338.024 467.516,-326.822 470.986,-316.73"/>
<polygon fill="black" stroke="black" points="474.343,-317.721 473.994,-307.132 467.664,-315.628 474.343,-317.721"/>
<g id="a_edge7&#45;label"><a xlink:href="http://www.w3.org/1999/02/22-rdf-syntax-ns#type" xlink:title="rdf:type">
<text text-anchor="middle" x="484.536" y="-333.5" font-family="Arial" font-size="10.00" fill="maroon">rdf:type</text>
</a>
</g>
</g>
<!-- (report production)&#45;&gt;(report) -->
<g id="edge16" class="edge"><title>(report production)&#45;&gt;(report)</title>
<path fill="none" stroke="black" d="M371.915,-370.307C360.703,-365.027 349.759,-357.529 343.036,-347 337.46,-338.266 336.109,-327.148 336.46,-317.054"/>
<polygon fill="black" stroke="black" points="339.95,-317.316 337.336,-307.049 332.977,-316.705 339.95,-317.316"/>
<g id="a_edge16&#45;label"><a xlink:href="http://www.cidoc-crm.org/cidoc-crm/P108_has_produced" xlink:title="crm:P108_has_produced\n(was produced by)">
<text text-anchor="middle" x="397.536" y="-339" font-family="Arial" font-size="10.00" fill="maroon">crm:P108_has_produced</text>
<text text-anchor="middle" x="397.536" y="-328" font-family="Arial" font-size="10.00" fill="maroon">(was produced by)</text>
</a>
</g>
</g>
<!-- (report)&#45;&gt;crm:E31_Document -->
<g id="edge8" class="edge"><title>(report)&#45;&gt;crm:E31_Document</title>
<path fill="none" stroke="black" d="M344.046,-270.696C346.37,-257.331 349.63,-238.587 352.303,-223.219"/>
<polygon fill="black" stroke="black" points="355.775,-223.679 354.04,-213.227 348.879,-222.479 355.775,-223.679"/>
<g id="a_edge8&#45;label"><a xlink:href="http://www.w3.org/1999/02/22-rdf-syntax-ns#type" xlink:title="rdf:type">
<text text-anchor="middle" x="367.536" y="-239.5" font-family="Arial" font-size="10.00" fill="maroon">rdf:type</text>
</a>
</g>
</g>
<!-- (report)&#45;&gt;(investigation) -->
<g id="edge15" class="edge"><title>(report)&#45;&gt;(investigation)</title>
<path fill="none" stroke="black" d="M317.063,-279.421C292.776,-270.579 258.079,-257.473 253.036,-253 243.746,-244.759 236.708,-233.044 231.705,-222.376"/>
<polygon fill="black" stroke="black" points="234.841,-220.809 227.677,-213.003 228.41,-223.573 234.841,-220.809"/>
<g id="a_edge15&#45;label"><a xlink:href="http://www.cidoc-crm.org/cidoc-crm/P70_documents" xlink:title="crm:P70_documents\n(is documented in)">
<text text-anchor="middle" x="298.536" y="-245" font-family="Arial" font-size="10.00" fill="maroon">crm:P70_documents</text>
<text text-anchor="middle" x="298.536" y="-234" font-family="Arial" font-size="10.00" fill="maroon">(is documented in)</text>
</a>
</g>
</g>
</g>
</svg>
