<?xml version="1.0" encoding="UTF-8" standalone="no"?>
<!DOCTYPE svg PUBLIC "-//W3C//DTD SVG 1.1//EN"
 "http://www.w3.org/Graphics/SVG/1.1/DTD/svg11.dtd">
<!-- Generated by graphviz version 2.38.0 (20140413.2041)
 -->
<!-- Title: %3 Pages: 1 -->
<svg width="763pt" height="315pt"
 viewBox="0.00 0.00 762.75 315.00" xmlns="http://www.w3.org/2000/svg" xmlns:xlink="http://www.w3.org/1999/xlink">
<g id="graph0" class="graph" transform="scale(1 1) rotate(0) translate(4 311)">
<title>%3</title>
<polygon fill="white" stroke="none" points="-4,4 -4,-311 758.747,-311 758.747,4 -4,4"/>
<!-- (investigation) -->
<g id="node1" class="node"><title>(investigation)</title>
<ellipse fill="none" stroke="gray" stroke-dasharray="5,2" cx="222.987" cy="-289" rx="44.978" ry="18"/>
<text text-anchor="middle" x="222.987" y="-286.5" font-family="Arial" font-size="10.00" fill="blue">(investigation)</text>
</g>
<!-- (site) -->
<g id="node4" class="node"><title>(site)</title>
<ellipse fill="lavender" stroke="gray" cx="343.987" cy="-195" rx="27" ry="18"/>
<text text-anchor="middle" x="343.987" y="-192.5" font-family="Arial" font-size="10.00" fill="blue">(site)</text>
</g>
<!-- (investigation)&#45;&gt;(site) -->
<g id="edge1" class="edge"><title>(investigation)&#45;&gt;(site)</title>
<path fill="none" stroke="black" d="M224.643,-270.942C226.723,-258.37 231.412,-241.668 241.987,-231 259.282,-213.553 285.645,-204.796 307.237,-200.404"/>
<polygon fill="black" stroke="black" points="307.861,-203.848 317.082,-198.629 306.619,-196.959 307.861,-203.848"/>
<g id="a_edge1&#45;label"><a xlink:href="http://www.cidoc-crm.org/cidoc-crm/P7_took_place_at" xlink:title="crm:P7_took_place_at\n(witnessed)">
<text text-anchor="middle" x="290.987" y="-245" font-family="Arial" font-size="10.00" fill="maroon">crm:P7_took_place_at</text>
<text text-anchor="middle" x="290.987" y="-234" font-family="Arial" font-size="10.00" fill="maroon">(witnessed)</text>
</a>
</g>
</g>
<!-- (monument) -->
<g id="node2" class="node"><title>(monument)</title>
<ellipse fill="none" stroke="gray" stroke-dasharray="5,2" cx="343.987" cy="-289" rx="40.0582" ry="18"/>
<text text-anchor="middle" x="343.987" y="-286.5" font-family="Arial" font-size="10.00" fill="blue">(monument)</text>
</g>
<!-- (monument)&#45;&gt;(site) -->
<g id="edge2" class="edge"><title>(monument)&#45;&gt;(site)</title>
<path fill="none" stroke="black" d="M343.987,-270.696C343.987,-257.46 343.987,-238.947 343.987,-223.663"/>
<polygon fill="black" stroke="black" points="347.487,-223.227 343.987,-213.227 340.487,-223.227 347.487,-223.227"/>
<g id="a_edge2&#45;label"><a xlink:href="http://www.cidoc-crm.org/cidoc-crm/P55_has_current_location" xlink:title="crm:P55_has_current_location\n(currently holds)">
<text text-anchor="middle" x="410.487" y="-245" font-family="Arial" font-size="10.00" fill="maroon">crm:P55_has_current_location</text>
<text text-anchor="middle" x="410.487" y="-234" font-family="Arial" font-size="10.00" fill="maroon">(currently holds)</text>
</a>
</g>
</g>
<!-- (artefact) -->
<g id="node3" class="node"><title>(artefact)</title>
<ellipse fill="none" stroke="gray" stroke-dasharray="5,2" cx="499.987" cy="-289" rx="32.2534" ry="18"/>
<text text-anchor="middle" x="499.987" y="-286.5" font-family="Arial" font-size="10.00" fill="blue">(artefact)</text>
</g>
<!-- (artefact)&#45;&gt;(site) -->
<g id="edge3" class="edge"><title>(artefact)&#45;&gt;(site)</title>
<path fill="none" stroke="black" d="M497.636,-270.923C494.993,-258.171 489.459,-241.245 477.987,-231 451.473,-207.321 410.891,-199.319 381.334,-196.784"/>
<polygon fill="black" stroke="black" points="381.204,-193.267 370.989,-196.078 380.728,-200.251 381.204,-193.267"/>
<g id="a_edge3&#45;label"><a xlink:href="http://www.cidoc-crm.org/cidoc-crm/P53_has_former_or_current_location" xlink:title="crm:P53_has_former_or_current_location\n(is former or current location of)">
<text text-anchor="middle" x="581.987" y="-245" font-family="Arial" font-size="10.00" fill="maroon">crm:P53_has_former_or_current_location</text>
<text text-anchor="middle" x="581.987" y="-234" font-family="Arial" font-size="10.00" fill="maroon">(is former or current location of)</text>
</a>
</g>
</g>
<!-- crm:E53_Place -->
<g id="node5" class="node"><title>crm:E53_Place</title>
<g id="a_node5"><a xlink:href="http://www.cidoc-crm.org/cidoc-crm/E53_Place" xlink:title="crm:E53_Place" target="crm">
<ellipse fill="thistle" stroke="gray" cx="107.987" cy="-101" rx="48.7185" ry="18"/>
<text text-anchor="middle" x="107.987" y="-98.5" font-family="Arial" font-size="10.00" fill="blue">crm:E53_Place</text>
</a>
</g>
</g>
<!-- (site)&#45;&gt;crm:E53_Place -->
<g id="edge4" class="edge"><title>(site)&#45;&gt;crm:E53_Place</title>
<path fill="none" stroke="black" d="M317.494,-191.498C285.229,-187.705 229.637,-178.731 185.987,-159 166.823,-150.337 147.719,-136.486 133.215,-124.607"/>
<polygon fill="black" stroke="black" points="135.145,-121.657 125.24,-117.895 130.637,-127.012 135.145,-121.657"/>
<g id="a_edge4&#45;label"><a xlink:href="http://www.w3.org/1999/02/22-rdf-syntax-ns#type" xlink:title="rdf:type">
<text text-anchor="middle" x="202.487" y="-145.5" font-family="Arial" font-size="10.00" fill="maroon">rdf:type</text>
</a>
</g>
</g>
<!-- (site name) -->
<g id="node7" class="node"><title>(site name)</title>
<ellipse fill="ghostwhite" stroke="gray" cx="212.987" cy="-101" rx="38.0276" ry="18"/>
<text text-anchor="middle" x="212.987" y="-98.5" font-family="Arial" font-size="10.00" fill="blue">(site name)</text>
</g>
<!-- (site)&#45;&gt;(site name) -->
<g id="edge5" class="edge"><title>(site)&#45;&gt;(site name)</title>
<path fill="none" stroke="black" d="M317.255,-191.683C293.212,-188.268 258.334,-179.832 235.987,-159 227.469,-151.06 222.034,-139.531 218.601,-128.917"/>
<polygon fill="black" stroke="black" points="221.941,-127.863 215.888,-119.167 215.197,-129.74 221.941,-127.863"/>
<g id="a_edge5&#45;label"><a xlink:href="http://www.cidoc-crm.org/cidoc-crm/P1_is_identified_by" xlink:title="crm:P1_is_identified_by\n(identifies)">
<text text-anchor="middle" x="287.987" y="-151" font-family="Arial" font-size="10.00" fill="maroon">crm:P1_is_identified_by</text>
<text text-anchor="middle" x="287.987" y="-140" font-family="Arial" font-size="10.00" fill="maroon">(identifies)</text>
</a>
</g>
</g>
<!-- oslod:7000000000043542 -->
<g id="node9" class="node"><title>oslod:7000000000043542</title>
<ellipse fill="ghostwhite" stroke="gray" cx="343.987" cy="-101" rx="74.5212" ry="18"/>
<text text-anchor="middle" x="343.987" y="-98.5" font-family="Arial" font-size="10.00" fill="blue">oslod:7000000000043542</text>
</g>
<!-- (site)&#45;&gt;oslod:7000000000043542 -->
<g id="edge11" class="edge"><title>(site)&#45;&gt;oslod:7000000000043542</title>
<path fill="none" stroke="black" d="M343.987,-176.696C343.987,-163.46 343.987,-144.947 343.987,-129.663"/>
<polygon fill="black" stroke="black" points="347.487,-129.227 343.987,-119.227 340.487,-129.227 347.487,-129.227"/>
<g id="a_edge11&#45;label"><a xlink:href="http://www.cidoc-crm.org/cidoc-crm/P89_falls_within" xlink:title="crm:P89_falls_within\n(contains)">
<text text-anchor="middle" x="388.987" y="-151" font-family="Arial" font-size="10.00" fill="maroon">crm:P89_falls_within</text>
<text text-anchor="middle" x="388.987" y="-140" font-family="Arial" font-size="10.00" fill="maroon">(contains)</text>
</a>
</g>
</g>
<!-- oslod:7000000000043674 -->
<g id="node11" class="node"><title>oslod:7000000000043674</title>
<ellipse fill="ghostwhite" stroke="gray" cx="511.987" cy="-101" rx="74.5212" ry="18"/>
<text text-anchor="middle" x="511.987" y="-98.5" font-family="Arial" font-size="10.00" fill="blue">oslod:7000000000043674</text>
</g>
<!-- (site)&#45;&gt;oslod:7000000000043674 -->
<g id="edge12" class="edge"><title>(site)&#45;&gt;oslod:7000000000043674</title>
<path fill="none" stroke="black" d="M368.424,-187.121C387.93,-181.113 415.601,-171.416 437.987,-159 454.898,-149.62 472.111,-136.611 485.676,-125.388"/>
<polygon fill="black" stroke="black" points="488.235,-127.808 493.615,-118.68 483.717,-122.461 488.235,-127.808"/>
<g id="a_edge12&#45;label"><a xlink:href="http://www.cidoc-crm.org/cidoc-crm/P89_falls_within" xlink:title="crm:P89_falls_within\n(contains)">
<text text-anchor="middle" x="514.987" y="-151" font-family="Arial" font-size="10.00" fill="maroon">crm:P89_falls_within</text>
<text text-anchor="middle" x="514.987" y="-140" font-family="Arial" font-size="10.00" fill="maroon">(contains)</text>
</a>
</g>
</g>
<!-- oslod:7000000000041422 -->
<g id="node13" class="node"><title>oslod:7000000000041422</title>
<ellipse fill="ghostwhite" stroke="gray" cx="679.987" cy="-101" rx="74.5212" ry="18"/>
<text text-anchor="middle" x="679.987" y="-98.5" font-family="Arial" font-size="10.00" fill="blue">oslod:7000000000041422</text>
</g>
<!-- (site)&#45;&gt;oslod:7000000000041422 -->
<g id="edge13" class="edge"><title>(site)&#45;&gt;oslod:7000000000041422</title>
<path fill="none" stroke="black" d="M370.995,-192.307C413.093,-189.093 496.527,-180.405 563.987,-159 592.184,-150.053 622.103,-135.204 644.493,-122.905"/>
<polygon fill="black" stroke="black" points="646.271,-125.921 653.294,-117.989 642.857,-119.81 646.271,-125.921"/>
<g id="a_edge13&#45;label"><a xlink:href="http://www.cidoc-crm.org/cidoc-crm/P89_falls_within" xlink:title="crm:P89_falls_within\n(contains)">
<text text-anchor="middle" x="661.987" y="-151" font-family="Arial" font-size="10.00" fill="maroon">crm:P89_falls_within</text>
<text text-anchor="middle" x="661.987" y="-140" font-family="Arial" font-size="10.00" fill="maroon">(contains)</text>
</a>
</g>
</g>
<!-- crm:E41_Appellation -->
<g id="node6" class="node"><title>crm:E41_Appellation</title>
<g id="a_node6"><a xlink:href="http://www.cidoc-crm.org/cidoc-crm/E41_Appellation" xlink:title="crm:E41_Appellation" target="crm">
<ellipse fill="thistle" stroke="gray" cx="62.9869" cy="-18" rx="62.9739" ry="18"/>
<text text-anchor="middle" x="62.9869" y="-15.5" font-family="Arial" font-size="10.00" fill="blue">crm:E41_Appellation</text>
</a>
</g>
</g>
<!-- (site name)&#45;&gt;crm:E41_Appellation -->
<g id="edge6" class="edge"><title>(site name)&#45;&gt;crm:E41_Appellation</title>
<path fill="none" stroke="black" d="M188.887,-86.9859C164.929,-74.0485 127.85,-54.0259 100.126,-39.0552"/>
<polygon fill="black" stroke="black" points="101.578,-35.8613 91.1155,-34.1894 98.2515,-42.0206 101.578,-35.8613"/>
<g id="a_edge6&#45;label"><a xlink:href="http://www.w3.org/1999/02/22-rdf-syntax-ns#type" xlink:title="rdf:type">
<text text-anchor="middle" x="163.487" y="-57" font-family="Arial" font-size="10.00" fill="maroon">rdf:type</text>
</a>
</g>
</g>
<!-- &quot;Boundary Wall of Former\nCinema Site, Sandgate&quot;@en -->
<g id="node8" class="node"><title>&quot;Boundary Wall of Former\nCinema Site, Sandgate&quot;@en</title>
<polygon fill="ghostwhite" stroke="gray" points="284.487,-36 143.487,-36 143.487,-0 284.487,-0 284.487,-36"/>
<text text-anchor="middle" x="213.987" y="-21" font-family="Arial" font-size="10.00">&quot;Boundary Wall of Former</text>
<text text-anchor="middle" x="213.987" y="-10" font-family="Arial" font-size="10.00">Cinema Site, Sandgate&quot;@en</text>
</g>
<!-- (site name)&#45;&gt;&quot;Boundary Wall of Former\nCinema Site, Sandgate&quot;@en -->
<g id="edge7" class="edge"><title>(site name)&#45;&gt;&quot;Boundary Wall of Former\nCinema Site, Sandgate&quot;@en</title>
<path fill="none" stroke="black" d="M213.199,-82.822C213.33,-72.1903 213.502,-58.306 213.651,-46.2035"/>
<polygon fill="black" stroke="black" points="217.151,-46.1957 213.775,-36.1533 210.152,-46.1093 217.151,-46.1957"/>
<g id="a_edge7&#45;label"><a xlink:href="http://www.w3.org/2000/01/rdf-schema#label" xlink:title="rdfs:label">
<text text-anchor="middle" x="233.987" y="-57" font-family="Arial" font-size="10.00" fill="maroon">rdfs:label</text>
</a>
</g>
</g>
<!-- osont:Parish -->
<g id="node10" class="node"><title>osont:Parish</title>
<ellipse fill="ghostwhite" stroke="gray" cx="343.987" cy="-18" rx="41.5911" ry="18"/>
<text text-anchor="middle" x="343.987" y="-15.5" font-family="Arial" font-size="10.00" fill="blue">osont:Parish</text>
</g>
<!-- oslod:7000000000043542&#45;&gt;osont:Parish -->
<g id="edge8" class="edge"><title>oslod:7000000000043542&#45;&gt;osont:Parish</title>
<path fill="none" stroke="black" d="M343.987,-82.822C343.987,-72.1903 343.987,-58.306 343.987,-46.2035"/>
<polygon fill="black" stroke="black" points="347.487,-46.1532 343.987,-36.1533 340.487,-46.1533 347.487,-46.1532"/>
<g id="a_edge8&#45;label"><a xlink:href="http://www.w3.org/1999/02/22-rdf-syntax-ns#type" xlink:title="rdf:type">
<text text-anchor="middle" x="360.487" y="-57" font-family="Arial" font-size="10.00" fill="maroon">rdf:type</text>
</a>
</g>
</g>
<!-- osont:District -->
<g id="node12" class="node"><title>osont:District</title>
<ellipse fill="ghostwhite" stroke="gray" cx="511.987" cy="-18" rx="43.6222" ry="18"/>
<text text-anchor="middle" x="511.987" y="-15.5" font-family="Arial" font-size="10.00" fill="blue">osont:District</text>
</g>
<!-- oslod:7000000000043674&#45;&gt;osont:District -->
<g id="edge9" class="edge"><title>oslod:7000000000043674&#45;&gt;osont:District</title>
<path fill="none" stroke="black" d="M511.987,-82.822C511.987,-72.1903 511.987,-58.306 511.987,-46.2035"/>
<polygon fill="black" stroke="black" points="515.487,-46.1532 511.987,-36.1533 508.487,-46.1533 515.487,-46.1532"/>
<g id="a_edge9&#45;label"><a xlink:href="http://www.w3.org/1999/02/22-rdf-syntax-ns#type" xlink:title="rdf:type">
<text text-anchor="middle" x="528.487" y="-57" font-family="Arial" font-size="10.00" fill="maroon">rdf:type</text>
</a>
</g>
</g>
<!-- osont:EuropeanRegion -->
<g id="node14" class="node"><title>osont:EuropeanRegion</title>
<ellipse fill="ghostwhite" stroke="gray" cx="679.987" cy="-18" rx="67.893" ry="18"/>
<text text-anchor="middle" x="679.987" y="-15.5" font-family="Arial" font-size="10.00" fill="blue">osont:EuropeanRegion</text>
</g>
<!-- oslod:7000000000041422&#45;&gt;osont:EuropeanRegion -->
<g id="edge10" class="edge"><title>oslod:7000000000041422&#45;&gt;osont:EuropeanRegion</title>
<path fill="none" stroke="black" d="M679.987,-82.822C679.987,-72.1903 679.987,-58.306 679.987,-46.2035"/>
<polygon fill="black" stroke="black" points="683.487,-46.1532 679.987,-36.1533 676.487,-46.1533 683.487,-46.1532"/>
<g id="a_edge10&#45;label"><a xlink:href="http://www.w3.org/1999/02/22-rdf-syntax-ns#type" xlink:title="rdf:type">
<text text-anchor="middle" x="696.487" y="-57" font-family="Arial" font-size="10.00" fill="maroon">rdf:type</text>
</a>
</g>
</g>
</g>
</svg>
