<?xml version="1.0" encoding="UTF-8" standalone="no"?>
<!DOCTYPE svg PUBLIC "-//W3C//DTD SVG 1.1//EN"
 "http://www.w3.org/Graphics/SVG/1.1/DTD/svg11.dtd">
<!-- Generated by graphviz version 2.38.0 (20140413.2041)
 -->
<!-- Title: %3 Pages: 1 -->
<svg width="336pt" height="304pt"
 viewBox="0.00 0.00 335.90 304.00" xmlns="http://www.w3.org/2000/svg" xmlns:xlink="http://www.w3.org/1999/xlink">
<g id="graph0" class="graph" transform="scale(1 1) rotate(0) translate(4 300)">
<title>%3</title>
<polygon fill="white" stroke="none" points="-4,4 -4,-300 331.895,-300 331.895,4 -4,4"/>
<!-- crm:E42_Identifier -->
<g id="node1" class="node"><title>crm:E42_Identifier</title>
<g id="a_node1"><a xlink:href="http://www.cidoc-crm.org/cidoc-crm/E42_Identifier" xlink:title="crm:E42_Identifier" target="crm">
<ellipse fill="thistle" stroke="gray" cx="55.923" cy="-101" rx="55.8461" ry="18"/>
<text text-anchor="middle" x="55.923" y="-98.5" font-family="Arial" font-size="10.00" fill="blue">crm:E42_Identifier</text>
</a>
</g>
</g>
<!-- crm:E55_Type -->
<g id="node2" class="node"><title>crm:E55_Type</title>
<g id="a_node2"><a xlink:href="http://www.cidoc-crm.org/cidoc-crm/E55_Type" xlink:title="crm:E55_Type" target="crm">
<ellipse fill="thistle" stroke="gray" cx="106.923" cy="-18" rx="47.1863" ry="18"/>
<text text-anchor="middle" x="106.923" y="-15.5" font-family="Arial" font-size="10.00" fill="blue">crm:E55_Type</text>
</a>
</g>
</g>
<!-- (investigation) -->
<g id="node3" class="node"><title>(investigation)</title>
<ellipse fill="none" stroke="gray" stroke-dasharray="5,2" cx="176.923" cy="-278" rx="44.978" ry="18"/>
<text text-anchor="middle" x="176.923" y="-275.5" font-family="Arial" font-size="10.00" fill="blue">(investigation)</text>
</g>
<!-- (identifier) -->
<g id="node4" class="node"><title>(identifier)</title>
<ellipse fill="lavender" stroke="gray" cx="176.923" cy="-184" rx="34.9638" ry="18"/>
<text text-anchor="middle" x="176.923" y="-181.5" font-family="Arial" font-size="10.00" fill="blue">(identifier)</text>
</g>
<!-- (investigation)&#45;&gt;(identifier) -->
<g id="edge1" class="edge"><title>(investigation)&#45;&gt;(identifier)</title>
<path fill="none" stroke="black" d="M176.923,-259.696C176.923,-246.46 176.923,-227.947 176.923,-212.663"/>
<polygon fill="black" stroke="black" points="180.423,-212.227 176.923,-202.227 173.423,-212.227 180.423,-212.227"/>
<g id="a_edge1&#45;label"><a xlink:href="http://www.cidoc-crm.org/cidoc-crm/P1_is_identified_by" xlink:title="crm:P1_is_identified_by\n(identifies)">
<text text-anchor="middle" x="228.923" y="-234" font-family="Arial" font-size="10.00" fill="maroon">crm:P1_is_identified_by</text>
<text text-anchor="middle" x="228.923" y="-223" font-family="Arial" font-size="10.00" fill="maroon">(identifies)</text>
</a>
</g>
</g>
<!-- (identifier)&#45;&gt;crm:E42_Identifier -->
<g id="edge2" class="edge"><title>(identifier)&#45;&gt;crm:E42_Identifier</title>
<path fill="none" stroke="black" d="M156.397,-169.259C137.552,-156.644 109.341,-137.759 87.6056,-123.209"/>
<polygon fill="black" stroke="black" points="89.2886,-120.124 79.0317,-117.469 85.3946,-125.941 89.2886,-120.124"/>
<g id="a_edge2&#45;label"><a xlink:href="http://www.w3.org/1999/02/22-rdf-syntax-ns#type" xlink:title="rdf:type">
<text text-anchor="middle" x="140.423" y="-140" font-family="Arial" font-size="10.00" fill="maroon">rdf:type</text>
</a>
</g>
</g>
<!-- (identifier type) -->
<g id="node5" class="node"><title>(identifier type)</title>
<g id="a_node5"><a xlink:href="http://purl.org/heritagedata/schemes/2fedf061-855a-482c-9bc9-e7629bfc37ad/concepts/12433c5f-ccce-4610-91b0-2e4a100df7d6" xlink:title="(identifier type)" target="crm">
<ellipse fill="thistle" stroke="gray" cx="176.923" cy="-101" rx="47.1863" ry="18"/>
<text text-anchor="middle" x="176.923" y="-98.5" font-family="Arial" font-size="10.00" fill="blue">(identifier type)</text>
</a>
</g>
</g>
<!-- (identifier)&#45;&gt;(identifier type) -->
<g id="edge4" class="edge"><title>(identifier)&#45;&gt;(identifier type)</title>
<path fill="none" stroke="black" d="M176.923,-165.822C176.923,-155.19 176.923,-141.306 176.923,-129.204"/>
<polygon fill="black" stroke="black" points="180.423,-129.153 176.923,-119.153 173.423,-129.153 180.423,-129.153"/>
<g id="a_edge4&#45;label"><a xlink:href="crm:P2_has_type\n(is type of)" xlink:title="crm:P2_has_type">
<text text-anchor="middle" x="215.423" y="-140" font-family="Arial" font-size="10.00" fill="maroon">crm:P2_has_type</text>
</a>
</g>
</g>
<!-- &quot;TR4584358&quot; -->
<g id="node7" class="node"><title>&quot;TR4584358&quot;</title>
<ellipse fill="ghostwhite" stroke="gray" cx="284.923" cy="-101" rx="42.9448" ry="18"/>
<text text-anchor="middle" x="284.923" y="-98.5" font-family="Arial" font-size="10.00" fill="blue">&quot;TR4584358&quot;</text>
</g>
<!-- (identifier)&#45;&gt;&quot;TR4584358&quot; -->
<g id="edge3" class="edge"><title>(identifier)&#45;&gt;&quot;TR4584358&quot;</title>
<path fill="none" stroke="black" d="M207.185,-174.98C223.614,-169.463 243.462,-160.785 257.923,-148 264.028,-142.603 269.126,-135.48 273.189,-128.457"/>
<polygon fill="black" stroke="black" points="276.544,-129.594 278.083,-119.112 270.343,-126.347 276.544,-129.594"/>
<g id="a_edge3&#45;label"><a xlink:href="http://www.w3.org/2000/01/rdf-schema#label" xlink:title="rdfs:label">
<text text-anchor="middle" x="286.923" y="-140" font-family="Arial" font-size="10.00" fill="maroon">rdfs:label</text>
</a>
</g>
</g>
<!-- (identifier type)&#45;&gt;crm:E55_Type -->
<g id="edge5" class="edge"><title>(identifier type)&#45;&gt;crm:E55_Type</title>
<path fill="none" stroke="black" d="M162.757,-83.6084C152.7,-71.9707 139.034,-56.1572 127.74,-43.0881"/>
<polygon fill="black" stroke="black" points="130.254,-40.6448 121.067,-35.3672 124.958,-45.2219 130.254,-40.6448"/>
<g id="a_edge5&#45;label"><a xlink:href="http://www.w3.org/1999/02/22-rdf-syntax-ns#type" xlink:title="rdf:type">
<text text-anchor="middle" x="163.423" y="-57" font-family="Arial" font-size="10.00" fill="maroon">rdf:type</text>
</a>
</g>
</g>
<!-- &quot;Planning Application No&quot;@en -->
<g id="node6" class="node"><title>&quot;Planning Application No&quot;@en</title>
<polygon fill="ghostwhite" stroke="gray" points="319.923,-36 171.923,-36 171.923,-0 319.923,-0 319.923,-36"/>
<text text-anchor="middle" x="245.923" y="-15.5" font-family="Arial" font-size="10.00">&quot;Planning Application No&quot;@en</text>
</g>
<!-- (identifier type)&#45;&gt;&quot;Planning Application No&quot;@en -->
<g id="edge6" class="edge"><title>(identifier type)&#45;&gt;&quot;Planning Application No&quot;@en</title>
<path fill="none" stroke="black" d="M190.886,-83.6084C200.604,-72.2004 213.74,-56.7798 224.742,-43.8651"/>
<polygon fill="black" stroke="black" points="227.446,-46.088 231.266,-36.2059 222.117,-41.5487 227.446,-46.088"/>
<g id="a_edge6&#45;label"><a xlink:href="http://www.w3.org/2000/01/rdf-schema#label" xlink:title="rdfs:label">
<text text-anchor="middle" x="235.923" y="-57" font-family="Arial" font-size="10.00" fill="maroon">rdfs:label</text>
</a>
</g>
</g>
</g>
</svg>
