<?xml version="1.0" encoding="UTF-8" standalone="no"?>
<!DOCTYPE svg PUBLIC "-//W3C//DTD SVG 1.1//EN"
 "http://www.w3.org/Graphics/SVG/1.1/DTD/svg11.dtd">
<!-- Generated by graphviz version 2.38.0 (20140413.2041)
 -->
<!-- Title: %3 Pages: 1 -->
<svg width="935pt" height="221pt"
 viewBox="0.00 0.00 934.96 221.00" xmlns="http://www.w3.org/2000/svg" xmlns:xlink="http://www.w3.org/1999/xlink">
<g id="graph0" class="graph" transform="scale(1 1) rotate(0) translate(4 217)">
<title>%3</title>
<polygon fill="white" stroke="none" points="-4,4 -4,-217 930.959,-217 930.959,4 -4,4"/>
<!-- crm:E31_Document -->
<g id="node1" class="node"><title>crm:E31_Document</title>
<g id="a_node1"><a xlink:href="http://www.cidoc-crm.org/cidoc-crm/E31_Document" xlink:title="crm:E31_Document" target="crm">
<ellipse fill="thistle" stroke="gray" cx="60.6323" cy="-101" rx="60.7649" ry="18"/>
<text text-anchor="middle" x="60.6323" y="-98.5" font-family="Arial" font-size="10.00" fill="blue">crm:E31_Document</text>
</a>
</g>
</g>
<!-- crm:E35_Title -->
<g id="node2" class="node"><title>crm:E35_Title</title>
<g id="a_node2"><a xlink:href="http://www.cidoc-crm.org/cidoc-crm/E35_Title" xlink:title="crm:E35_Title" target="crm">
<ellipse fill="thistle" stroke="gray" cx="881.632" cy="-18" rx="45.1548" ry="18"/>
<text text-anchor="middle" x="881.632" y="-15.5" font-family="Arial" font-size="10.00" fill="blue">crm:E35_Title</text>
</a>
</g>
</g>
<!-- crm:E55_Type -->
<g id="node3" class="node"><title>crm:E55_Type</title>
<g id="a_node3"><a xlink:href="http://www.cidoc-crm.org/cidoc-crm/E55_Type" xlink:title="crm:E55_Type" target="crm">
<ellipse fill="thistle" stroke="gray" cx="583.632" cy="-18" rx="47.1863" ry="18"/>
<text text-anchor="middle" x="583.632" y="-15.5" font-family="Arial" font-size="10.00" fill="blue">crm:E55_Type</text>
</a>
</g>
</g>
<!-- crm:E12_Production -->
<g id="node4" class="node"><title>crm:E12_Production</title>
<g id="a_node4"><a xlink:href="http://www.cidoc-crm.org/cidoc-crm/E12_Production" xlink:title="crm:E12_Production" target="crm">
<ellipse fill="thistle" stroke="gray" cx="281.632" cy="-18" rx="61.6198" ry="18"/>
<text text-anchor="middle" x="281.632" y="-15.5" font-family="Arial" font-size="10.00" fill="blue">crm:E12_Production</text>
</a>
</g>
</g>
<!-- (report production) -->
<g id="node5" class="node"><title>(report production)</title>
<ellipse fill="ghostwhite" stroke="gray" cx="388.632" cy="-101" rx="55.8461" ry="18"/>
<text text-anchor="middle" x="388.632" y="-98.5" font-family="Arial" font-size="10.00" fill="blue">(report production)</text>
</g>
<!-- (report production)&#45;&gt;crm:E12_Production -->
<g id="edge1" class="edge"><title>(report production)&#45;&gt;crm:E12_Production</title>
<path fill="none" stroke="black" d="M367.748,-84.1901C351.65,-72.0039 329.181,-54.995 311.231,-41.4066"/>
<polygon fill="black" stroke="black" points="312.916,-38.292 302.83,-35.0469 308.691,-43.8732 312.916,-38.292"/>
<g id="a_edge1&#45;label"><a xlink:href="http://www.w3.org/1999/02/22-rdf-syntax-ns#type" xlink:title="rdf:type">
<text text-anchor="middle" x="358.132" y="-57" font-family="Arial" font-size="10.00" fill="maroon">rdf:type</text>
</a>
</g>
</g>
<!-- (OASIS report) -->
<g id="node7" class="node"><title>(OASIS report)</title>
<ellipse fill="lavender" stroke="gray" cx="379.632" cy="-195" rx="47.1863" ry="18"/>
<text text-anchor="middle" x="379.632" y="-192.5" font-family="Arial" font-size="10.00" fill="blue">(OASIS report)</text>
</g>
<!-- (report production)&#45;&gt;(OASIS report) -->
<g id="edge3" class="edge"><title>(report production)&#45;&gt;(OASIS report)</title>
<path fill="none" stroke="black" d="M384.011,-118.965C382.661,-124.653 381.355,-131.06 380.632,-137 379.451,-146.708 379.032,-157.414 378.964,-166.901"/>
<polygon fill="black" stroke="black" points="375.464,-166.994 379.013,-176.976 382.464,-166.959 375.464,-166.994"/>
<g id="a_edge3&#45;label"><a xlink:href="http://www.cidoc-crm.org/cidoc-crm/P108_has_produced" xlink:title="crm:P108_has_produced\n(was produced by)">
<text text-anchor="middle" x="435.132" y="-151" font-family="Arial" font-size="10.00" fill="maroon">crm:P108_has_produced</text>
<text text-anchor="middle" x="435.132" y="-140" font-family="Arial" font-size="10.00" fill="maroon">(was produced by)</text>
</a>
</g>
</g>
<!-- (investigation) -->
<g id="node6" class="node"><title>(investigation)</title>
<ellipse fill="none" stroke="gray" stroke-dasharray="5,2" cx="183.632" cy="-101" rx="44.978" ry="18"/>
<text text-anchor="middle" x="183.632" y="-98.5" font-family="Arial" font-size="10.00" fill="blue">(investigation)</text>
</g>
<!-- (investigation)&#45;&gt;(report production) -->
<g id="edge2" class="edge"><title>(investigation)&#45;&gt;(report production)</title>
<path fill="none" stroke="black" d="M228.62,-101C256.046,-101 291.594,-101 322.216,-101"/>
<polygon fill="black" stroke="black" points="322.394,-104.5 332.394,-101 322.394,-97.5001 322.394,-104.5"/>
<g id="a_edge2&#45;label"><a xlink:href="http://www.cidoc-crm.org/cidoc-crm/P9_consists_of" xlink:title="crm:P9_consists_of\n(forms part of)">
<text text-anchor="middle" x="280.54" y="-118" font-family="Arial" font-size="10.00" fill="maroon">crm:P9_consists_of</text>
<text text-anchor="middle" x="280.54" y="-107" font-family="Arial" font-size="10.00" fill="maroon">(forms part of)</text>
</a>
</g>
</g>
<!-- (OASIS report)&#45;&gt;crm:E31_Document -->
<g id="edge5" class="edge"><title>(OASIS report)&#45;&gt;crm:E31_Document</title>
<path fill="none" stroke="black" d="M337.433,-186.703C304.067,-180.525 256.467,-170.801 215.632,-159 177.232,-147.903 134.688,-131.988 103.902,-119.794"/>
<polygon fill="black" stroke="black" points="104.924,-116.433 94.3393,-115.976 102.329,-122.934 104.924,-116.433"/>
<g id="a_edge5&#45;label"><a xlink:href="http://www.w3.org/1999/02/22-rdf-syntax-ns#type" xlink:title="rdf:type">
<text text-anchor="middle" x="232.132" y="-145.5" font-family="Arial" font-size="10.00" fill="maroon">rdf:type</text>
</a>
</g>
</g>
<!-- (OASIS report)&#45;&gt;(investigation) -->
<g id="edge4" class="edge"><title>(OASIS report)&#45;&gt;(investigation)</title>
<path fill="none" stroke="black" d="M347.873,-181.432C332.05,-175.002 312.699,-166.885 295.632,-159 269.463,-146.91 240.473,-132.117 218.544,-120.63"/>
<polygon fill="black" stroke="black" points="220.087,-117.487 209.607,-115.928 216.827,-123.682 220.087,-117.487"/>
<g id="a_edge4&#45;label"><a xlink:href="http://www.cidoc-crm.org/cidoc-crm/P67_refers_to" xlink:title="crm:P67_refers_to">
<text text-anchor="middle" x="335.632" y="-145.5" font-family="Arial" font-size="10.00" fill="maroon">crm:P67_refers_to</text>
</a>
</g>
</g>
<!-- (report type) -->
<g id="node8" class="node"><title>(report type)</title>
<ellipse fill="ghostwhite" stroke="gray" cx="511.632" cy="-101" rx="40.7358" ry="18"/>
<text text-anchor="middle" x="511.632" y="-98.5" font-family="Arial" font-size="10.00" fill="blue">(report type)</text>
</g>
<!-- (OASIS report)&#45;&gt;(report type) -->
<g id="edge6" class="edge"><title>(OASIS report)&#45;&gt;(report type)</title>
<path fill="none" stroke="black" d="M424.137,-188.99C446.225,-184.422 471.904,-175.691 489.632,-159 498.06,-151.065 503.301,-139.538 506.539,-128.923"/>
<polygon fill="black" stroke="black" points="509.946,-129.73 509.07,-119.172 503.17,-127.972 509.946,-129.73"/>
<g id="a_edge6&#45;label"><a xlink:href="http://www.cidoc-crm.org/cidoc-crm/P2_has_type" xlink:title="crm:P2_has_type\n(is type of)">
<text text-anchor="middle" x="542.132" y="-151" font-family="Arial" font-size="10.00" fill="maroon">crm:P2_has_type</text>
<text text-anchor="middle" x="542.132" y="-140" font-family="Arial" font-size="10.00" fill="maroon">(is type of)</text>
</a>
</g>
</g>
<!-- (report title) -->
<g id="node10" class="node"><title>(report title)</title>
<ellipse fill="ghostwhite" stroke="gray" cx="733.632" cy="-101" rx="38.7041" ry="18"/>
<text text-anchor="middle" x="733.632" y="-98.5" font-family="Arial" font-size="10.00" fill="blue">(report title)</text>
</g>
<!-- (OASIS report)&#45;&gt;(report title) -->
<g id="edge9" class="edge"><title>(OASIS report)&#45;&gt;(report title)</title>
<path fill="none" stroke="black" d="M424.168,-188.959C466.067,-183.617 530.307,-173.873 584.632,-159 623.992,-148.224 667.404,-130.97 697.164,-118.265"/>
<polygon fill="black" stroke="black" points="698.913,-121.322 706.707,-114.146 696.139,-114.895 698.913,-121.322"/>
<g id="a_edge9&#45;label"><a xlink:href="http://www.cidoc-crm.org/cidoc-crm/P102_has_title" xlink:title="crm:P102_has_title\n(is title of)">
<text text-anchor="middle" x="689.132" y="-151" font-family="Arial" font-size="10.00" fill="maroon">crm:P102_has_title</text>
<text text-anchor="middle" x="689.132" y="-140" font-family="Arial" font-size="10.00" fill="maroon">(is title of)</text>
</a>
</g>
</g>
<!-- (report type)&#45;&gt;crm:E55_Type -->
<g id="edge7" class="edge"><title>(report type)&#45;&gt;crm:E55_Type</title>
<path fill="none" stroke="black" d="M525.857,-83.997C536.242,-72.3137 550.5,-56.2736 562.253,-43.0514"/>
<polygon fill="black" stroke="black" points="565.163,-45.0464 569.191,-35.247 559.931,-40.3958 565.163,-45.0464"/>
<g id="a_edge7&#45;label"><a xlink:href="http://www.w3.org/1999/02/22-rdf-syntax-ns#type" xlink:title="rdf:type">
<text text-anchor="middle" x="569.132" y="-57" font-family="Arial" font-size="10.00" fill="maroon">rdf:type</text>
</a>
</g>
</g>
<!-- &quot;Geophysical survey report&quot;@en -->
<g id="node9" class="node"><title>&quot;Geophysical survey report&quot;@en</title>
<polygon fill="ghostwhite" stroke="gray" points="518.132,-36 361.132,-36 361.132,-0 518.132,-0 518.132,-36"/>
<text text-anchor="middle" x="439.632" y="-15.5" font-family="Arial" font-size="10.00">&quot;Geophysical survey report&quot;@en</text>
</g>
<!-- (report type)&#45;&gt;&quot;Geophysical survey report&quot;@en -->
<g id="edge8" class="edge"><title>(report type)&#45;&gt;&quot;Geophysical survey report&quot;@en</title>
<path fill="none" stroke="black" d="M497.407,-83.997C487.226,-72.5427 473.322,-56.901 461.706,-43.8324"/>
<polygon fill="black" stroke="black" points="464.082,-41.2371 454.822,-36.0883 458.85,-45.8877 464.082,-41.2371"/>
<g id="a_edge8&#45;label"><a xlink:href="http://www.w3.org/2000/01/rdf-schema#label" xlink:title="rdfs:label">
<text text-anchor="middle" x="500.632" y="-57" font-family="Arial" font-size="10.00" fill="maroon">rdfs:label</text>
</a>
</g>
</g>
<!-- (report title)&#45;&gt;crm:E35_Title -->
<g id="edge10" class="edge"><title>(report title)&#45;&gt;crm:E35_Title</title>
<path fill="none" stroke="black" d="M757.74,-86.8057C782.025,-73.5147 819.729,-52.8797 847.167,-37.8629"/>
<polygon fill="black" stroke="black" points="848.952,-40.8757 856.044,-33.0044 845.592,-34.7352 848.952,-40.8757"/>
<g id="a_edge10&#45;label"><a xlink:href="http://www.w3.org/1999/02/22-rdf-syntax-ns#type" xlink:title="rdf:type">
<text text-anchor="middle" x="832.132" y="-57" font-family="Arial" font-size="10.00" fill="maroon">rdf:type</text>
</a>
</g>
</g>
<!-- &quot;Investigation of 1 temp street&quot;@en -->
<g id="node11" class="node"><title>&quot;Investigation of 1 temp street&quot;@en</title>
<polygon fill="ghostwhite" stroke="gray" points="818.132,-36 649.132,-36 649.132,-0 818.132,-0 818.132,-36"/>
<text text-anchor="middle" x="733.632" y="-15.5" font-family="Arial" font-size="10.00">&quot;Investigation of 1 temp street&quot;@en</text>
</g>
<!-- (report title)&#45;&gt;&quot;Investigation of 1 temp street&quot;@en -->
<g id="edge11" class="edge"><title>(report title)&#45;&gt;&quot;Investigation of 1 temp street&quot;@en</title>
<path fill="none" stroke="black" d="M733.632,-82.822C733.632,-72.1903 733.632,-58.306 733.632,-46.2035"/>
<polygon fill="black" stroke="black" points="737.132,-46.1532 733.632,-36.1533 730.132,-46.1533 737.132,-46.1532"/>
<g id="a_edge11&#45;label"><a xlink:href="http://www.w3.org/2000/01/rdf-schema#label" xlink:title="rdfs:label">
<text text-anchor="middle" x="753.632" y="-57" font-family="Arial" font-size="10.00" fill="maroon">rdfs:label</text>
</a>
</g>
</g>
</g>
</svg>
