<?xml version="1.0" encoding="UTF-8" standalone="no"?>
<!DOCTYPE svg PUBLIC "-//W3C//DTD SVG 1.1//EN"
 "http://www.w3.org/Graphics/SVG/1.1/DTD/svg11.dtd">
<!-- Generated by graphviz version 2.38.0 (20140413.2041)
 -->
<!-- Title: %3 Pages: 1 -->
<svg width="331pt" height="221pt"
 viewBox="0.00 0.00 331.00 221.00" xmlns="http://www.w3.org/2000/svg" xmlns:xlink="http://www.w3.org/1999/xlink">
<g id="graph0" class="graph" transform="scale(1 1) rotate(0) translate(4 217)">
<title>%3</title>
<polygon fill="white" stroke="none" points="-4,4 -4,-217 327,-217 327,4 -4,4"/>
<!-- (record) -->
<g id="node1" class="node"><title>(record)</title>
<ellipse fill="none" stroke="gray" stroke-dasharray="5,2" cx="156.5" cy="-195" rx="29.3664" ry="18"/>
<text text-anchor="middle" x="156.5" y="-192.5" font-family="Arial" font-size="10.00" fill="blue">(record)</text>
</g>
<!-- (monument type) -->
<g id="node2" class="node"><title>(monument type)</title>
<ellipse fill="lavender" stroke="gray" cx="92.5" cy="-101" rx="52.9593" ry="18"/>
<text text-anchor="middle" x="92.5" y="-98.5" font-family="Arial" font-size="10.00" fill="blue">(monument type)</text>
</g>
<!-- (record)&#45;&gt;(monument type) -->
<g id="edge1" class="edge"><title>(record)&#45;&gt;(monument type)</title>
<path fill="none" stroke="black" d="M136.41,-181.693C128.049,-175.722 118.835,-167.909 112.5,-159 106.185,-150.119 101.701,-139.058 98.603,-129.048"/>
<polygon fill="black" stroke="black" points="101.899,-127.836 95.8568,-119.134 95.1532,-129.705 101.899,-127.836"/>
<g id="a_edge1&#45;label"><a xlink:href="http://www.cidoc-crm.org/cidoc-crm/P67_refers_to" xlink:title="crm:P67_refers_to\n(is referred to by)">
<text text-anchor="middle" x="152.5" y="-151" font-family="Arial" font-size="10.00" fill="maroon">crm:P67_refers_to</text>
<text text-anchor="middle" x="152.5" y="-140" font-family="Arial" font-size="10.00" fill="maroon">(is referred to by)</text>
</a>
</g>
</g>
<!-- (monument period) -->
<g id="node3" class="node"><title>(monument period)</title>
<ellipse fill="lavender" stroke="gray" cx="221.5" cy="-101" rx="57.8786" ry="18"/>
<text text-anchor="middle" x="221.5" y="-98.5" font-family="Arial" font-size="10.00" fill="blue">(monument period)</text>
</g>
<!-- (record)&#45;&gt;(monument period) -->
<g id="edge2" class="edge"><title>(record)&#45;&gt;(monument period)</title>
<path fill="none" stroke="black" d="M173.085,-180.031C179.635,-173.992 186.915,-166.579 192.5,-159 199.438,-149.585 205.576,-138.267 210.398,-128.207"/>
<polygon fill="black" stroke="black" points="213.611,-129.598 214.602,-119.05 207.249,-126.678 213.611,-129.598"/>
<g id="a_edge2&#45;label"><a xlink:href="http://www.cidoc-crm.org/cidoc-crm/P67_refers_to" xlink:title="crm:P67_refers_to\n(is referred to by)">
<text text-anchor="middle" x="245.5" y="-151" font-family="Arial" font-size="10.00" fill="maroon">crm:P67_refers_to</text>
<text text-anchor="middle" x="245.5" y="-140" font-family="Arial" font-size="10.00" fill="maroon">(is referred to by)</text>
</a>
</g>
</g>
<!-- &quot;Lime Kiln&quot;@en -->
<g id="node4" class="node"><title>&quot;Lime Kiln&quot;@en</title>
<polygon fill="ghostwhite" stroke="gray" points="85,-36 0,-36 0,-0 85,-0 85,-36"/>
<text text-anchor="middle" x="42.5" y="-15.5" font-family="Arial" font-size="10.00">&quot;Lime Kiln&quot;@en</text>
</g>
<!-- (monument type)&#45;&gt;&quot;Lime Kiln&quot;@en -->
<g id="edge5" class="edge"><title>(monument type)&#45;&gt;&quot;Lime Kiln&quot;@en</title>
<path fill="none" stroke="black" d="M79.2493,-83.2897C74.9805,-77.6183 70.3594,-71.1572 66.5,-65 62.6429,-58.8464 58.8348,-52.0063 55.4274,-45.5223"/>
<polygon fill="black" stroke="black" points="58.4315,-43.7094 50.7629,-36.3989 52.1988,-46.896 58.4315,-43.7094"/>
<g id="a_edge5&#45;label"><a xlink:href="http://www.w3.org/2000/01/rdf-schema#label" xlink:title="rdfs:label">
<text text-anchor="middle" x="86.5" y="-57" font-family="Arial" font-size="10.00" fill="maroon">rdfs:label</text>
</a>
</g>
</g>
<!-- crm:E55_Type -->
<g id="node6" class="node"><title>crm:E55_Type</title>
<g id="a_node6"><a xlink:href="http://www.cidoc-crm.org/cidoc-crm/E55_Type" xlink:title="crm:E55_Type" target="crm">
<ellipse fill="thistle" stroke="gray" cx="150.5" cy="-18" rx="47.1863" ry="18"/>
<text text-anchor="middle" x="150.5" y="-15.5" font-family="Arial" font-size="10.00" fill="blue">crm:E55_Type</text>
</a>
</g>
</g>
<!-- (monument type)&#45;&gt;crm:E55_Type -->
<g id="edge3" class="edge"><title>(monument type)&#45;&gt;crm:E55_Type</title>
<path fill="none" stroke="black" d="M104.518,-83.2167C112.659,-71.8464 123.558,-56.6253 132.702,-43.8558"/>
<polygon fill="black" stroke="black" points="135.72,-45.6528 138.696,-35.4846 130.029,-41.5775 135.72,-45.6528"/>
<g id="a_edge3&#45;label"><a xlink:href="http://www.w3.org/1999/02/22-rdf-syntax-ns#type" xlink:title="rdf:type">
<text text-anchor="middle" x="142" y="-57" font-family="Arial" font-size="10.00" fill="maroon">rdf:type</text>
</a>
</g>
</g>
<!-- &quot;Early Medieval&quot;@en -->
<g id="node5" class="node"><title>&quot;Early Medieval&quot;@en</title>
<polygon fill="ghostwhite" stroke="gray" points="323,-36 216,-36 216,-0 323,-0 323,-36"/>
<text text-anchor="middle" x="269.5" y="-15.5" font-family="Arial" font-size="10.00">&quot;Early Medieval&quot;@en</text>
</g>
<!-- (monument period)&#45;&gt;&quot;Early Medieval&quot;@en -->
<g id="edge6" class="edge"><title>(monument period)&#45;&gt;&quot;Early Medieval&quot;@en</title>
<path fill="none" stroke="black" d="M231.446,-83.2167C238.03,-72.1049 246.795,-57.3153 254.252,-44.7304"/>
<polygon fill="black" stroke="black" points="257.315,-46.4277 259.402,-36.0404 251.293,-42.859 257.315,-46.4277"/>
<g id="a_edge6&#45;label"><a xlink:href="http://www.w3.org/2000/01/rdf-schema#label" xlink:title="rdfs:label">
<text text-anchor="middle" x="268.5" y="-57" font-family="Arial" font-size="10.00" fill="maroon">rdfs:label</text>
</a>
</g>
</g>
<!-- (monument period)&#45;&gt;crm:E55_Type -->
<g id="edge4" class="edge"><title>(monument period)&#45;&gt;crm:E55_Type</title>
<path fill="none" stroke="black" d="M206.789,-83.2167C196.563,-71.551 182.785,-55.8318 171.419,-42.8656"/>
<polygon fill="black" stroke="black" points="173.932,-40.422 164.708,-35.209 168.668,-45.0361 173.932,-40.422"/>
<g id="a_edge4&#45;label"><a xlink:href="http://www.w3.org/1999/02/22-rdf-syntax-ns#type" xlink:title="rdf:type">
<text text-anchor="middle" x="207" y="-57" font-family="Arial" font-size="10.00" fill="maroon">rdf:type</text>
</a>
</g>
</g>
</g>
</svg>
