<?xml version="1.0" encoding="UTF-8" standalone="no"?>
<!DOCTYPE svg PUBLIC "-//W3C//DTD SVG 1.1//EN"
 "http://www.w3.org/Graphics/SVG/1.1/DTD/svg11.dtd">
<!-- Generated by graphviz version 2.38.0 (20140413.2041)
 -->
<!-- Title: %3 Pages: 1 -->
<svg width="256pt" height="221pt"
 viewBox="0.00 0.00 256.09 221.00" xmlns="http://www.w3.org/2000/svg" xmlns:xlink="http://www.w3.org/1999/xlink">
<g id="graph0" class="graph" transform="scale(1 1) rotate(0) translate(4 217)">
<title>%3</title>
<polygon fill="white" stroke="none" points="-4,4 -4,-217 252.093,-217 252.093,4 -4,4"/>
<!-- crm:E55_Type -->
<g id="node1" class="node"><title>crm:E55_Type</title>
<g id="a_node1"><a xlink:href="http://www.cidoc-crm.org/cidoc-crm/E55_Type" xlink:title="crm:E55_Type" target="crm">
<ellipse fill="thistle" stroke="gray" cx="47.093" cy="-18" rx="47.1863" ry="18"/>
<text text-anchor="middle" x="47.093" y="-15.5" font-family="Arial" font-size="10.00" fill="blue">crm:E55_Type</text>
</a>
</g>
</g>
<!-- (investigation) -->
<g id="node2" class="node"><title>(investigation)</title>
<ellipse fill="none" stroke="gray" stroke-dasharray="5,2" cx="113.093" cy="-195" rx="44.978" ry="18"/>
<text text-anchor="middle" x="113.093" y="-192.5" font-family="Arial" font-size="10.00" fill="blue">(investigation)</text>
</g>
<!-- (investigation reason) -->
<g id="node3" class="node"><title>(investigation reason)</title>
<ellipse fill="lavender" stroke="gray" cx="113.093" cy="-101" rx="63.6513" ry="18"/>
<text text-anchor="middle" x="113.093" y="-98.5" font-family="Arial" font-size="10.00" fill="blue">(investigation reason)</text>
</g>
<!-- (investigation)&#45;&gt;(investigation reason) -->
<g id="edge1" class="edge"><title>(investigation)&#45;&gt;(investigation reason)</title>
<path fill="none" stroke="black" d="M113.093,-176.696C113.093,-163.46 113.093,-144.947 113.093,-129.663"/>
<polygon fill="black" stroke="black" points="116.593,-129.227 113.093,-119.227 109.593,-129.227 116.593,-129.227"/>
<g id="a_edge1&#45;label"><a xlink:href="http://www.cidoc-crm.org/cidoc-crm/P17_was_motivated_by" xlink:title="crm:P17_was_motivated_by\n(motivated)">
<text text-anchor="middle" x="174.093" y="-151" font-family="Arial" font-size="10.00" fill="maroon">crm:P17_was_motivated_by</text>
<text text-anchor="middle" x="174.093" y="-140" font-family="Arial" font-size="10.00" fill="maroon">(motivated)</text>
</a>
</g>
</g>
<!-- (investigation reason)&#45;&gt;crm:E55_Type -->
<g id="edge2" class="edge"><title>(investigation reason)&#45;&gt;crm:E55_Type</title>
<path fill="none" stroke="black" d="M99.4178,-83.2167C90.064,-71.7371 77.5119,-56.3322 67.0464,-43.4882"/>
<polygon fill="black" stroke="black" points="69.555,-41.0261 60.5249,-35.4846 64.1284,-45.4478 69.555,-41.0261"/>
<g id="a_edge2&#45;label"><a xlink:href="http://www.w3.org/1999/02/22-rdf-syntax-ns#type" xlink:title="rdf:type">
<text text-anchor="middle" x="100.593" y="-57" font-family="Arial" font-size="10.00" fill="maroon">rdf:type</text>
</a>
</g>
</g>
<!-- &quot;Planning requirement&quot;@en -->
<g id="node4" class="node"><title>&quot;Planning requirement&quot;@en</title>
<polygon fill="ghostwhite" stroke="gray" points="248.093,-36 112.093,-36 112.093,-0 248.093,-0 248.093,-36"/>
<text text-anchor="middle" x="180.093" y="-15.5" font-family="Arial" font-size="10.00">&quot;Planning requirement&quot;@en</text>
</g>
<!-- (investigation reason)&#45;&gt;&quot;Planning requirement&quot;@en -->
<g id="edge3" class="edge"><title>(investigation reason)&#45;&gt;&quot;Planning requirement&quot;@en</title>
<path fill="none" stroke="black" d="M126.975,-83.2167C136.345,-71.8891 148.876,-56.7396 159.414,-43.9999"/>
<polygon fill="black" stroke="black" points="162.321,-45.9768 165.998,-36.0404 156.927,-41.5152 162.321,-45.9768"/>
<g id="a_edge3&#45;label"><a xlink:href="http://www.w3.org/2000/01/rdf-schema#label" xlink:title="rdfs:label">
<text text-anchor="middle" x="170.093" y="-57" font-family="Arial" font-size="10.00" fill="maroon">rdfs:label</text>
</a>
</g>
</g>
</g>
</svg>
