<?xml version="1.0" encoding="UTF-8" standalone="no"?>
<!DOCTYPE svg PUBLIC "-//W3C//DTD SVG 1.1//EN"
 "http://www.w3.org/Graphics/SVG/1.1/DTD/svg11.dtd">
<!-- Generated by graphviz version 2.38.0 (20140413.2041)
 -->
<!-- Title: %3 Pages: 1 -->
<svg width="501pt" height="221pt"
 viewBox="0.00 0.00 501.09 221.00" xmlns="http://www.w3.org/2000/svg" xmlns:xlink="http://www.w3.org/1999/xlink">
<g id="graph0" class="graph" transform="scale(1 1) rotate(0) translate(4 217)">
<title>%3</title>
<polygon fill="white" stroke="none" points="-4,4 -4,-217 497.093,-217 497.093,4 -4,4"/>
<!-- obj:100153 -->
<g id="node1" class="node"><title>obj:100153</title>
<g id="a_node1"><a xlink:href="http://purl.org/heritagedata/schemes/mda_obj/concepts/100153" xlink:title="obj:100153">
<ellipse fill="ghostwhite" stroke="gray" cx="100.093" cy="-101" rx="37.8497" ry="18"/>
<text text-anchor="middle" x="100.093" y="-98.5" font-family="Arial" font-size="10.00" fill="blue">obj:100153</text>
</a>
</g>
</g>
<!-- crm:E55_Type -->
<g id="node3" class="node"><title>crm:E55_Type</title>
<g id="a_node3"><a xlink:href="http://www.cidoc-crm.org/cidoc-crm/E55_Type" xlink:title="crm:E55_Type" target="crm">
<ellipse fill="thistle" stroke="gray" cx="47.093" cy="-18" rx="47.1863" ry="18"/>
<text text-anchor="middle" x="47.093" y="-15.5" font-family="Arial" font-size="10.00" fill="blue">crm:E55_Type</text>
</a>
</g>
</g>
<!-- obj:100153&#45;&gt;crm:E55_Type -->
<g id="edge4" class="edge"><title>obj:100153&#45;&gt;crm:E55_Type</title>
<path fill="none" stroke="black" d="M89.3677,-83.6084C81.9457,-72.2654 71.9281,-56.9554 63.5074,-44.0861"/>
<polygon fill="black" stroke="black" points="66.3884,-42.0967 57.9843,-35.6452 60.5309,-45.9294 66.3884,-42.0967"/>
<g id="a_edge4&#45;label"><a xlink:href="http://www.w3.org/1999/02/22-rdf-syntax-ns#type" xlink:title="rdf:type">
<text text-anchor="middle" x="93.593" y="-57" font-family="Arial" font-size="10.00" fill="maroon">rdf:type</text>
</a>
</g>
</g>
<!-- &quot;Axehead&quot;@en -->
<g id="node6" class="node"><title>&quot;Axehead&quot;@en</title>
<polygon fill="ghostwhite" stroke="gray" points="195.593,-36 112.593,-36 112.593,-0 195.593,-0 195.593,-36"/>
<text text-anchor="middle" x="154.093" y="-15.5" font-family="Arial" font-size="10.00">&quot;Axehead&quot;@en</text>
</g>
<!-- obj:100153&#45;&gt;&quot;Axehead&quot;@en -->
<g id="edge5" class="edge"><title>obj:100153&#45;&gt;&quot;Axehead&quot;@en</title>
<path fill="none" stroke="black" d="M111.021,-83.6084C118.483,-72.4156 128.52,-57.3603 137.027,-44.5987"/>
<polygon fill="black" stroke="black" points="139.988,-46.4679 142.622,-36.2059 134.163,-42.5849 139.988,-46.4679"/>
<g id="a_edge5&#45;label"><a xlink:href="http://www.w3.org/2000/01/rdf-schema#label" xlink:title="rdfs:label">
<text text-anchor="middle" x="151.093" y="-57" font-family="Arial" font-size="10.00" fill="maroon">rdfs:label</text>
</a>
</g>
</g>
<!-- crm:E22_Man&#45;Made_Object -->
<g id="node2" class="node"><title>crm:E22_Man&#45;Made_Object</title>
<g id="a_node2"><a xlink:href="http://www.cidoc-crm.org/cidoc-crm/E22_Man-Made_Object" xlink:title="crm:E22_Man&#45;Made_Object" target="crm">
<ellipse fill="thistle" stroke="gray" cx="237.093" cy="-101" rx="81.4717" ry="18"/>
<text text-anchor="middle" x="237.093" y="-98.5" font-family="Arial" font-size="10.00" fill="blue">crm:E22_Man&#45;Made_Object</text>
</a>
</g>
</g>
<!-- (artefact) -->
<g id="node4" class="node"><title>(artefact)</title>
<ellipse fill="lavender" stroke="gray" cx="237.093" cy="-195" rx="32.2534" ry="18"/>
<text text-anchor="middle" x="237.093" y="-192.5" font-family="Arial" font-size="10.00" fill="blue">(artefact)</text>
</g>
<!-- (artefact)&#45;&gt;obj:100153 -->
<g id="edge3" class="edge"><title>(artefact)&#45;&gt;obj:100153</title>
<path fill="none" stroke="black" d="M209.855,-185.232C193.466,-179.248 172.644,-170.349 156.093,-159 142.651,-149.783 129.753,-137.021 119.73,-125.909"/>
<polygon fill="black" stroke="black" points="122.191,-123.407 112.973,-118.184 116.922,-128.015 122.191,-123.407"/>
<g id="a_edge3&#45;label"><a xlink:href="http://www.cidoc-crm.org/cidoc-crm/P2_has_type" xlink:title="crm:P2_has_type\n(is type of)">
<text text-anchor="middle" x="194.593" y="-151" font-family="Arial" font-size="10.00" fill="maroon">crm:P2_has_type</text>
<text text-anchor="middle" x="194.593" y="-140" font-family="Arial" font-size="10.00" fill="maroon">(is type of)</text>
</a>
</g>
</g>
<!-- (artefact)&#45;&gt;crm:E22_Man&#45;Made_Object -->
<g id="edge2" class="edge"><title>(artefact)&#45;&gt;crm:E22_Man&#45;Made_Object</title>
<path fill="none" stroke="black" d="M237.093,-176.696C237.093,-163.46 237.093,-144.947 237.093,-129.663"/>
<polygon fill="black" stroke="black" points="240.593,-129.227 237.093,-119.227 233.593,-129.227 240.593,-129.227"/>
<g id="a_edge2&#45;label"><a xlink:href="http://www.w3.org/1999/02/22-rdf-syntax-ns#type" xlink:title="rdf:type">
<text text-anchor="middle" x="253.593" y="-145.5" font-family="Arial" font-size="10.00" fill="maroon">rdf:type</text>
</a>
</g>
</g>
<!-- (site) -->
<g id="node5" class="node"><title>(site)</title>
<ellipse fill="none" stroke="gray" stroke-dasharray="5,2" cx="363.093" cy="-101" rx="27" ry="18"/>
<text text-anchor="middle" x="363.093" y="-98.5" font-family="Arial" font-size="10.00" fill="blue">(site)</text>
</g>
<!-- (artefact)&#45;&gt;(site) -->
<g id="edge1" class="edge"><title>(artefact)&#45;&gt;(site)</title>
<path fill="none" stroke="black" d="M255.957,-180.227C277.479,-164.512 312.812,-138.713 336.974,-121.071"/>
<polygon fill="black" stroke="black" points="339.312,-123.698 345.324,-114.974 335.184,-118.044 339.312,-123.698"/>
<g id="a_edge1&#45;label"><a xlink:href="http://www.cidoc-crm.org/cidoc-crm/P53_has_former_or_current_location" xlink:title="crm:P53_has_former_or_current_location\n(is former or current location of)">
<text text-anchor="middle" x="404.093" y="-151" font-family="Arial" font-size="10.00" fill="maroon">crm:P53_has_former_or_current_location</text>
<text text-anchor="middle" x="404.093" y="-140" font-family="Arial" font-size="10.00" fill="maroon">(is former or current location of)</text>
</a>
</g>
</g>
</g>
</svg>
