<?xml version="1.0" encoding="UTF-8" standalone="no"?>
<!DOCTYPE svg PUBLIC "-//W3C//DTD SVG 1.1//EN"
 "http://www.w3.org/Graphics/SVG/1.1/DTD/svg11.dtd">
<!-- Generated by graphviz version 2.38.0 (20140413.2041)
 -->
<!-- Title: %3 Pages: 1 -->
<svg width="1152pt" height="221pt"
 viewBox="0.00 0.00 1151.96 221.00" xmlns="http://www.w3.org/2000/svg" xmlns:xlink="http://www.w3.org/1999/xlink">
<g id="graph0" class="graph" transform="scale(1 1) rotate(0) translate(4 217)">
<title>%3</title>
<polygon fill="white" stroke="none" points="-4,4 -4,-217 1147.96,-217 1147.96,4 -4,4"/>
<!-- crm:E31_Document -->
<g id="node1" class="node"><title>crm:E31_Document</title>
<g id="a_node1"><a xlink:href="http://www.cidoc-crm.org/cidoc-crm/E31_Document" xlink:title="crm:E31_Document" target="crm">
<ellipse fill="thistle" stroke="gray" cx="60.6323" cy="-101" rx="60.7649" ry="18"/>
<text text-anchor="middle" x="60.6323" y="-98.5" font-family="Arial" font-size="10.00" fill="blue">crm:E31_Document</text>
</a>
</g>
</g>
<!-- crm:E35_Title -->
<g id="node2" class="node"><title>crm:E35_Title</title>
<g id="a_node2"><a xlink:href="http://www.cidoc-crm.org/cidoc-crm/E35_Title" xlink:title="crm:E35_Title" target="crm">
<ellipse fill="thistle" stroke="gray" cx="1098.63" cy="-18" rx="45.1548" ry="18"/>
<text text-anchor="middle" x="1098.63" y="-15.5" font-family="Arial" font-size="10.00" fill="blue">crm:E35_Title</text>
</a>
</g>
</g>
<!-- crm:E42_Identifier -->
<g id="node3" class="node"><title>crm:E42_Identifier</title>
<g id="a_node3"><a xlink:href="http://www.cidoc-crm.org/cidoc-crm/E42_Identifier" xlink:title="crm:E42_Identifier" target="crm">
<ellipse fill="thistle" stroke="gray" cx="504.632" cy="-18" rx="55.8461" ry="18"/>
<text text-anchor="middle" x="504.632" y="-15.5" font-family="Arial" font-size="10.00" fill="blue">crm:E42_Identifier</text>
</a>
</g>
</g>
<!-- crm:E55_Type -->
<g id="node4" class="node"><title>crm:E55_Type</title>
<g id="a_node4"><a xlink:href="http://www.cidoc-crm.org/cidoc-crm/E55_Type" xlink:title="crm:E55_Type" target="crm">
<ellipse fill="thistle" stroke="gray" cx="800.632" cy="-18" rx="47.1863" ry="18"/>
<text text-anchor="middle" x="800.632" y="-15.5" font-family="Arial" font-size="10.00" fill="blue">crm:E55_Type</text>
</a>
</g>
</g>
<!-- crm:E12_Production -->
<g id="node5" class="node"><title>crm:E12_Production</title>
<g id="a_node5"><a xlink:href="http://www.cidoc-crm.org/cidoc-crm/E12_Production" xlink:title="crm:E12_Production" target="crm">
<ellipse fill="thistle" stroke="gray" cx="292.632" cy="-18" rx="61.6198" ry="18"/>
<text text-anchor="middle" x="292.632" y="-15.5" font-family="Arial" font-size="10.00" fill="blue">crm:E12_Production</text>
</a>
</g>
</g>
<!-- (report production) -->
<g id="node6" class="node"><title>(report production)</title>
<ellipse fill="ghostwhite" stroke="gray" cx="388.632" cy="-101" rx="55.8461" ry="18"/>
<text text-anchor="middle" x="388.632" y="-98.5" font-family="Arial" font-size="10.00" fill="blue">(report production)</text>
</g>
<!-- (report production)&#45;&gt;crm:E12_Production -->
<g id="edge1" class="edge"><title>(report production)&#45;&gt;crm:E12_Production</title>
<path fill="none" stroke="black" d="M369.36,-84.0136C362.208,-78.0615 354.036,-71.2381 346.632,-65 337.691,-57.4665 327.955,-49.1942 319.243,-41.7672"/>
<polygon fill="black" stroke="black" points="321.461,-39.059 311.583,-35.2296 316.917,-44.3835 321.461,-39.059"/>
<g id="a_edge1&#45;label"><a xlink:href="http://www.w3.org/1999/02/22-rdf-syntax-ns#type" xlink:title="rdf:type">
<text text-anchor="middle" x="363.132" y="-57" font-family="Arial" font-size="10.00" fill="maroon">rdf:type</text>
</a>
</g>
</g>
<!-- (OASIS report) -->
<g id="node8" class="node"><title>(OASIS report)</title>
<ellipse fill="lavender" stroke="gray" cx="446.632" cy="-195" rx="47.1863" ry="18"/>
<text text-anchor="middle" x="446.632" y="-192.5" font-family="Arial" font-size="10.00" fill="blue">(OASIS report)</text>
</g>
<!-- (report production)&#45;&gt;(OASIS report) -->
<g id="edge3" class="edge"><title>(report production)&#45;&gt;(OASIS report)</title>
<path fill="none" stroke="black" d="M381.3,-118.867C377.279,-130.865 374.424,-146.931 381.632,-159 386.459,-167.081 393.865,-173.405 401.974,-178.317"/>
<polygon fill="black" stroke="black" points="400.489,-181.491 410.96,-183.107 403.782,-175.314 400.489,-181.491"/>
<g id="a_edge3&#45;label"><a xlink:href="http://www.cidoc-crm.org/cidoc-crm/P108_has_produced" xlink:title="crm:P108_has_produced\n(was produced by)">
<text text-anchor="middle" x="436.132" y="-151" font-family="Arial" font-size="10.00" fill="maroon">crm:P108_has_produced</text>
<text text-anchor="middle" x="436.132" y="-140" font-family="Arial" font-size="10.00" fill="maroon">(was produced by)</text>
</a>
</g>
</g>
<!-- (investigation) -->
<g id="node7" class="node"><title>(investigation)</title>
<ellipse fill="none" stroke="gray" stroke-dasharray="5,2" cx="183.632" cy="-101" rx="44.978" ry="18"/>
<text text-anchor="middle" x="183.632" y="-98.5" font-family="Arial" font-size="10.00" fill="blue">(investigation)</text>
</g>
<!-- (investigation)&#45;&gt;(report production) -->
<g id="edge2" class="edge"><title>(investigation)&#45;&gt;(report production)</title>
<path fill="none" stroke="black" d="M228.62,-101C256.046,-101 291.594,-101 322.216,-101"/>
<polygon fill="black" stroke="black" points="322.394,-104.5 332.394,-101 322.394,-97.5001 322.394,-104.5"/>
<g id="a_edge2&#45;label"><a xlink:href="http://www.cidoc-crm.org/cidoc-crm/P9_consists_of" xlink:title="crm:P9_consists_of\n(forms part of)">
<text text-anchor="middle" x="280.54" y="-118" font-family="Arial" font-size="10.00" fill="maroon">crm:P9_consists_of</text>
<text text-anchor="middle" x="280.54" y="-107" font-family="Arial" font-size="10.00" fill="maroon">(forms part of)</text>
</a>
</g>
</g>
<!-- (OASIS report)&#45;&gt;crm:E31_Document -->
<g id="edge5" class="edge"><title>(OASIS report)&#45;&gt;crm:E31_Document</title>
<path fill="none" stroke="black" d="M400.804,-190.16C352.82,-185.455 275.56,-175.938 210.632,-159 172.809,-149.133 131.385,-132.958 101.67,-120.355"/>
<polygon fill="black" stroke="black" points="103.024,-117.127 92.4538,-116.401 100.264,-123.56 103.024,-117.127"/>
<g id="a_edge5&#45;label"><a xlink:href="http://www.w3.org/1999/02/22-rdf-syntax-ns#type" xlink:title="rdf:type">
<text text-anchor="middle" x="227.132" y="-145.5" font-family="Arial" font-size="10.00" fill="maroon">rdf:type</text>
</a>
</g>
</g>
<!-- (OASIS report)&#45;&gt;(investigation) -->
<g id="edge4" class="edge"><title>(OASIS report)&#45;&gt;(investigation)</title>
<path fill="none" stroke="black" d="M403.915,-187.225C372.758,-181.568 329.832,-172.275 293.632,-159 266.421,-149.021 237.379,-133.755 215.973,-121.532"/>
<polygon fill="black" stroke="black" points="217.701,-118.489 207.294,-116.504 214.193,-124.546 217.701,-118.489"/>
<g id="a_edge4&#45;label"><a xlink:href="http://www.cidoc-crm.org/cidoc-crm/P67_refers_to" xlink:title="crm:P67_refers_to">
<text text-anchor="middle" x="333.632" y="-145.5" font-family="Arial" font-size="10.00" fill="maroon">crm:P67_refers_to</text>
</a>
</g>
</g>
<!-- (DOI) -->
<g id="node9" class="node"><title>(DOI)</title>
<ellipse fill="ghostwhite" stroke="gray" cx="504.632" cy="-101" rx="27" ry="18"/>
<text text-anchor="middle" x="504.632" y="-98.5" font-family="Arial" font-size="10.00" fill="blue">(DOI)</text>
</g>
<!-- (OASIS report)&#45;&gt;(DOI) -->
<g id="edge6" class="edge"><title>(OASIS report)&#45;&gt;(DOI)</title>
<path fill="none" stroke="black" d="M470.786,-179.32C478.126,-173.784 485.577,-166.89 490.632,-159 496.344,-150.085 499.726,-139.017 501.728,-129.012"/>
<polygon fill="black" stroke="black" points="505.188,-129.54 503.355,-119.105 498.28,-128.406 505.188,-129.54"/>
<g id="a_edge6&#45;label"><a xlink:href="http://www.cidoc-crm.org/cidoc-crm/P1_is_identified_by" xlink:title="crm:P1_is_identified_by\n(identifies)">
<text text-anchor="middle" x="552.632" y="-151" font-family="Arial" font-size="10.00" fill="maroon">crm:P1_is_identified_by</text>
<text text-anchor="middle" x="552.632" y="-140" font-family="Arial" font-size="10.00" fill="maroon">(identifies)</text>
</a>
</g>
</g>
<!-- (report type) -->
<g id="node11" class="node"><title>(report type)</title>
<ellipse fill="ghostwhite" stroke="gray" cx="656.632" cy="-101" rx="40.7358" ry="18"/>
<text text-anchor="middle" x="656.632" y="-98.5" font-family="Arial" font-size="10.00" fill="blue">(report type)</text>
</g>
<!-- (OASIS report)&#45;&gt;(report type) -->
<g id="edge9" class="edge"><title>(OASIS report)&#45;&gt;(report type)</title>
<path fill="none" stroke="black" d="M493.211,-191.931C527.287,-188.595 573.503,-180.146 608.632,-159 621.705,-151.131 632.92,-138.415 641.214,-126.988"/>
<polygon fill="black" stroke="black" points="644.197,-128.828 646.97,-118.602 638.426,-124.866 644.197,-128.828"/>
<g id="a_edge9&#45;label"><a xlink:href="http://www.cidoc-crm.org/cidoc-crm/P2_has_type" xlink:title="crm:P2_has_type\n(is type of)">
<text text-anchor="middle" x="672.132" y="-151" font-family="Arial" font-size="10.00" fill="maroon">crm:P2_has_type</text>
<text text-anchor="middle" x="672.132" y="-140" font-family="Arial" font-size="10.00" fill="maroon">(is type of)</text>
</a>
</g>
</g>
<!-- (report title) -->
<g id="node13" class="node"><title>(report title)</title>
<ellipse fill="ghostwhite" stroke="gray" cx="950.632" cy="-101" rx="38.7041" ry="18"/>
<text text-anchor="middle" x="950.632" y="-98.5" font-family="Arial" font-size="10.00" fill="blue">(report title)</text>
</g>
<!-- (OASIS report)&#45;&gt;(report title) -->
<g id="edge12" class="edge"><title>(OASIS report)&#45;&gt;(report title)</title>
<path fill="none" stroke="black" d="M491.911,-189.583C545.385,-184.021 636.894,-173.421 714.632,-159 782.972,-146.322 861.192,-126.327 908.208,-113.701"/>
<polygon fill="black" stroke="black" points="909.295,-117.033 918.037,-111.047 907.47,-110.275 909.295,-117.033"/>
<g id="a_edge12&#45;label"><a xlink:href="http://www.cidoc-crm.org/cidoc-crm/P102_has_title" xlink:title="crm:P102_has_title\n(is title of)">
<text text-anchor="middle" x="855.132" y="-151" font-family="Arial" font-size="10.00" fill="maroon">crm:P102_has_title</text>
<text text-anchor="middle" x="855.132" y="-140" font-family="Arial" font-size="10.00" fill="maroon">(is title of)</text>
</a>
</g>
</g>
<!-- (DOI)&#45;&gt;crm:E42_Identifier -->
<g id="edge7" class="edge"><title>(DOI)&#45;&gt;crm:E42_Identifier</title>
<path fill="none" stroke="black" d="M504.632,-82.822C504.632,-72.1903 504.632,-58.306 504.632,-46.2035"/>
<polygon fill="black" stroke="black" points="508.132,-46.1532 504.632,-36.1533 501.132,-46.1533 508.132,-46.1532"/>
<g id="a_edge7&#45;label"><a xlink:href="http://www.w3.org/1999/02/22-rdf-syntax-ns#type" xlink:title="rdf:type">
<text text-anchor="middle" x="521.132" y="-57" font-family="Arial" font-size="10.00" fill="maroon">rdf:type</text>
</a>
</g>
</g>
<!-- &quot;10/1004&quot; -->
<g id="node10" class="node"><title>&quot;10/1004&quot;</title>
<polygon fill="ghostwhite" stroke="gray" points="431.132,-36 372.132,-36 372.132,-0 431.132,-0 431.132,-36"/>
<text text-anchor="middle" x="401.632" y="-15.5" font-family="Arial" font-size="10.00">&quot;10/1004&quot;</text>
</g>
<!-- (DOI)&#45;&gt;&quot;10/1004&quot; -->
<g id="edge8" class="edge"><title>(DOI)&#45;&gt;&quot;10/1004&quot;</title>
<path fill="none" stroke="black" d="M487.624,-86.6245C472.363,-74.6229 449.622,-56.7398 431.36,-42.3778"/>
<polygon fill="black" stroke="black" points="433.351,-39.4909 423.327,-36.0605 429.023,-44.9933 433.351,-39.4909"/>
<g id="a_edge8&#45;label"><a xlink:href="http://www.w3.org/2000/01/rdf-schema#label" xlink:title="rdfs:label">
<text text-anchor="middle" x="479.632" y="-57" font-family="Arial" font-size="10.00" fill="maroon">rdfs:label</text>
</a>
</g>
</g>
<!-- (report type)&#45;&gt;crm:E55_Type -->
<g id="edge10" class="edge"><title>(report type)&#45;&gt;crm:E55_Type</title>
<path fill="none" stroke="black" d="M680.735,-86.4424C704.083,-73.309 739.73,-53.2576 766.091,-38.4293"/>
<polygon fill="black" stroke="black" points="767.993,-41.3753 774.993,-33.4221 764.561,-35.2742 767.993,-41.3753"/>
<g id="a_edge10&#45;label"><a xlink:href="http://www.w3.org/1999/02/22-rdf-syntax-ns#type" xlink:title="rdf:type">
<text text-anchor="middle" x="754.132" y="-57" font-family="Arial" font-size="10.00" fill="maroon">rdf:type</text>
</a>
</g>
</g>
<!-- &quot;Geophysical survey report&quot;@en -->
<g id="node12" class="node"><title>&quot;Geophysical survey report&quot;@en</title>
<polygon fill="ghostwhite" stroke="gray" points="735.132,-36 578.132,-36 578.132,-0 735.132,-0 735.132,-36"/>
<text text-anchor="middle" x="656.632" y="-15.5" font-family="Arial" font-size="10.00">&quot;Geophysical survey report&quot;@en</text>
</g>
<!-- (report type)&#45;&gt;&quot;Geophysical survey report&quot;@en -->
<g id="edge11" class="edge"><title>(report type)&#45;&gt;&quot;Geophysical survey report&quot;@en</title>
<path fill="none" stroke="black" d="M656.632,-82.822C656.632,-72.1903 656.632,-58.306 656.632,-46.2035"/>
<polygon fill="black" stroke="black" points="660.132,-46.1532 656.632,-36.1533 653.132,-46.1533 660.132,-46.1532"/>
<g id="a_edge11&#45;label"><a xlink:href="http://www.w3.org/2000/01/rdf-schema#label" xlink:title="rdfs:label">
<text text-anchor="middle" x="676.632" y="-57" font-family="Arial" font-size="10.00" fill="maroon">rdfs:label</text>
</a>
</g>
</g>
<!-- (report title)&#45;&gt;crm:E35_Title -->
<g id="edge13" class="edge"><title>(report title)&#45;&gt;crm:E35_Title</title>
<path fill="none" stroke="black" d="M974.74,-86.8057C999.025,-73.5147 1036.73,-52.8797 1064.17,-37.8629"/>
<polygon fill="black" stroke="black" points="1065.95,-40.8757 1073.04,-33.0044 1062.59,-34.7352 1065.95,-40.8757"/>
<g id="a_edge13&#45;label"><a xlink:href="http://www.w3.org/1999/02/22-rdf-syntax-ns#type" xlink:title="rdf:type">
<text text-anchor="middle" x="1049.13" y="-57" font-family="Arial" font-size="10.00" fill="maroon">rdf:type</text>
</a>
</g>
</g>
<!-- &quot;Investigation of 1 temp street&quot;@en -->
<g id="node14" class="node"><title>&quot;Investigation of 1 temp street&quot;@en</title>
<polygon fill="ghostwhite" stroke="gray" points="1035.13,-36 866.132,-36 866.132,-0 1035.13,-0 1035.13,-36"/>
<text text-anchor="middle" x="950.632" y="-15.5" font-family="Arial" font-size="10.00">&quot;Investigation of 1 temp street&quot;@en</text>
</g>
<!-- (report title)&#45;&gt;&quot;Investigation of 1 temp street&quot;@en -->
<g id="edge14" class="edge"><title>(report title)&#45;&gt;&quot;Investigation of 1 temp street&quot;@en</title>
<path fill="none" stroke="black" d="M950.632,-82.822C950.632,-72.1903 950.632,-58.306 950.632,-46.2035"/>
<polygon fill="black" stroke="black" points="954.132,-46.1532 950.632,-36.1533 947.132,-46.1533 954.132,-46.1532"/>
<g id="a_edge14&#45;label"><a xlink:href="http://www.w3.org/2000/01/rdf-schema#label" xlink:title="rdfs:label">
<text text-anchor="middle" x="970.632" y="-57" font-family="Arial" font-size="10.00" fill="maroon">rdfs:label</text>
</a>
</g>
</g>
</g>
</svg>
