<?xml version="1.0" encoding="UTF-8" standalone="no"?>
<!DOCTYPE svg PUBLIC "-//W3C//DTD SVG 1.1//EN"
 "http://www.w3.org/Graphics/SVG/1.1/DTD/svg11.dtd">
<!-- Generated by graphviz version 2.38.0 (20140413.2041)
 -->
<!-- Title: %3 Pages: 1 -->
<svg width="295pt" height="304pt"
 viewBox="0.00 0.00 294.92 304.00" xmlns="http://www.w3.org/2000/svg" xmlns:xlink="http://www.w3.org/1999/xlink">
<g id="graph0" class="graph" transform="scale(1 1) rotate(0) translate(4 300)">
<title>%3</title>
<polygon fill="white" stroke="none" points="-4,4 -4,-300 290.923,-300 290.923,4 -4,4"/>
<!-- crm:E42_Identifier -->
<g id="node1" class="node"><title>crm:E42_Identifier</title>
<g id="a_node1"><a xlink:href="http://www.cidoc-crm.org/cidoc-crm/E42_Identifier" xlink:title="crm:E42_Identifier" target="crm">
<ellipse fill="thistle" stroke="gray" cx="55.923" cy="-101" rx="55.8461" ry="18"/>
<text text-anchor="middle" x="55.923" y="-98.5" font-family="Arial" font-size="10.00" fill="blue">crm:E42_Identifier</text>
</a>
</g>
</g>
<!-- crm:E55_Type -->
<g id="node2" class="node"><title>crm:E55_Type</title>
<g id="a_node2"><a xlink:href="http://www.cidoc-crm.org/cidoc-crm/E55_Type" xlink:title="crm:E55_Type" target="crm">
<ellipse fill="thistle" stroke="gray" cx="93.923" cy="-18" rx="47.1863" ry="18"/>
<text text-anchor="middle" x="93.923" y="-15.5" font-family="Arial" font-size="10.00" fill="blue">crm:E55_Type</text>
</a>
</g>
</g>
<!-- ids:XXX -->
<g id="node3" class="node"><title>ids:XXX</title>
<g id="a_node3"><a xlink:href="http://purl.org/heritagedata/schemes/2fedf061-855a-482c-9bc9-e7629bfc37ad/concepts/12433c5f-ccce-4610-91b0-2e4a100df7d6" xlink:title="ids:XXX" target="crm">
<ellipse fill="thistle" stroke="gray" cx="157.923" cy="-101" rx="28.0137" ry="18"/>
<text text-anchor="middle" x="157.923" y="-98.5" font-family="Arial" font-size="10.00" fill="blue">ids:XXX</text>
</a>
</g>
</g>
<!-- ids:XXX&#45;&gt;crm:E55_Type -->
<g id="edge1" class="edge"><title>ids:XXX&#45;&gt;crm:E55_Type</title>
<path fill="none" stroke="black" d="M145.583,-84.3824C136.379,-72.7328 123.631,-56.5987 113.102,-43.2729"/>
<polygon fill="black" stroke="black" points="115.83,-41.0803 106.884,-35.4038 110.337,-45.42 115.83,-41.0803"/>
<g id="a_edge1&#45;label"><a xlink:href="http://www.w3.org/1999/02/22-rdf-syntax-ns#type" xlink:title="rdf:type">
<text text-anchor="middle" x="146.423" y="-57" font-family="Arial" font-size="10.00" fill="maroon">rdf:type</text>
</a>
</g>
</g>
<!-- &quot;Planning Application No&quot; -->
<g id="node4" class="node"><title>&quot;Planning Application No&quot;</title>
<polygon fill="ghostwhite" stroke="gray" points="286.923,-36 158.923,-36 158.923,-0 286.923,-0 286.923,-36"/>
<text text-anchor="middle" x="222.923" y="-15.5" font-family="Arial" font-size="10.00">&quot;Planning Application No&quot;</text>
</g>
<!-- ids:XXX&#45;&gt;&quot;Planning Application No&quot; -->
<g id="edge2" class="edge"><title>ids:XXX&#45;&gt;&quot;Planning Application No&quot;</title>
<path fill="none" stroke="black" d="M170.149,-84.7645C179.346,-73.3033 192.15,-57.3477 202.843,-44.0229"/>
<polygon fill="black" stroke="black" points="205.648,-46.1199 209.177,-36.1301 200.188,-41.7388 205.648,-46.1199"/>
<g id="a_edge2&#45;label"><a xlink:href="http://www.w3.org/2000/01/rdf-schema#label" xlink:title="rdfs:label">
<text text-anchor="middle" x="214.923" y="-57" font-family="Arial" font-size="10.00" fill="maroon">rdfs:label</text>
</a>
</g>
</g>
<!-- (identifier) -->
<g id="node5" class="node"><title>(identifier)</title>
<ellipse fill="lavender" stroke="gray" cx="148.923" cy="-184" rx="34.9638" ry="18"/>
<text text-anchor="middle" x="148.923" y="-181.5" font-family="Arial" font-size="10.00" fill="blue">(identifier)</text>
</g>
<!-- (identifier)&#45;&gt;crm:E42_Identifier -->
<g id="edge3" class="edge"><title>(identifier)&#45;&gt;crm:E42_Identifier</title>
<path fill="none" stroke="black" d="M131.865,-168.143C118.023,-156.087 98.2659,-138.879 82.3737,-125.038"/>
<polygon fill="black" stroke="black" points="84.3067,-122.08 74.4671,-118.151 79.7092,-127.359 84.3067,-122.08"/>
<g id="a_edge3&#45;label"><a xlink:href="http://www.w3.org/1999/02/22-rdf-syntax-ns#type" xlink:title="rdf:type">
<text text-anchor="middle" x="125.423" y="-140" font-family="Arial" font-size="10.00" fill="maroon">rdf:type</text>
</a>
</g>
</g>
<!-- (identifier)&#45;&gt;ids:XXX -->
<g id="edge4" class="edge"><title>(identifier)&#45;&gt;ids:XXX</title>
<path fill="none" stroke="black" d="M148.472,-165.901C148.451,-157.215 148.745,-146.513 149.923,-137 150.256,-134.309 150.707,-131.522 151.226,-128.75"/>
<polygon fill="black" stroke="black" points="154.65,-129.477 153.316,-118.967 147.804,-128.015 154.65,-129.477"/>
<g id="a_edge4&#45;label"><a xlink:href="crm:P2_has_type\n(is type of)" xlink:title="crm:P2_has_type">
<text text-anchor="middle" x="188.423" y="-140" font-family="Arial" font-size="10.00" fill="maroon">crm:P2_has_type</text>
</a>
</g>
</g>
<!-- &quot;TR4584358&quot; -->
<g id="node6" class="node"><title>&quot;TR4584358&quot;</title>
<polygon fill="ghostwhite" stroke="gray" points="285.423,-119 212.423,-119 212.423,-83 285.423,-83 285.423,-119"/>
<text text-anchor="middle" x="248.923" y="-98.5" font-family="Arial" font-size="10.00">&quot;TR4584358&quot;</text>
</g>
<!-- (identifier)&#45;&gt;&quot;TR4584358&quot; -->
<g id="edge6" class="edge"><title>(identifier)&#45;&gt;&quot;TR4584358&quot;</title>
<path fill="none" stroke="black" d="M179.245,-174.933C195.04,-169.468 213.752,-160.855 226.923,-148 232.498,-142.559 236.84,-135.423 240.137,-128.4"/>
<polygon fill="black" stroke="black" points="243.411,-129.642 244.005,-119.064 236.944,-126.964 243.411,-129.642"/>
<g id="a_edge6&#45;label"><a xlink:href="http://www.w3.org/2000/01/rdf-schema#label" xlink:title="rdfs:label">
<text text-anchor="middle" x="255.923" y="-140" font-family="Arial" font-size="10.00" fill="maroon">rdfs:label</text>
</a>
</g>
</g>
<!-- (record) -->
<g id="node7" class="node"><title>(record)</title>
<ellipse fill="none" stroke="gray" stroke-dasharray="5,2" cx="148.923" cy="-278" rx="29.3664" ry="18"/>
<text text-anchor="middle" x="148.923" y="-275.5" font-family="Arial" font-size="10.00" fill="blue">(record)</text>
</g>
<!-- (record)&#45;&gt;(identifier) -->
<g id="edge5" class="edge"><title>(record)&#45;&gt;(identifier)</title>
<path fill="none" stroke="black" d="M148.923,-259.696C148.923,-246.46 148.923,-227.947 148.923,-212.663"/>
<polygon fill="black" stroke="black" points="152.423,-212.227 148.923,-202.227 145.423,-212.227 152.423,-212.227"/>
<g id="a_edge5&#45;label"><a xlink:href="http://www.cidoc-crm.org/cidoc-crm/P1_is_identified_by" xlink:title="crm:P1_is_identified_by\n(identifies)">
<text text-anchor="middle" x="200.923" y="-234" font-family="Arial" font-size="10.00" fill="maroon">crm:P1_is_identified_by</text>
<text text-anchor="middle" x="200.923" y="-223" font-family="Arial" font-size="10.00" fill="maroon">(identifies)</text>
</a>
</g>
</g>
</g>
</svg>
