<?xml version="1.0" encoding="UTF-8" standalone="no"?>
<!DOCTYPE svg PUBLIC "-//W3C//DTD SVG 1.1//EN"
 "http://www.w3.org/Graphics/SVG/1.1/DTD/svg11.dtd">
<!-- Generated by graphviz version 2.38.0 (20140413.2041)
 -->
<!-- Title: %3 Pages: 1 -->
<svg width="580pt" height="221pt"
 viewBox="0.00 0.00 580.26 221.00" xmlns="http://www.w3.org/2000/svg" xmlns:xlink="http://www.w3.org/1999/xlink">
<g id="graph0" class="graph" transform="scale(1 1) rotate(0) translate(4 217)">
<title>%3</title>
<polygon fill="white" stroke="none" points="-4,4 -4,-217 576.259,-217 576.259,4 -4,4"/>
<!-- crm:E12_Production -->
<g id="node1" class="node"><title>crm:E12_Production</title>
<g id="a_node1"><a xlink:href="http://www.cidoc-crm.org/cidoc-crm/E12_Production" xlink:title="crm:E12_Production" target="crm">
<ellipse fill="thistle" stroke="gray" cx="164.259" cy="-101" rx="61.6198" ry="18"/>
<text text-anchor="middle" x="164.259" y="-98.5" font-family="Arial" font-size="10.00" fill="blue">crm:E12_Production</text>
</a>
</g>
</g>
<!-- (report) -->
<g id="node2" class="node"><title>(report)</title>
<ellipse fill="none" stroke="gray" stroke-dasharray="5,2" cx="271.259" cy="-101" rx="27.8353" ry="18"/>
<text text-anchor="middle" x="271.259" y="-98.5" font-family="Arial" font-size="10.00" fill="blue">(report)</text>
</g>
<!-- (investigation) -->
<g id="node3" class="node"><title>(investigation)</title>
<ellipse fill="none" stroke="gray" stroke-dasharray="5,2" cx="73.2591" cy="-18" rx="44.978" ry="18"/>
<text text-anchor="middle" x="73.2591" y="-15.5" font-family="Arial" font-size="10.00" fill="blue">(investigation)</text>
</g>
<!-- (report)&#45;&gt;(investigation) -->
<g id="edge6" class="edge"><title>(report)&#45;&gt;(investigation)</title>
<path fill="none" stroke="black" d="M249.661,-89.5224C244.941,-87.3108 239.953,-85.0327 235.259,-83 194.645,-65.4101 147.519,-47.0141 114.602,-34.4831"/>
<polygon fill="black" stroke="black" points="115.457,-31.064 104.866,-30.7898 112.975,-37.609 115.457,-31.064"/>
<g id="a_edge6&#45;label"><a xlink:href="http://www.cidoc-crm.org/cidoc-crm/P67_refers_to" xlink:title="crm:P67_refers_to">
<text text-anchor="middle" x="231.259" y="-57" font-family="Arial" font-size="10.00" fill="maroon">crm:P67_refers_to</text>
</a>
</g>
</g>
<!-- (report production) -->
<g id="node6" class="node"><title>(report production)</title>
<ellipse fill="lavender" stroke="gray" cx="220.259" cy="-195" rx="55.8461" ry="18"/>
<text text-anchor="middle" x="220.259" y="-192.5" font-family="Arial" font-size="10.00" fill="blue">(report production)</text>
</g>
<!-- (investigation)&#45;&gt;(report production) -->
<g id="edge2" class="edge"><title>(investigation)&#45;&gt;(report production)</title>
<path fill="none" stroke="black" d="M51.0273,-33.7392C24.1809,-53.3926 -14.8961,-89.1691 6.25906,-119 39.7089,-166.168 105.222,-183.9 154.994,-190.446"/>
<polygon fill="black" stroke="black" points="154.697,-193.936 165.041,-191.646 155.527,-186.985 154.697,-193.936"/>
<g id="a_edge2&#45;label"><a xlink:href="http://www.cidoc-crm.org/cidoc-crm/P9_consists_of" xlink:title="crm:P9_consists_of\n(forms part of)">
<text text-anchor="middle" x="49.7591" y="-104" font-family="Arial" font-size="10.00" fill="maroon">crm:P9_consists_of</text>
<text text-anchor="middle" x="49.7591" y="-93" font-family="Arial" font-size="10.00" fill="maroon">(forms part of)</text>
</a>
</g>
</g>
<!-- (author) -->
<g id="node4" class="node"><title>(author)</title>
<ellipse fill="none" stroke="gray" stroke-dasharray="5,2" cx="352.259" cy="-101" rx="29.3664" ry="18"/>
<text text-anchor="middle" x="352.259" y="-98.5" font-family="Arial" font-size="10.00" fill="blue">(author)</text>
</g>
<!-- (time span) -->
<g id="node5" class="node"><title>(time span)</title>
<ellipse fill="none" stroke="gray" stroke-dasharray="5,2" cx="481.259" cy="-101" rx="38.0276" ry="18"/>
<text text-anchor="middle" x="481.259" y="-98.5" font-family="Arial" font-size="10.00" fill="blue">(time span)</text>
</g>
<!-- (report production)&#45;&gt;crm:E12_Production -->
<g id="edge1" class="edge"><title>(report production)&#45;&gt;crm:E12_Production</title>
<path fill="none" stroke="black" d="M196.976,-178.289C190.421,-172.863 183.838,-166.292 179.259,-159 173.604,-149.996 170.069,-138.911 167.864,-128.917"/>
<polygon fill="black" stroke="black" points="171.294,-128.217 166.015,-119.031 164.413,-129.504 171.294,-128.217"/>
<g id="a_edge1&#45;label"><a xlink:href="http://www.w3.org/1999/02/22-rdf-syntax-ns#type" xlink:title="rdf:type">
<text text-anchor="middle" x="195.759" y="-145.5" font-family="Arial" font-size="10.00" fill="maroon">rdf:type</text>
</a>
</g>
</g>
<!-- (report production)&#45;&gt;(report) -->
<g id="edge4" class="edge"><title>(report production)&#45;&gt;(report)</title>
<path fill="none" stroke="black" d="M216.681,-177.032C215.063,-165.134 214.753,-149.234 221.259,-137 225.515,-128.998 232.508,-122.437 239.935,-117.246"/>
<polygon fill="black" stroke="black" points="242.076,-120.036 248.714,-111.778 238.375,-114.094 242.076,-120.036"/>
<g id="a_edge4&#45;label"><a xlink:href="http://www.cidoc-crm.org/cidoc-crm/P108_has_produced" xlink:title="crm:P108_has_produced\n(was produced by)">
<text text-anchor="middle" x="275.759" y="-151" font-family="Arial" font-size="10.00" fill="maroon">crm:P108_has_produced</text>
<text text-anchor="middle" x="275.759" y="-140" font-family="Arial" font-size="10.00" fill="maroon">(was produced by)</text>
</a>
</g>
</g>
<!-- (report production)&#45;&gt;(author) -->
<g id="edge3" class="edge"><title>(report production)&#45;&gt;(author)</title>
<path fill="none" stroke="black" d="M271.402,-187.511C291.847,-182.62 314.281,-174.042 330.259,-159 338.687,-151.065 343.927,-139.538 347.166,-128.923"/>
<polygon fill="black" stroke="black" points="350.573,-129.73 349.697,-119.172 343.797,-127.972 350.573,-129.73"/>
<g id="a_edge3&#45;label"><a xlink:href="http://www.cidoc-crm.org/cidoc-crm/P14_carried_out_by" xlink:title="crm:P14_carried_out_by\n(performed)">
<text text-anchor="middle" x="397.259" y="-151" font-family="Arial" font-size="10.00" fill="maroon">crm:P14_carried_out_by</text>
<text text-anchor="middle" x="397.259" y="-140" font-family="Arial" font-size="10.00" fill="maroon">(performed)</text>
</a>
</g>
</g>
<!-- (report production)&#45;&gt;(time span) -->
<g id="edge5" class="edge"><title>(report production)&#45;&gt;(time span)</title>
<path fill="none" stroke="black" d="M275.454,-191.662C335.529,-188.107 426.716,-179.441 454.259,-159 464.155,-151.656 470.569,-139.752 474.649,-128.717"/>
<polygon fill="black" stroke="black" points="478.049,-129.575 477.773,-118.984 471.384,-127.436 478.049,-129.575"/>
<g id="a_edge5&#45;label"><a xlink:href="http://www.cidoc-crm.org/cidoc-crm/P4_has_time-span" xlink:title="crm:P4_has_time&#45;span\n(is time&#45;span of)">
<text text-anchor="middle" x="521.759" y="-151" font-family="Arial" font-size="10.00" fill="maroon">crm:P4_has_time&#45;span</text>
<text text-anchor="middle" x="521.759" y="-140" font-family="Arial" font-size="10.00" fill="maroon">(is time&#45;span of)</text>
</a>
</g>
</g>
</g>
</svg>
