<?xml version="1.0" encoding="UTF-8" standalone="no"?>
<!DOCTYPE svg PUBLIC "-//W3C//DTD SVG 1.1//EN"
 "http://www.w3.org/Graphics/SVG/1.1/DTD/svg11.dtd">
<!-- Generated by graphviz version 2.38.0 (20140413.2041)
 -->
<!-- Title: %3 Pages: 1 -->
<svg width="748pt" height="503pt"
 viewBox="0.00 0.00 748.04 503.00" xmlns="http://www.w3.org/2000/svg" xmlns:xlink="http://www.w3.org/1999/xlink">
<g id="graph0" class="graph" transform="scale(1 1) rotate(0) translate(4 499)">
<title>%3</title>
<polygon fill="white" stroke="none" points="-4,4 -4,-499 744.036,-499 744.036,4 -4,4"/>
<!-- crm:E7_Activity -->
<g id="node1" class="node"><title>crm:E7_Activity</title>
<g id="a_node1"><a xlink:href="http://www.cidoc-crm.org/cidoc-crm/E7_Activity" xlink:title="crm:E7_Activity" target="crm">
<ellipse fill="thistle" stroke="gray" cx="50.0364" cy="-195" rx="50.0727" ry="18"/>
<text text-anchor="middle" x="50.0364" y="-192.5" font-family="Arial" font-size="10.00" fill="blue">crm:E7_Activity</text>
</a>
</g>
</g>
<!-- crm:E12_Production -->
<g id="node2" class="node"><title>crm:E12_Production</title>
<g id="a_node2"><a xlink:href="http://www.cidoc-crm.org/cidoc-crm/E12_Production" xlink:title="crm:E12_Production" target="crm">
<ellipse fill="thistle" stroke="gray" cx="552.036" cy="-101" rx="61.6198" ry="18"/>
<text text-anchor="middle" x="552.036" y="-98.5" font-family="Arial" font-size="10.00" fill="blue">crm:E12_Production</text>
</a>
</g>
</g>
<!-- crm:E31_Document -->
<g id="node3" class="node"><title>crm:E31_Document</title>
<g id="a_node3"><a xlink:href="http://www.cidoc-crm.org/cidoc-crm/E31_Document" xlink:title="crm:E31_Document" target="crm">
<ellipse fill="thistle" stroke="gray" cx="679.036" cy="-18" rx="60.7649" ry="18"/>
<text text-anchor="middle" x="679.036" y="-15.5" font-family="Arial" font-size="10.00" fill="blue">crm:E31_Document</text>
</a>
</g>
</g>
<!-- crm:E52_Time&#45;Span -->
<g id="node4" class="node"><title>crm:E52_Time&#45;Span</title>
<g id="a_node4"><a xlink:href="http://www.cidoc-crm.org/cidoc-crm/E52_Time-Span" xlink:title="crm:E52_Time&#45;Span" target="crm">
<ellipse fill="thistle" stroke="gray" cx="410.036" cy="-101" rx="61.6198" ry="18"/>
<text text-anchor="middle" x="410.036" y="-98.5" font-family="Arial" font-size="10.00" fill="blue">crm:E52_Time&#45;Span</text>
</a>
</g>
</g>
<!-- crm:E53_Place -->
<g id="node5" class="node"><title>crm:E53_Place</title>
<g id="a_node5"><a xlink:href="http://www.cidoc-crm.org/cidoc-crm/E53_Place" xlink:title="crm:E53_Place" target="crm">
<ellipse fill="thistle" stroke="gray" cx="281.036" cy="-101" rx="48.7185" ry="18"/>
<text text-anchor="middle" x="281.036" y="-98.5" font-family="Arial" font-size="10.00" fill="blue">crm:E53_Place</text>
</a>
</g>
</g>
<!-- crm:E73_Information_Object -->
<g id="node6" class="node"><title>crm:E73_Information_Object</title>
<g id="a_node6"><a xlink:href="http://www.cidoc-crm.org/cidoc-crm/E73_Information_Object" xlink:title="crm:E73_Information_Object" target="crm">
<ellipse fill="thistle" stroke="gray" cx="144.036" cy="-289" rx="82.3257" ry="18"/>
<text text-anchor="middle" x="144.036" y="-286.5" font-family="Arial" font-size="10.00" fill="blue">crm:E73_Information_Object</text>
</a>
</g>
</g>
<!-- crm:E74_Group -->
<g id="node7" class="node"><title>crm:E74_Group</title>
<g id="a_node7"><a xlink:href="http://www.cidoc-crm.org/cidoc-crm/E74_Group" xlink:title="crm:E74_Group" target="crm">
<ellipse fill="thistle" stroke="gray" cx="162.036" cy="-101" rx="50.0727" ry="18"/>
<text text-anchor="middle" x="162.036" y="-98.5" font-family="Arial" font-size="10.00" fill="blue">crm:E74_Group</text>
</a>
</g>
</g>
<!-- (OASIS dataset) -->
<g id="node8" class="node"><title>(OASIS dataset)</title>
<ellipse fill="ghostwhite" stroke="gray" cx="177.036" cy="-477" rx="51.6054" ry="18"/>
<text text-anchor="middle" x="177.036" y="-474.5" font-family="Arial" font-size="10.00" fill="blue">(OASIS dataset)</text>
</g>
<!-- (OASIS dataset)&#45;&gt;crm:E73_Information_Object -->
<g id="edge1" class="edge"><title>(OASIS dataset)&#45;&gt;crm:E73_Information_Object</title>
<path fill="none" stroke="black" d="M170.368,-459.016C164.774,-444.003 157.069,-421.385 153.036,-401 147.458,-372.802 145.324,-339.919 144.514,-317.303"/>
<polygon fill="black" stroke="black" points="148.006,-316.984 144.214,-307.091 141.009,-317.189 148.006,-316.984"/>
<g id="a_edge1&#45;label"><a xlink:href="http://www.w3.org/1999/02/22-rdf-syntax-ns#type" xlink:title="rdf:type">
<text text-anchor="middle" x="169.536" y="-380.5" font-family="Arial" font-size="10.00" fill="maroon">rdf:type</text>
</a>
</g>
</g>
<!-- (OASIS record) -->
<g id="node9" class="node"><title>(OASIS record)</title>
<ellipse fill="ghostwhite" stroke="gray" cx="244.036" cy="-383" rx="48.7185" ry="18"/>
<text text-anchor="middle" x="244.036" y="-380.5" font-family="Arial" font-size="10.00" fill="blue">(OASIS record)</text>
</g>
<!-- (OASIS dataset)&#45;&gt;(OASIS record) -->
<g id="edge9" class="edge"><title>(OASIS dataset)&#45;&gt;(OASIS record)</title>
<path fill="none" stroke="black" d="M189.325,-459.126C199.589,-445.032 214.366,-424.742 225.975,-408.8"/>
<polygon fill="black" stroke="black" points="228.993,-410.602 232.051,-400.458 223.335,-406.481 228.993,-410.602"/>
<g id="a_edge9&#45;label"><a xlink:href="http://www.cidoc-crm.org/cidoc-crm/P148_has_component" xlink:title="crm:P148_has_component\n(is component of)">
<text text-anchor="middle" x="277.536" y="-433" font-family="Arial" font-size="10.00" fill="maroon">crm:P148_has_component</text>
<text text-anchor="middle" x="277.536" y="-422" font-family="Arial" font-size="10.00" fill="maroon">(is component of)</text>
</a>
</g>
</g>
<!-- (OASIS record)&#45;&gt;crm:E73_Information_Object -->
<g id="edge2" class="edge"><title>(OASIS record)&#45;&gt;crm:E73_Information_Object</title>
<path fill="none" stroke="black" d="M226.618,-365.975C210.992,-351.599 187.847,-330.306 170.033,-313.917"/>
<polygon fill="black" stroke="black" points="171.998,-310.969 162.269,-306.774 167.259,-316.12 171.998,-310.969"/>
<g id="a_edge2&#45;label"><a xlink:href="http://www.w3.org/1999/02/22-rdf-syntax-ns#type" xlink:title="rdf:type">
<text text-anchor="middle" x="222.536" y="-333.5" font-family="Arial" font-size="10.00" fill="maroon">rdf:type</text>
</a>
</g>
</g>
<!-- (investigation) -->
<g id="node10" class="node"><title>(investigation)</title>
<ellipse fill="ghostwhite" stroke="gray" cx="289.036" cy="-289" rx="44.978" ry="18"/>
<text text-anchor="middle" x="289.036" y="-286.5" font-family="Arial" font-size="10.00" fill="blue">(investigation)</text>
</g>
<!-- (OASIS record)&#45;&gt;(investigation) -->
<g id="edge10" class="edge"><title>(OASIS record)&#45;&gt;(investigation)</title>
<path fill="none" stroke="black" d="M252.29,-365.126C259.014,-351.379 268.621,-331.737 276.326,-315.985"/>
<polygon fill="black" stroke="black" points="279.585,-317.288 280.835,-306.767 273.297,-314.212 279.585,-317.288"/>
<g id="a_edge10&#45;label"><a xlink:href="http://www.cidoc-crm.org/cidoc-crm/P67_refers_to" xlink:title="crm:P67_refers_to\n(is referred_to_by)">
<text text-anchor="middle" x="312.036" y="-339" font-family="Arial" font-size="10.00" fill="maroon">crm:P67_refers_to</text>
<text text-anchor="middle" x="312.036" y="-328" font-family="Arial" font-size="10.00" fill="maroon">(is referred_to_by)</text>
</a>
</g>
</g>
<!-- (investigation)&#45;&gt;crm:E7_Activity -->
<g id="edge3" class="edge"><title>(investigation)&#45;&gt;crm:E7_Activity</title>
<path fill="none" stroke="black" d="M255.822,-276.76C248.995,-274.672 241.82,-272.636 235.036,-271 188.582,-259.799 173.112,-271.459 129.036,-253 109.161,-244.676 89.5019,-230.519 74.7663,-218.397"/>
<polygon fill="black" stroke="black" points="77.0104,-215.711 67.1163,-211.922 72.4879,-221.054 77.0104,-215.711"/>
<g id="a_edge3&#45;label"><a xlink:href="http://www.w3.org/1999/02/22-rdf-syntax-ns#type" xlink:title="rdf:type">
<text text-anchor="middle" x="145.536" y="-239.5" font-family="Arial" font-size="10.00" fill="maroon">rdf:type</text>
</a>
</g>
</g>
<!-- (organization) -->
<g id="node11" class="node"><title>(organization)</title>
<ellipse fill="ghostwhite" stroke="gray" cx="162.036" cy="-195" rx="44.3" ry="18"/>
<text text-anchor="middle" x="162.036" y="-192.5" font-family="Arial" font-size="10.00" fill="blue">(organization)</text>
</g>
<!-- (investigation)&#45;&gt;(organization) -->
<g id="edge11" class="edge"><title>(investigation)&#45;&gt;(organization)</title>
<path fill="none" stroke="black" d="M255.052,-277.278C248.416,-275.191 241.509,-273.023 235.036,-271 209.275,-262.948 195.701,-272.497 177.036,-253 169.394,-245.017 165.53,-233.625 163.617,-223.121"/>
<polygon fill="black" stroke="black" points="167.069,-222.526 162.286,-213.072 160.129,-223.445 167.069,-222.526"/>
<g id="a_edge11&#45;label"><a xlink:href="http://www.cidoc-crm.org/cidoc-crm/P14_carried_out_by" xlink:title="crm:P14_carried_out_by\n(performed)">
<text text-anchor="middle" x="230.036" y="-245" font-family="Arial" font-size="10.00" fill="maroon">crm:P14_carried_out_by</text>
<text text-anchor="middle" x="230.036" y="-234" font-family="Arial" font-size="10.00" fill="maroon">(performed)</text>
</a>
</g>
</g>
<!-- (site) -->
<g id="node12" class="node"><title>(site)</title>
<ellipse fill="ghostwhite" stroke="gray" cx="285.036" cy="-195" rx="27" ry="18"/>
<text text-anchor="middle" x="285.036" y="-192.5" font-family="Arial" font-size="10.00" fill="blue">(site)</text>
</g>
<!-- (investigation)&#45;&gt;(site) -->
<g id="edge12" class="edge"><title>(investigation)&#45;&gt;(site)</title>
<path fill="none" stroke="black" d="M288.284,-270.696C287.703,-257.331 286.888,-238.587 286.22,-223.219"/>
<polygon fill="black" stroke="black" points="289.717,-223.065 285.785,-213.227 282.723,-223.37 289.717,-223.065"/>
<g id="a_edge12&#45;label"><a xlink:href="http://www.cidoc-crm.org/cidoc-crm/P7_took_place_at" xlink:title="crm:P7_took_place_at\n(witnessed)">
<text text-anchor="middle" x="337.036" y="-245" font-family="Arial" font-size="10.00" fill="maroon">crm:P7_took_place_at</text>
<text text-anchor="middle" x="337.036" y="-234" font-family="Arial" font-size="10.00" fill="maroon">(witnessed)</text>
</a>
</g>
</g>
<!-- (timespan) -->
<g id="node13" class="node"><title>(timespan)</title>
<ellipse fill="ghostwhite" stroke="gray" cx="410.036" cy="-195" rx="36.4942" ry="18"/>
<text text-anchor="middle" x="410.036" y="-192.5" font-family="Arial" font-size="10.00" fill="blue">(timespan)</text>
</g>
<!-- (investigation)&#45;&gt;(timespan) -->
<g id="edge13" class="edge"><title>(investigation)&#45;&gt;(timespan)</title>
<path fill="none" stroke="black" d="M330.382,-281.648C349.994,-276.745 372.479,-268.119 388.036,-253 396.337,-244.933 401.559,-233.386 404.818,-222.792"/>
<polygon fill="black" stroke="black" points="408.216,-223.633 407.378,-213.071 401.447,-221.85 408.216,-223.633"/>
<g id="a_edge13&#45;label"><a xlink:href="http://www.cidoc-crm.org/cidoc-crm/P4_has_time-span" xlink:title="crm:P4_has_time&#45;span\n(is time&#45;span of)">
<text text-anchor="middle" x="452.536" y="-245" font-family="Arial" font-size="10.00" fill="maroon">crm:P4_has_time&#45;span</text>
<text text-anchor="middle" x="452.536" y="-234" font-family="Arial" font-size="10.00" fill="maroon">(is time&#45;span of)</text>
</a>
</g>
</g>
<!-- (report production) -->
<g id="node14" class="node"><title>(report production)</title>
<ellipse fill="ghostwhite" stroke="gray" cx="552.036" cy="-195" rx="55.8461" ry="18"/>
<text text-anchor="middle" x="552.036" y="-192.5" font-family="Arial" font-size="10.00" fill="blue">(report production)</text>
</g>
<!-- (investigation)&#45;&gt;(report production) -->
<g id="edge14" class="edge"><title>(investigation)&#45;&gt;(report production)</title>
<path fill="none" stroke="black" d="M332.956,-284.724C387.902,-279.985 478.277,-269.883 507.036,-253 519.734,-245.546 530.211,-233.031 537.851,-221.624"/>
<polygon fill="black" stroke="black" points="541.017,-223.163 543.359,-212.831 535.084,-219.448 541.017,-223.163"/>
<g id="a_edge14&#45;label"><a xlink:href="http://www.cidoc-crm.org/cidoc-crm/P9_consists_of" xlink:title="crm:P9_consists_of\n(forms part of)">
<text text-anchor="middle" x="574.536" y="-245" font-family="Arial" font-size="10.00" fill="maroon">crm:P9_consists_of</text>
<text text-anchor="middle" x="574.536" y="-234" font-family="Arial" font-size="10.00" fill="maroon">(forms part of)</text>
</a>
</g>
</g>
<!-- (organization)&#45;&gt;crm:E74_Group -->
<g id="edge4" class="edge"><title>(organization)&#45;&gt;crm:E74_Group</title>
<path fill="none" stroke="black" d="M162.036,-176.696C162.036,-163.46 162.036,-144.947 162.036,-129.663"/>
<polygon fill="black" stroke="black" points="165.536,-129.227 162.036,-119.227 158.536,-129.227 165.536,-129.227"/>
<g id="a_edge4&#45;label"><a xlink:href="http://www.w3.org/1999/02/22-rdf-syntax-ns#type" xlink:title="rdf:type">
<text text-anchor="middle" x="178.536" y="-145.5" font-family="Arial" font-size="10.00" fill="maroon">rdf:type</text>
</a>
</g>
</g>
<!-- (site)&#45;&gt;crm:E53_Place -->
<g id="edge5" class="edge"><title>(site)&#45;&gt;crm:E53_Place</title>
<path fill="none" stroke="black" d="M284.284,-176.696C283.703,-163.331 282.888,-144.587 282.22,-129.219"/>
<polygon fill="black" stroke="black" points="285.717,-129.065 281.785,-119.227 278.723,-129.37 285.717,-129.065"/>
<g id="a_edge5&#45;label"><a xlink:href="http://www.w3.org/1999/02/22-rdf-syntax-ns#type" xlink:title="rdf:type">
<text text-anchor="middle" x="300.536" y="-145.5" font-family="Arial" font-size="10.00" fill="maroon">rdf:type</text>
</a>
</g>
</g>
<!-- (timespan)&#45;&gt;crm:E52_Time&#45;Span -->
<g id="edge6" class="edge"><title>(timespan)&#45;&gt;crm:E52_Time&#45;Span</title>
<path fill="none" stroke="black" d="M410.036,-176.696C410.036,-163.46 410.036,-144.947 410.036,-129.663"/>
<polygon fill="black" stroke="black" points="413.536,-129.227 410.036,-119.227 406.536,-129.227 413.536,-129.227"/>
<g id="a_edge6&#45;label"><a xlink:href="http://www.w3.org/1999/02/22-rdf-syntax-ns#type" xlink:title="rdf:type">
<text text-anchor="middle" x="426.536" y="-145.5" font-family="Arial" font-size="10.00" fill="maroon">rdf:type</text>
</a>
</g>
</g>
<!-- (report production)&#45;&gt;crm:E12_Production -->
<g id="edge7" class="edge"><title>(report production)&#45;&gt;crm:E12_Production</title>
<path fill="none" stroke="black" d="M552.036,-176.696C552.036,-163.46 552.036,-144.947 552.036,-129.663"/>
<polygon fill="black" stroke="black" points="555.536,-129.227 552.036,-119.227 548.536,-129.227 555.536,-129.227"/>
<g id="a_edge7&#45;label"><a xlink:href="http://www.w3.org/1999/02/22-rdf-syntax-ns#type" xlink:title="rdf:type">
<text text-anchor="middle" x="568.536" y="-145.5" font-family="Arial" font-size="10.00" fill="maroon">rdf:type</text>
</a>
</g>
</g>
<!-- (OASIS report) -->
<g id="node15" class="node"><title>(OASIS report)</title>
<ellipse fill="ghostwhite" stroke="gray" cx="679.036" cy="-101" rx="47.1863" ry="18"/>
<text text-anchor="middle" x="679.036" y="-98.5" font-family="Arial" font-size="10.00" fill="blue">(OASIS report)</text>
</g>
<!-- (report production)&#45;&gt;(OASIS report) -->
<g id="edge15" class="edge"><title>(report production)&#45;&gt;(OASIS report)</title>
<path fill="none" stroke="black" d="M573.868,-178.185C594.839,-162.994 626.664,-139.939 649.812,-123.171"/>
<polygon fill="black" stroke="black" points="651.866,-126.004 657.911,-117.303 647.759,-120.335 651.866,-126.004"/>
<g id="a_edge15&#45;label"><a xlink:href="http://www.cidoc-crm.org/cidoc-crm/P108_has_produced" xlink:title="crm:P108_has_produced\n(was produced by)">
<text text-anchor="middle" x="685.536" y="-151" font-family="Arial" font-size="10.00" fill="maroon">crm:P108_has_produced</text>
<text text-anchor="middle" x="685.536" y="-140" font-family="Arial" font-size="10.00" fill="maroon">(was produced by)</text>
</a>
</g>
</g>
<!-- (OASIS report)&#45;&gt;crm:E31_Document -->
<g id="edge8" class="edge"><title>(OASIS report)&#45;&gt;crm:E31_Document</title>
<path fill="none" stroke="black" d="M679.036,-82.822C679.036,-72.1903 679.036,-58.306 679.036,-46.2035"/>
<polygon fill="black" stroke="black" points="682.536,-46.1532 679.036,-36.1533 675.536,-46.1533 682.536,-46.1532"/>
<g id="a_edge8&#45;label"><a xlink:href="http://www.w3.org/1999/02/22-rdf-syntax-ns#type" xlink:title="rdf:type">
<text text-anchor="middle" x="695.536" y="-57" font-family="Arial" font-size="10.00" fill="maroon">rdf:type</text>
</a>
</g>
</g>
</g>
</svg>
