<?xml version="1.0" encoding="UTF-8" standalone="no"?>
<!DOCTYPE svg PUBLIC "-//W3C//DTD SVG 1.1//EN"
 "http://www.w3.org/Graphics/SVG/1.1/DTD/svg11.dtd">
<!-- Generated by graphviz version 2.38.0 (20140413.2041)
 -->
<!-- Title: %3 Pages: 1 -->
<svg width="517pt" height="315pt"
 viewBox="0.00 0.00 517.11 315.00" xmlns="http://www.w3.org/2000/svg" xmlns:xlink="http://www.w3.org/1999/xlink">
<g id="graph0" class="graph" transform="scale(1 1) rotate(0) translate(4 311)">
<title>%3</title>
<polygon fill="white" stroke="none" points="-4,4 -4,-311 513.11,-311 513.11,4 -4,4"/>
<!-- (project activities) -->
<g id="node1" class="node"><title>(project activities)</title>
<ellipse fill="none" stroke="gray" stroke-dasharray="5,2" cx="238.61" cy="-289" rx="54.3144" ry="18"/>
<text text-anchor="middle" x="238.61" y="-286.5" font-family="Arial" font-size="10.00" fill="blue">(project activities)</text>
</g>
<!-- (organization) -->
<g id="node3" class="node"><title>(organization)</title>
<ellipse fill="lavender" stroke="gray" cx="238.61" cy="-195" rx="44.3" ry="18"/>
<text text-anchor="middle" x="238.61" y="-192.5" font-family="Arial" font-size="10.00" fill="blue">(organization)</text>
</g>
<!-- (project activities)&#45;&gt;(organization) -->
<g id="edge1" class="edge"><title>(project activities)&#45;&gt;(organization)</title>
<path fill="none" stroke="black" d="M238.61,-270.696C238.61,-257.46 238.61,-238.947 238.61,-223.663"/>
<polygon fill="black" stroke="black" points="242.111,-223.227 238.61,-213.227 235.111,-223.227 242.111,-223.227"/>
<g id="a_edge1&#45;label"><a xlink:href="http://www.cidoc-crm.org/cidoc-crm/P14_carried_out_by" xlink:title="crm:P14_carried_out_by\n(performed)">
<text text-anchor="middle" x="291.61" y="-245" font-family="Arial" font-size="10.00" fill="maroon">crm:P14_carried_out_by</text>
<text text-anchor="middle" x="291.61" y="-234" font-family="Arial" font-size="10.00" fill="maroon">(performed)</text>
</a>
</g>
</g>
<!-- (person) -->
<g id="node2" class="node"><title>(person)</title>
<ellipse fill="none" stroke="gray" stroke-dasharray="5,2" cx="30.6105" cy="-101" rx="30.7213" ry="18"/>
<text text-anchor="middle" x="30.6105" y="-98.5" font-family="Arial" font-size="10.00" fill="blue">(person)</text>
</g>
<!-- (organization)&#45;&gt;(person) -->
<g id="edge3" class="edge"><title>(organization)&#45;&gt;(person)</title>
<path fill="none" stroke="black" d="M195.332,-191.034C146.436,-186.834 70.8826,-177.51 49.6105,-159 40.9041,-151.424 36.1743,-139.75 33.6102,-128.935"/>
<polygon fill="black" stroke="black" points="37.0298,-128.18 31.7562,-118.991 30.1484,-129.463 37.0298,-128.18"/>
<g id="a_edge3&#45;label"><a xlink:href="http://www.cidoc-crm.org/cidoc-crm/P107_has_current_or_former_member" xlink:title="crm:P107_has_current_or_former_member\n(is current or former member of)">
<text text-anchor="middle" x="142.11" y="-151" font-family="Arial" font-size="10.00" fill="maroon">crm:P107_has_current_or_former_member</text>
<text text-anchor="middle" x="142.11" y="-140" font-family="Arial" font-size="10.00" fill="maroon">(is current or former member of)</text>
</a>
</g>
</g>
<!-- crm:E74_Group -->
<g id="node4" class="node"><title>crm:E74_Group</title>
<g id="a_node4"><a xlink:href="http://www.cidoc-crm.org/cidoc-crm/E74_Group" xlink:title="crm:E74_Group">
<ellipse fill="thistle" stroke="gray" cx="238.61" cy="-101" rx="50.0727" ry="18"/>
<text text-anchor="middle" x="238.61" y="-98.5" font-family="Arial" font-size="10.00" fill="blue">crm:E74_Group</text>
</a>
</g>
</g>
<!-- (organization)&#45;&gt;crm:E74_Group -->
<g id="edge2" class="edge"><title>(organization)&#45;&gt;crm:E74_Group</title>
<path fill="none" stroke="black" d="M238.61,-176.696C238.61,-163.46 238.61,-144.947 238.61,-129.663"/>
<polygon fill="black" stroke="black" points="242.111,-129.227 238.61,-119.227 235.111,-129.227 242.111,-129.227"/>
<g id="a_edge2&#45;label"><a xlink:href="http://www.w3.org/1999/02/22-rdf-syntax-ns#type" xlink:title="rdf:type">
<text text-anchor="middle" x="255.11" y="-145.5" font-family="Arial" font-size="10.00" fill="maroon">rdf:type</text>
</a>
</g>
</g>
<!-- (organization name) -->
<g id="node5" class="node"><title>(organization name)</title>
<ellipse fill="ghostwhite" stroke="gray" cx="366.61" cy="-101" rx="60.0873" ry="18"/>
<text text-anchor="middle" x="366.61" y="-98.5" font-family="Arial" font-size="10.00" fill="blue">(organization name)</text>
</g>
<!-- (organization)&#45;&gt;(organization name) -->
<g id="edge4" class="edge"><title>(organization)&#45;&gt;(organization name)</title>
<path fill="none" stroke="black" d="M259.461,-179.014C280.281,-164.049 312.506,-140.888 336.181,-123.871"/>
<polygon fill="black" stroke="black" points="338.403,-126.585 344.48,-117.906 334.317,-120.901 338.403,-126.585"/>
<g id="a_edge4&#45;label"><a xlink:href="http://www.cidoc-crm.org/cidoc-crm/P1_is_identified_by" xlink:title="crm:P1_is_identified_by\n(identifies)">
<text text-anchor="middle" x="370.61" y="-151" font-family="Arial" font-size="10.00" fill="maroon">crm:P1_is_identified_by</text>
<text text-anchor="middle" x="370.61" y="-140" font-family="Arial" font-size="10.00" fill="maroon">(identifies)</text>
</a>
</g>
</g>
<!-- crm:E41_Appellation -->
<g id="node6" class="node"><title>crm:E41_Appellation</title>
<g id="a_node6"><a xlink:href="http://www.cidoc-crm.org/cidoc-crm/E41_Appellation" xlink:title="crm:E41_Appellation">
<ellipse fill="thistle" stroke="gray" cx="291.61" cy="-18" rx="62.9739" ry="18"/>
<text text-anchor="middle" x="291.61" y="-15.5" font-family="Arial" font-size="10.00" fill="blue">crm:E41_Appellation</text>
</a>
</g>
</g>
<!-- (organization name)&#45;&gt;crm:E41_Appellation -->
<g id="edge5" class="edge"><title>(organization name)&#45;&gt;crm:E41_Appellation</title>
<path fill="none" stroke="black" d="M351.07,-83.2167C340.34,-71.6277 325.905,-56.0384 313.946,-43.1219"/>
<polygon fill="black" stroke="black" points="316.236,-40.4443 306.874,-35.4846 311.1,-45.2002 316.236,-40.4443"/>
<g id="a_edge5&#45;label"><a xlink:href="http://www.w3.org/1999/02/22-rdf-syntax-ns#type" xlink:title="rdf:type">
<text text-anchor="middle" x="350.11" y="-57" font-family="Arial" font-size="10.00" fill="maroon">rdf:type</text>
</a>
</g>
</g>
<!-- &quot;Fantasy Archaeology&quot;@en -->
<g id="node7" class="node"><title>&quot;Fantasy Archaeology&quot;@en</title>
<polygon fill="ghostwhite" stroke="gray" points="509.11,-36 372.11,-36 372.11,-0 509.11,-0 509.11,-36"/>
<text text-anchor="middle" x="440.61" y="-15.5" font-family="Arial" font-size="10.00">&quot;Fantasy Archaeology&quot;@en</text>
</g>
<!-- (organization name)&#45;&gt;&quot;Fantasy Archaeology&quot;@en -->
<g id="edge6" class="edge"><title>(organization name)&#45;&gt;&quot;Fantasy Archaeology&quot;@en</title>
<path fill="none" stroke="black" d="M381.943,-83.2167C392.391,-71.7812 406.396,-56.4507 418.103,-43.6365"/>
<polygon fill="black" stroke="black" points="420.882,-45.784 425.043,-36.0404 415.714,-41.0626 420.882,-45.784"/>
<g id="a_edge6&#45;label"><a xlink:href="http://www.w3.org/2000/01/rdf-schema#label" xlink:title="rdfs:label">
<text text-anchor="middle" x="428.61" y="-57" font-family="Arial" font-size="10.00" fill="maroon">rdfs:label</text>
</a>
</g>
</g>
</g>
</svg>
