<?xml version="1.0" encoding="UTF-8" standalone="no"?>
<!DOCTYPE svg PUBLIC "-//W3C//DTD SVG 1.1//EN"
 "http://www.w3.org/Graphics/SVG/1.1/DTD/svg11.dtd">
<!-- Generated by graphviz version 2.38.0 (20140413.2041)
 -->
<!-- Title: %3 Pages: 1 -->
<svg width="767pt" height="315pt"
 viewBox="0.00 0.00 767.04 315.00" xmlns="http://www.w3.org/2000/svg" xmlns:xlink="http://www.w3.org/1999/xlink">
<g id="graph0" class="graph" transform="scale(1 1) rotate(0) translate(4 311)">
<title>%3</title>
<polygon fill="white" stroke="none" points="-4,4 -4,-311 763.036,-311 763.036,4 -4,4"/>
<!-- crm:E7_Activity -->
<g id="node1" class="node"><title>crm:E7_Activity</title>
<g id="a_node1"><a xlink:href="http://www.cidoc-crm.org/cidoc-crm/E7_Activity" xlink:title="crm:E7_Activity">
<ellipse fill="thistle" stroke="gray" cx="50.0364" cy="-101" rx="50.0727" ry="18"/>
<text text-anchor="middle" x="50.0364" y="-98.5" font-family="Arial" font-size="10.00" fill="blue">crm:E7_Activity</text>
</a>
</g>
</g>
<!-- crm:E55_Type -->
<g id="node2" class="node"><title>crm:E55_Type</title>
<g id="a_node2"><a xlink:href="http://www.cidoc-crm.org/cidoc-crm/E55_Type" xlink:title="crm:E55_Type">
<ellipse fill="thistle" stroke="gray" cx="219.036" cy="-18" rx="47.1863" ry="18"/>
<text text-anchor="middle" x="219.036" y="-15.5" font-family="Arial" font-size="10.00" fill="blue">crm:E55_Type</text>
</a>
</g>
</g>
<!-- (OASIS record) -->
<g id="node3" class="node"><title>(OASIS record)</title>
<ellipse fill="none" stroke="gray" stroke-dasharray="5,2" cx="347.036" cy="-289" rx="48.7185" ry="18"/>
<text text-anchor="middle" x="347.036" y="-286.5" font-family="Arial" font-size="10.00" fill="blue">(OASIS record)</text>
</g>
<!-- (investigation) -->
<g id="node4" class="node"><title>(investigation)</title>
<ellipse fill="lavender" stroke="gray" cx="347.036" cy="-195" rx="44.978" ry="18"/>
<text text-anchor="middle" x="347.036" y="-192.5" font-family="Arial" font-size="10.00" fill="blue">(investigation)</text>
</g>
<!-- (OASIS record)&#45;&gt;(investigation) -->
<g id="edge1" class="edge"><title>(OASIS record)&#45;&gt;(investigation)</title>
<path fill="none" stroke="black" d="M347.036,-270.696C347.036,-257.46 347.036,-238.947 347.036,-223.663"/>
<polygon fill="black" stroke="black" points="350.536,-223.227 347.036,-213.227 343.536,-223.227 350.536,-223.227"/>
<g id="a_edge1&#45;label"><a xlink:href="http://www.cidoc-crm.org/cidoc-crm/P67_refers_to" xlink:title="crm:P67_refers_to\n(is referred to by)">
<text text-anchor="middle" x="387.036" y="-245" font-family="Arial" font-size="10.00" fill="maroon">crm:P67_refers_to</text>
<text text-anchor="middle" x="387.036" y="-234" font-family="Arial" font-size="10.00" fill="maroon">(is referred to by)</text>
</a>
</g>
</g>
<!-- (investigation)&#45;&gt;crm:E7_Activity -->
<g id="edge2" class="edge"><title>(investigation)&#45;&gt;crm:E7_Activity</title>
<path fill="none" stroke="black" d="M302.777,-192.044C259.066,-188.883 190.977,-180.617 136.036,-159 114.603,-150.567 93.0038,-136.225 76.8129,-124.037"/>
<polygon fill="black" stroke="black" points="78.9228,-121.245 68.8686,-117.903 74.6446,-126.785 78.9228,-121.245"/>
<g id="a_edge2&#45;label"><a xlink:href="http://www.w3.org/1999/02/22-rdf-syntax-ns#type" xlink:title="rdf:type">
<text text-anchor="middle" x="152.536" y="-145.5" font-family="Arial" font-size="10.00" fill="maroon">rdf:type</text>
</a>
</g>
</g>
<!-- (event type) -->
<g id="node5" class="node"><title>(event type)</title>
<ellipse fill="ghostwhite" stroke="gray" cx="157.036" cy="-101" rx="39.3809" ry="18"/>
<text text-anchor="middle" x="157.036" y="-98.5" font-family="Arial" font-size="10.00" fill="blue">(event type)</text>
</g>
<!-- (investigation)&#45;&gt;(event type) -->
<g id="edge3" class="edge"><title>(investigation)&#45;&gt;(event type)</title>
<path fill="none" stroke="black" d="M302.173,-193.227C268.72,-190.589 223.407,-182.445 191.036,-159 180.498,-151.368 172.642,-139.378 167.151,-128.36"/>
<polygon fill="black" stroke="black" points="170.25,-126.719 162.927,-119.062 163.877,-129.614 170.25,-126.719"/>
<g id="a_edge3&#45;label"><a xlink:href="http://www.cidoc-crm.org/cidoc-crm/P2_has_type" xlink:title="crm:P2_has_type\n(is type of)">
<text text-anchor="middle" x="229.536" y="-151" font-family="Arial" font-size="10.00" fill="maroon">crm:P2_has_type</text>
<text text-anchor="middle" x="229.536" y="-140" font-family="Arial" font-size="10.00" fill="maroon">(is type of)</text>
</a>
</g>
</g>
<!-- (reason for investigation) -->
<g id="node6" class="node"><title>(reason for investigation)</title>
<ellipse fill="ghostwhite" stroke="gray" cx="286.036" cy="-101" rx="71.6342" ry="18"/>
<text text-anchor="middle" x="286.036" y="-98.5" font-family="Arial" font-size="10.00" fill="blue">(reason for investigation)</text>
</g>
<!-- (investigation)&#45;&gt;(reason for investigation) -->
<g id="edge4" class="edge"><title>(investigation)&#45;&gt;(reason for investigation)</title>
<path fill="none" stroke="black" d="M310.025,-184.623C296.971,-179.343 283.657,-171.253 276.036,-159 270.425,-149.978 271.156,-138.683 273.947,-128.533"/>
<polygon fill="black" stroke="black" points="277.321,-129.485 277.266,-118.891 270.702,-127.207 277.321,-129.485"/>
<g id="a_edge4&#45;label"><a xlink:href="http://www.cidoc-crm.org/cidoc-crm/P17_was_motivated_by" xlink:title="crm:P17_was_motivated_by\n(motivated)">
<text text-anchor="middle" x="337.036" y="-151" font-family="Arial" font-size="10.00" fill="maroon">crm:P17_was_motivated_by</text>
<text text-anchor="middle" x="337.036" y="-140" font-family="Arial" font-size="10.00" fill="maroon">(motivated)</text>
</a>
</g>
</g>
<!-- (organization) -->
<g id="node9" class="node"><title>(organization)</title>
<ellipse fill="none" stroke="gray" stroke-dasharray="5,2" cx="420.036" cy="-101" rx="44.3" ry="18"/>
<text text-anchor="middle" x="420.036" y="-98.5" font-family="Arial" font-size="10.00" fill="blue">(organization)</text>
</g>
<!-- (investigation)&#45;&gt;(organization) -->
<g id="edge9" class="edge"><title>(investigation)&#45;&gt;(organization)</title>
<path fill="none" stroke="black" d="M373.352,-180.235C382.139,-174.608 391.378,-167.425 398.036,-159 404.992,-150.2 409.955,-138.943 413.385,-128.762"/>
<polygon fill="black" stroke="black" points="416.772,-129.655 416.321,-119.07 410.072,-127.625 416.772,-129.655"/>
<g id="a_edge9&#45;label"><a xlink:href="http://www.cidoc-crm.org/cidoc-crm/P14_carried_out_by" xlink:title="crm:P14_carried_out_by\n(performed)">
<text text-anchor="middle" x="464.036" y="-151" font-family="Arial" font-size="10.00" fill="maroon">crm:P14_carried_out_by</text>
<text text-anchor="middle" x="464.036" y="-140" font-family="Arial" font-size="10.00" fill="maroon">(performed)</text>
</a>
</g>
</g>
<!-- (time span) -->
<g id="node10" class="node"><title>(time span)</title>
<ellipse fill="none" stroke="gray" stroke-dasharray="5,2" cx="549.036" cy="-101" rx="38.0276" ry="18"/>
<text text-anchor="middle" x="549.036" y="-98.5" font-family="Arial" font-size="10.00" fill="blue">(time span)</text>
</g>
<!-- (investigation)&#45;&gt;(time span) -->
<g id="edge10" class="edge"><title>(investigation)&#45;&gt;(time span)</title>
<path fill="none" stroke="black" d="M390.137,-189.71C434.838,-184.507 500.958,-174.466 521.036,-159 530.8,-151.479 537.376,-139.659 541.686,-128.727"/>
<polygon fill="black" stroke="black" points="545.059,-129.682 545.034,-119.087 538.447,-127.385 545.059,-129.682"/>
<g id="a_edge10&#45;label"><a xlink:href="http://www.cidoc-crm.org/cidoc-crm/P4_has_time-span" xlink:title="crm:P4_has_time&#45;span\n(is time&#45;span of)">
<text text-anchor="middle" x="588.536" y="-151" font-family="Arial" font-size="10.00" fill="maroon">crm:P4_has_time&#45;span</text>
<text text-anchor="middle" x="588.536" y="-140" font-family="Arial" font-size="10.00" fill="maroon">(is time&#45;span of)</text>
</a>
</g>
</g>
<!-- (site) -->
<g id="node11" class="node"><title>(site)</title>
<ellipse fill="none" stroke="gray" stroke-dasharray="5,2" cx="673.036" cy="-101" rx="27" ry="18"/>
<text text-anchor="middle" x="673.036" y="-98.5" font-family="Arial" font-size="10.00" fill="blue">(site)</text>
</g>
<!-- (investigation)&#45;&gt;(site) -->
<g id="edge11" class="edge"><title>(investigation)&#45;&gt;(site)</title>
<path fill="none" stroke="black" d="M391.846,-193.704C464.344,-192.413 603.265,-186.326 643.036,-159 653.587,-151.751 660.7,-139.588 665.341,-128.355"/>
<polygon fill="black" stroke="black" points="668.662,-129.464 668.807,-118.87 662.087,-127.062 668.662,-129.464"/>
<g id="a_edge11&#45;label"><a xlink:href="http://www.cidoc-crm.org/cidoc-crm/P7_took_place_at" xlink:title="crm:P7_took_place_at\n(witnessed)">
<text text-anchor="middle" x="710.036" y="-151" font-family="Arial" font-size="10.00" fill="maroon">crm:P7_took_place_at</text>
<text text-anchor="middle" x="710.036" y="-140" font-family="Arial" font-size="10.00" fill="maroon">(witnessed)</text>
</a>
</g>
</g>
<!-- (event type)&#45;&gt;crm:E55_Type -->
<g id="edge7" class="edge"><title>(event type)&#45;&gt;crm:E55_Type</title>
<path fill="none" stroke="black" d="M169.583,-83.6084C178.407,-72.0805 190.367,-56.4552 200.315,-43.4587"/>
<polygon fill="black" stroke="black" points="203.209,-45.4354 206.508,-35.3672 197.651,-41.1806 203.209,-45.4354"/>
<g id="a_edge7&#45;label"><a xlink:href="http://www.w3.org/1999/02/22-rdf-syntax-ns#type" xlink:title="rdf:type">
<text text-anchor="middle" x="208.536" y="-57" font-family="Arial" font-size="10.00" fill="maroon">rdf:type</text>
</a>
</g>
</g>
<!-- &quot;excavation (process)&quot;@en -->
<g id="node8" class="node"><title>&quot;excavation (process)&quot;@en</title>
<polygon fill="ghostwhite" stroke="gray" points="154.036,-36 20.0364,-36 20.0364,-0 154.036,-0 154.036,-36"/>
<text text-anchor="middle" x="87.0364" y="-15.5" font-family="Arial" font-size="10.00">&quot;excavation (process)&quot;@en</text>
</g>
<!-- (event type)&#45;&gt;&quot;excavation (process)&quot;@en -->
<g id="edge8" class="edge"><title>(event type)&#45;&gt;&quot;excavation (process)&quot;@en</title>
<path fill="none" stroke="black" d="M143.207,-83.997C133.308,-72.5427 119.79,-56.901 108.496,-43.8324"/>
<polygon fill="black" stroke="black" points="110.991,-41.3659 101.804,-36.0883 105.695,-45.943 110.991,-41.3659"/>
<g id="a_edge8&#45;label"><a xlink:href="http://www.w3.org/2000/01/rdf-schema#label" xlink:title="rdfs:label">
<text text-anchor="middle" x="147.036" y="-57" font-family="Arial" font-size="10.00" fill="maroon">rdfs:label</text>
</a>
</g>
</g>
<!-- (reason for investigation)&#45;&gt;crm:E55_Type -->
<g id="edge5" class="edge"><title>(reason for investigation)&#45;&gt;crm:E55_Type</title>
<path fill="none" stroke="black" d="M272.154,-83.2167C262.658,-71.7371 249.916,-56.3322 239.292,-43.4882"/>
<polygon fill="black" stroke="black" points="241.742,-40.9594 232.672,-35.4846 236.349,-45.421 241.742,-40.9594"/>
<g id="a_edge5&#45;label"><a xlink:href="http://www.w3.org/1999/02/22-rdf-syntax-ns#type" xlink:title="rdf:type">
<text text-anchor="middle" x="273.536" y="-57" font-family="Arial" font-size="10.00" fill="maroon">rdf:type</text>
</a>
</g>
</g>
<!-- &quot;planning requirement&quot;@en -->
<g id="node7" class="node"><title>&quot;planning requirement&quot;@en</title>
<polygon fill="ghostwhite" stroke="gray" points="418.036,-36 284.036,-36 284.036,-0 418.036,-0 418.036,-36"/>
<text text-anchor="middle" x="351.036" y="-15.5" font-family="Arial" font-size="10.00">&quot;planning requirement&quot;@en</text>
</g>
<!-- (reason for investigation)&#45;&gt;&quot;planning requirement&quot;@en -->
<g id="edge6" class="edge"><title>(reason for investigation)&#45;&gt;&quot;planning requirement&quot;@en</title>
<path fill="none" stroke="black" d="M299.504,-83.2167C308.594,-71.8891 320.752,-56.7396 330.975,-43.9999"/>
<polygon fill="black" stroke="black" points="333.833,-46.0303 337.362,-36.0404 328.373,-41.6492 333.833,-46.0303"/>
<g id="a_edge6&#45;label"><a xlink:href="http://www.w3.org/2000/01/rdf-schema#label" xlink:title="rdfs:label">
<text text-anchor="middle" x="343.036" y="-57" font-family="Arial" font-size="10.00" fill="maroon">rdfs:label</text>
</a>
</g>
</g>
</g>
</svg>
