<?xml version="1.0" encoding="UTF-8" standalone="no"?>
<!DOCTYPE svg PUBLIC "-//W3C//DTD SVG 1.1//EN"
 "http://www.w3.org/Graphics/SVG/1.1/DTD/svg11.dtd">
<!-- Generated by graphviz version 2.38.0 (20140413.2041)
 -->
<!-- Title: %3 Pages: 1 -->
<svg width="500pt" height="232pt"
 viewBox="0.00 0.00 500.12 232.00" xmlns="http://www.w3.org/2000/svg" xmlns:xlink="http://www.w3.org/1999/xlink">
<g id="graph0" class="graph" transform="scale(1 1) rotate(0) translate(4 228)">
<title>%3</title>
<polygon fill="white" stroke="none" points="-4,4 -4,-228 496.122,-228 496.122,4 -4,4"/>
<!-- (investigation) -->
<g id="node1" class="node"><title>(investigation)</title>
<ellipse fill="none" stroke="gray" stroke-dasharray="5,2" cx="224.263" cy="-206" rx="44.978" ry="18"/>
<text text-anchor="middle" x="224.263" y="-203.5" font-family="Arial" font-size="10.00" fill="blue">(investigation)</text>
</g>
<!-- (site) -->
<g id="node2" class="node"><title>(site)</title>
<ellipse fill="lavender" stroke="gray" cx="224.263" cy="-112" rx="27" ry="18"/>
<text text-anchor="middle" x="224.263" y="-109.5" font-family="Arial" font-size="10.00" fill="blue">(site)</text>
</g>
<!-- (investigation)&#45;&gt;(site) -->
<g id="edge1" class="edge"><title>(investigation)&#45;&gt;(site)</title>
<path fill="none" stroke="black" d="M224.263,-187.696C224.263,-174.46 224.263,-155.947 224.263,-140.663"/>
<polygon fill="black" stroke="black" points="227.763,-140.227 224.263,-130.227 220.763,-140.227 227.763,-140.227"/>
<g id="a_edge1&#45;label"><a xlink:href="http://www.cidoc-crm.org/cidoc-crm/P7_took_place_at" xlink:title="crm:P7_took_place_at\n(witnessed)">
<text text-anchor="middle" x="273.263" y="-162" font-family="Arial" font-size="10.00" fill="maroon">crm:P7_took_place_at</text>
<text text-anchor="middle" x="273.263" y="-151" font-family="Arial" font-size="10.00" fill="maroon">(witnessed)</text>
</a>
</g>
</g>
<!-- (site name) -->
<g id="node3" class="node"><title>(site name)</title>
<ellipse fill="none" stroke="gray" stroke-dasharray="5,2" cx="38.2631" cy="-18" rx="38.0276" ry="18"/>
<text text-anchor="middle" x="38.2631" y="-15.5" font-family="Arial" font-size="10.00" fill="blue">(site name)</text>
</g>
<!-- (site)&#45;&gt;(site name) -->
<g id="edge3" class="edge"><title>(site)&#45;&gt;(site name)</title>
<path fill="none" stroke="black" d="M197.38,-108.682C155.336,-104.531 76.7039,-94.4835 56.2631,-76 47.8051,-68.3519 43.2917,-56.7678 40.8948,-46.0357"/>
<polygon fill="black" stroke="black" points="44.3404,-45.4198 39.1857,-36.1635 37.443,-46.614 44.3404,-45.4198"/>
<g id="a_edge3&#45;label"><a xlink:href="http://www.cidoc-crm.org/cidoc-crm/P1_is_identified_by" xlink:title="crm:P1_is_identified_by\n(identifies)">
<text text-anchor="middle" x="108.263" y="-68" font-family="Arial" font-size="10.00" fill="maroon">crm:P1_is_identified_by</text>
<text text-anchor="middle" x="108.263" y="-57" font-family="Arial" font-size="10.00" fill="maroon">(identifies)</text>
</a>
</g>
</g>
<!-- (site location) -->
<g id="node4" class="node"><title>(site location)</title>
<ellipse fill="none" stroke="gray" stroke-dasharray="5,2" cx="162.263" cy="-18" rx="44.3" ry="18"/>
<text text-anchor="middle" x="162.263" y="-15.5" font-family="Arial" font-size="10.00" fill="blue">(site location)</text>
</g>
<!-- (site)&#45;&gt;(site location) -->
<g id="edge4" class="edge"><title>(site)&#45;&gt;(site location)</title>
<path fill="none" stroke="black" d="M202.38,-101.422C191.643,-95.6049 179.495,-87.134 172.263,-76 166.637,-67.3373 163.917,-56.439 162.676,-46.4981"/>
<polygon fill="black" stroke="black" points="166.141,-45.9218 161.843,-36.2379 159.164,-46.4884 166.141,-45.9218"/>
<g id="a_edge4&#45;label"><a xlink:href="http://www.cidoc-crm.org/cidoc-crm/P89_falls_within" xlink:title="crm:P89_falls_within\n(contains)">
<text text-anchor="middle" x="217.263" y="-68" font-family="Arial" font-size="10.00" fill="maroon">crm:P89_falls_within</text>
<text text-anchor="middle" x="217.263" y="-57" font-family="Arial" font-size="10.00" fill="maroon">(contains)</text>
</a>
</g>
</g>
<!-- &quot;POINT(556600 256500)&quot; -->
<g id="node5" class="node"><title>&quot;POINT(556600 256500)&quot;</title>
<polygon fill="ghostwhite" stroke="gray" points="349.763,-36 224.763,-36 224.763,-0 349.763,-0 349.763,-36"/>
<text text-anchor="middle" x="287.263" y="-15.5" font-family="Arial" font-size="10.00">&quot;POINT(556600 256500)&quot;</text>
</g>
<!-- (site)&#45;&gt;&quot;POINT(556600 256500)&quot; -->
<g id="edge5" class="edge"><title>(site)&#45;&gt;&quot;POINT(556600 256500)&quot;</title>
<path fill="none" stroke="black" d="M241.267,-97.997C248.424,-91.8976 256.427,-84.1764 262.263,-76 268.808,-66.831 274.168,-55.6772 278.223,-45.6756"/>
<polygon fill="black" stroke="black" points="281.553,-46.7654 281.838,-36.1744 275.011,-44.2757 281.553,-46.7654"/>
<g id="a_edge5&#45;label"><a xlink:href="http://www.cidoc-crm.org/cidoc-crm/P168_place_is_defined_by" xlink:title="crm:P168_place_is_defined_by\n(defines place)">
<text text-anchor="middle" x="342.263" y="-68" font-family="Arial" font-size="10.00" fill="maroon">crm:P168_place_is_defined_by</text>
<text text-anchor="middle" x="342.263" y="-57" font-family="Arial" font-size="10.00" fill="maroon">(defines place)</text>
</a>
</g>
</g>
<!-- crm:E53_Place -->
<g id="node6" class="node"><title>crm:E53_Place</title>
<g id="a_node6"><a xlink:href="http://www.cidoc-crm.org/cidoc-crm/E53_Place" xlink:title="crm:E53_Place" target="crm">
<ellipse fill="thistle" stroke="gray" cx="443.263" cy="-18" rx="48.7185" ry="18"/>
<text text-anchor="middle" x="443.263" y="-15.5" font-family="Arial" font-size="10.00" fill="blue">crm:E53_Place</text>
</a>
</g>
</g>
<!-- (site)&#45;&gt;crm:E53_Place -->
<g id="edge2" class="edge"><title>(site)&#45;&gt;crm:E53_Place</title>
<path fill="none" stroke="black" d="M250.909,-108.99C296.921,-105.054 388.794,-95.0086 414.263,-76 424.209,-68.5766 430.999,-56.7684 435.492,-45.82"/>
<polygon fill="black" stroke="black" points="438.877,-46.7516 438.997,-36.1574 432.297,-44.3643 438.877,-46.7516"/>
<g id="a_edge2&#45;label"><a xlink:href="http://www.w3.org/1999/02/22-rdf-syntax-ns#type" xlink:title="rdf:type">
<text text-anchor="middle" x="448.763" y="-62.5" font-family="Arial" font-size="10.00" fill="maroon">rdf:type</text>
</a>
</g>
</g>
</g>
</svg>
