<?xml version="1.0" encoding="UTF-8" standalone="no"?>
<!DOCTYPE svg PUBLIC "-//W3C//DTD SVG 1.1//EN"
 "http://www.w3.org/Graphics/SVG/1.1/DTD/svg11.dtd">
<!-- Generated by graphviz version 2.38.0 (20140413.2041)
 -->
<!-- Title: %3 Pages: 1 -->
<svg width="359pt" height="315pt"
 viewBox="0.00 0.00 358.65 315.00" xmlns="http://www.w3.org/2000/svg" xmlns:xlink="http://www.w3.org/1999/xlink">
<g id="graph0" class="graph" transform="scale(1 1) rotate(0) translate(4 311)">
<title>%3</title>
<polygon fill="white" stroke="none" points="-4,4 -4,-311 354.65,-311 354.65,4 -4,4"/>
<!-- (organization) -->
<g id="node1" class="node"><title>(organization)</title>
<ellipse fill="none" stroke="gray" stroke-dasharray="5,2" cx="44.1497" cy="-289" rx="44.3" ry="18"/>
<text text-anchor="middle" x="44.1497" y="-286.5" font-family="Arial" font-size="10.00" fill="blue">(organization)</text>
</g>
<!-- (person) -->
<g id="node4" class="node"><title>(person)</title>
<ellipse fill="lavender" stroke="gray" cx="148.15" cy="-195" rx="30.7213" ry="18"/>
<text text-anchor="middle" x="148.15" y="-192.5" font-family="Arial" font-size="10.00" fill="blue">(person)</text>
</g>
<!-- (organization)&#45;&gt;(person) -->
<g id="edge2" class="edge"><title>(organization)&#45;&gt;(person)</title>
<path fill="none" stroke="black" d="M37.981,-270.935C34.7164,-258.684 32.8899,-242.392 41.1497,-231 56.2403,-210.187 84.0715,-201.521 107.567,-198.015"/>
<polygon fill="black" stroke="black" points="108.159,-201.469 117.657,-196.775 107.305,-194.521 108.159,-201.469"/>
<g id="a_edge2&#45;label"><a xlink:href="http://www.cidoc-crm.org/cidoc-crm/P107_has_current_or_former_member" xlink:title="crm:P107_has_current_or_former_member\n(is current or former member of)">
<text text-anchor="middle" x="133.65" y="-245" font-family="Arial" font-size="10.00" fill="maroon">crm:P107_has_current_or_former_member</text>
<text text-anchor="middle" x="133.65" y="-234" font-family="Arial" font-size="10.00" fill="maroon">(is current or former member of)</text>
</a>
</g>
</g>
<!-- (project activities) -->
<g id="node2" class="node"><title>(project activities)</title>
<ellipse fill="none" stroke="gray" stroke-dasharray="5,2" cx="252.15" cy="-289" rx="54.3144" ry="18"/>
<text text-anchor="middle" x="252.15" y="-286.5" font-family="Arial" font-size="10.00" fill="blue">(project activities)</text>
</g>
<!-- (project activities)&#45;&gt;(person) -->
<g id="edge1" class="edge"><title>(project activities)&#45;&gt;(person)</title>
<path fill="none" stroke="black" d="M249.233,-270.865C246.316,-258.419 240.686,-241.912 230.15,-231 218.331,-218.76 201.544,-210.578 186.234,-205.226"/>
<polygon fill="black" stroke="black" points="187.044,-201.811 176.453,-202.104 184.915,-208.48 187.044,-201.811"/>
<g id="a_edge1&#45;label"><a xlink:href="http://www.cidoc-crm.org/cidoc-crm/P14_carried_out_by" xlink:title="crm:P14_carried_out_by\n(performed)">
<text text-anchor="middle" x="297.15" y="-245" font-family="Arial" font-size="10.00" fill="maroon">crm:P14_carried_out_by</text>
<text text-anchor="middle" x="297.15" y="-234" font-family="Arial" font-size="10.00" fill="maroon">(performed)</text>
</a>
</g>
</g>
<!-- crm:E21_Person -->
<g id="node3" class="node"><title>crm:E21_Person</title>
<g id="a_node3"><a xlink:href="http://www.cidoc-crm.org/cidoc-crm/E21_Person" xlink:title="crm:E21_Person">
<ellipse fill="thistle" stroke="gray" cx="120.15" cy="-101" rx="52.2822" ry="18"/>
<text text-anchor="middle" x="120.15" y="-98.5" font-family="Arial" font-size="10.00" fill="blue">crm:E21_Person</text>
</a>
</g>
</g>
<!-- (person)&#45;&gt;crm:E21_Person -->
<g id="edge3" class="edge"><title>(person)&#45;&gt;crm:E21_Person</title>
<path fill="none" stroke="black" d="M143.014,-177.126C138.896,-163.594 133.039,-144.35 128.284,-128.726"/>
<polygon fill="black" stroke="black" points="131.608,-127.626 125.348,-119.079 124.911,-129.665 131.608,-127.626"/>
<g id="a_edge3&#45;label"><a xlink:href="http://www.w3.org/1999/02/22-rdf-syntax-ns#type" xlink:title="rdf:type">
<text text-anchor="middle" x="154.65" y="-145.5" font-family="Arial" font-size="10.00" fill="maroon">rdf:type</text>
</a>
</g>
</g>
<!-- (person name) -->
<g id="node5" class="node"><title>(person name)</title>
<ellipse fill="ghostwhite" stroke="gray" cx="237.15" cy="-101" rx="46.5087" ry="18"/>
<text text-anchor="middle" x="237.15" y="-98.5" font-family="Arial" font-size="10.00" fill="blue">(person name)</text>
</g>
<!-- (person)&#45;&gt;(person name) -->
<g id="edge4" class="edge"><title>(person)&#45;&gt;(person name)</title>
<path fill="none" stroke="black" d="M162.846,-178.808C176.89,-164.291 198.262,-142.199 214.485,-125.428"/>
<polygon fill="black" stroke="black" points="217.095,-127.764 221.533,-118.144 212.064,-122.897 217.095,-127.764"/>
<g id="a_edge4&#45;label"><a xlink:href="http://www.cidoc-crm.org/cidoc-crm/P1_is_identified_by" xlink:title="crm:P1_is_identified_by\n(identifies)">
<text text-anchor="middle" x="256.15" y="-151" font-family="Arial" font-size="10.00" fill="maroon">crm:P1_is_identified_by</text>
<text text-anchor="middle" x="256.15" y="-140" font-family="Arial" font-size="10.00" fill="maroon">(identifies)</text>
</a>
</g>
</g>
<!-- crm:E41_Appellation -->
<g id="node6" class="node"><title>crm:E41_Appellation</title>
<g id="a_node6"><a xlink:href="http://www.cidoc-crm.org/cidoc-crm/E41_Appellation" xlink:title="crm:E41_Appellation">
<ellipse fill="thistle" stroke="gray" cx="173.15" cy="-18" rx="62.9739" ry="18"/>
<text text-anchor="middle" x="173.15" y="-15.5" font-family="Arial" font-size="10.00" fill="blue">crm:E41_Appellation</text>
</a>
</g>
</g>
<!-- (person name)&#45;&gt;crm:E41_Appellation -->
<g id="edge5" class="edge"><title>(person name)&#45;&gt;crm:E41_Appellation</title>
<path fill="none" stroke="black" d="M224.198,-83.6084C215.15,-72.1563 202.906,-56.6606 192.678,-43.7155"/>
<polygon fill="black" stroke="black" points="195.247,-41.3217 186.301,-35.6452 189.755,-45.6614 195.247,-41.3217"/>
<g id="a_edge5&#45;label"><a xlink:href="http://www.w3.org/1999/02/22-rdf-syntax-ns#type" xlink:title="rdf:type">
<text text-anchor="middle" x="225.65" y="-57" font-family="Arial" font-size="10.00" fill="maroon">rdf:type</text>
</a>
</g>
</g>
<!-- &quot;Fred Bloggs&quot;@en -->
<g id="node7" class="node"><title>&quot;Fred Bloggs&quot;@en</title>
<polygon fill="ghostwhite" stroke="gray" points="350.65,-36 253.65,-36 253.65,-0 350.65,-0 350.65,-36"/>
<text text-anchor="middle" x="302.15" y="-15.5" font-family="Arial" font-size="10.00">&quot;Fred Bloggs&quot;@en</text>
</g>
<!-- (person name)&#45;&gt;&quot;Fred Bloggs&quot;@en -->
<g id="edge6" class="edge"><title>(person name)&#45;&gt;&quot;Fred Bloggs&quot;@en</title>
<path fill="none" stroke="black" d="M250.303,-83.6084C259.372,-72.308 271.599,-57.0704 281.902,-44.2312"/>
<polygon fill="black" stroke="black" points="284.814,-46.1957 288.343,-36.2059 279.354,-41.8146 284.814,-46.1957"/>
<g id="a_edge6&#45;label"><a xlink:href="http://www.w3.org/2000/01/rdf-schema#label" xlink:title="rdfs:label">
<text text-anchor="middle" x="294.15" y="-57" font-family="Arial" font-size="10.00" fill="maroon">rdfs:label</text>
</a>
</g>
</g>
</g>
</svg>
