<?xml version="1.0" encoding="UTF-8" standalone="no"?>
<!DOCTYPE svg PUBLIC "-//W3C//DTD SVG 1.1//EN"
 "http://www.w3.org/Graphics/SVG/1.1/DTD/svg11.dtd">
<!-- Generated by graphviz version 2.38.0 (20140413.2041)
 -->
<!-- Title: %3 Pages: 1 -->
<svg width="379pt" height="304pt"
 viewBox="0.00 0.00 379.42 304.00" xmlns="http://www.w3.org/2000/svg" xmlns:xlink="http://www.w3.org/1999/xlink">
<g id="graph0" class="graph" transform="scale(1 1) rotate(0) translate(4 300)">
<title>%3</title>
<polygon fill="white" stroke="none" points="-4,4 -4,-300 375.423,-300 375.423,4 -4,4"/>
<!-- crm:E42_Identifier -->
<g id="node1" class="node"><title>crm:E42_Identifier</title>
<g id="a_node1"><a xlink:href="http://www.cidoc-crm.org/cidoc-crm/E42_Identifier" xlink:title="crm:E42_Identifier" target="crm">
<ellipse fill="thistle" stroke="gray" cx="55.923" cy="-101" rx="55.8461" ry="18"/>
<text text-anchor="middle" x="55.923" y="-98.5" font-family="Arial" font-size="10.00" fill="blue">crm:E42_Identifier</text>
</a>
</g>
</g>
<!-- crm:E55_Type -->
<g id="node2" class="node"><title>crm:E55_Type</title>
<g id="a_node2"><a xlink:href="http://www.cidoc-crm.org/cidoc-crm/E55_Type" xlink:title="crm:E55_Type" target="crm">
<ellipse fill="thistle" stroke="gray" cx="244.923" cy="-18" rx="47.1863" ry="18"/>
<text text-anchor="middle" x="244.923" y="-15.5" font-family="Arial" font-size="10.00" fill="blue">crm:E55_Type</text>
</a>
</g>
</g>
<!-- (report) -->
<g id="node3" class="node"><title>(report)</title>
<ellipse fill="none" stroke="gray" stroke-dasharray="5,2" cx="178.923" cy="-278" rx="27.8353" ry="18"/>
<text text-anchor="middle" x="178.923" y="-275.5" font-family="Arial" font-size="10.00" fill="blue">(report)</text>
</g>
<!-- (identifier) -->
<g id="node4" class="node"><title>(identifier)</title>
<ellipse fill="lavender" stroke="gray" cx="178.923" cy="-184" rx="34.9638" ry="18"/>
<text text-anchor="middle" x="178.923" y="-181.5" font-family="Arial" font-size="10.00" fill="blue">(identifier)</text>
</g>
<!-- (report)&#45;&gt;(identifier) -->
<g id="edge1" class="edge"><title>(report)&#45;&gt;(identifier)</title>
<path fill="none" stroke="black" d="M178.923,-259.696C178.923,-246.46 178.923,-227.947 178.923,-212.663"/>
<polygon fill="black" stroke="black" points="182.423,-212.227 178.923,-202.227 175.423,-212.227 182.423,-212.227"/>
<g id="a_edge1&#45;label"><a xlink:href="http://www.cidoc-crm.org/cidoc-crm/P1_is_identified_by" xlink:title="crm:P1_is_identified_by\n(identifies)">
<text text-anchor="middle" x="230.923" y="-234" font-family="Arial" font-size="10.00" fill="maroon">crm:P1_is_identified_by</text>
<text text-anchor="middle" x="230.923" y="-223" font-family="Arial" font-size="10.00" fill="maroon">(identifies)</text>
</a>
</g>
</g>
<!-- (identifier)&#45;&gt;crm:E42_Identifier -->
<g id="edge2" class="edge"><title>(identifier)&#45;&gt;crm:E42_Identifier</title>
<path fill="none" stroke="black" d="M158.336,-169.442C139.136,-156.799 110.202,-137.745 87.9799,-123.111"/>
<polygon fill="black" stroke="black" points="89.8005,-120.119 79.5238,-117.542 85.9505,-125.965 89.8005,-120.119"/>
<g id="a_edge2&#45;label"><a xlink:href="http://www.w3.org/1999/02/22-rdf-syntax-ns#type" xlink:title="rdf:type">
<text text-anchor="middle" x="141.423" y="-140" font-family="Arial" font-size="10.00" fill="maroon">rdf:type</text>
</a>
</g>
</g>
<!-- &quot;10.5284/1018054&quot; -->
<g id="node6" class="node"><title>&quot;10.5284/1018054&quot;</title>
<polygon fill="ghostwhite" stroke="gray" points="227.923,-119 129.923,-119 129.923,-83 227.923,-83 227.923,-119"/>
<text text-anchor="middle" x="178.923" y="-98.5" font-family="Arial" font-size="10.00">&quot;10.5284/1018054&quot;</text>
</g>
<!-- (identifier)&#45;&gt;&quot;10.5284/1018054&quot; -->
<g id="edge3" class="edge"><title>(identifier)&#45;&gt;&quot;10.5284/1018054&quot;</title>
<path fill="none" stroke="black" d="M178.923,-165.822C178.923,-155.19 178.923,-141.306 178.923,-129.204"/>
<polygon fill="black" stroke="black" points="182.423,-129.153 178.923,-119.153 175.423,-129.153 182.423,-129.153"/>
<g id="a_edge3&#45;label"><a xlink:href="http://www.w3.org/2000/01/rdf-schema#label" xlink:title="rdfs:label">
<text text-anchor="middle" x="198.923" y="-140" font-family="Arial" font-size="10.00" fill="maroon">rdfs:label</text>
</a>
</g>
</g>
<!-- (identifier type) -->
<g id="node7" class="node"><title>(identifier type)</title>
<ellipse fill="ghostwhite" stroke="gray" cx="292.923" cy="-101" rx="47.1863" ry="18"/>
<text text-anchor="middle" x="292.923" y="-98.5" font-family="Arial" font-size="10.00" fill="blue">(identifier type)</text>
</g>
<!-- (identifier)&#45;&gt;(identifier type) -->
<g id="edge4" class="edge"><title>(identifier)&#45;&gt;(identifier type)</title>
<path fill="none" stroke="black" d="M198.52,-169.076C216.345,-156.41 242.907,-137.537 263.319,-123.034"/>
<polygon fill="black" stroke="black" points="265.523,-125.762 271.648,-117.117 261.469,-120.056 265.523,-125.762"/>
<g id="a_edge4&#45;label"><a xlink:href="crm:P2_has_type\n(is type of)" xlink:title="crm:P2_has_type">
<text text-anchor="middle" x="281.423" y="-140" font-family="Arial" font-size="10.00" fill="maroon">crm:P2_has_type</text>
</a>
</g>
</g>
<!-- &quot;DOI&quot;@en -->
<g id="node5" class="node"><title>&quot;DOI&quot;@en</title>
<polygon fill="ghostwhite" stroke="gray" points="371.423,-36 310.423,-36 310.423,-0 371.423,-0 371.423,-36"/>
<text text-anchor="middle" x="340.923" y="-15.5" font-family="Arial" font-size="10.00">&quot;DOI&quot;@en</text>
</g>
<!-- (identifier type)&#45;&gt;crm:E55_Type -->
<g id="edge5" class="edge"><title>(identifier type)&#45;&gt;crm:E55_Type</title>
<path fill="none" stroke="black" d="M282.977,-83.2167C276.348,-72.0303 267.511,-57.1166 260.021,-44.4773"/>
<polygon fill="black" stroke="black" points="262.965,-42.5804 254.856,-35.7618 256.943,-46.149 262.965,-42.5804"/>
<g id="a_edge5&#45;label"><a xlink:href="http://www.w3.org/1999/02/22-rdf-syntax-ns#type" xlink:title="rdf:type">
<text text-anchor="middle" x="288.423" y="-57" font-family="Arial" font-size="10.00" fill="maroon">rdf:type</text>
</a>
</g>
</g>
<!-- (identifier type)&#45;&gt;&quot;DOI&quot;@en -->
<g id="edge6" class="edge"><title>(identifier type)&#45;&gt;&quot;DOI&quot;@en</title>
<path fill="none" stroke="black" d="M302.869,-83.2167C309.453,-72.1049 318.218,-57.3153 325.675,-44.7304"/>
<polygon fill="black" stroke="black" points="328.738,-46.4277 330.825,-36.0404 322.716,-42.859 328.738,-46.4277"/>
<g id="a_edge6&#45;label"><a xlink:href="http://www.w3.org/2000/01/rdf-schema#label" xlink:title="rdfs:label">
<text text-anchor="middle" x="339.923" y="-57" font-family="Arial" font-size="10.00" fill="maroon">rdfs:label</text>
</a>
</g>
</g>
</g>
</svg>
