<?xml version="1.0" encoding="UTF-8" standalone="no"?>
<!DOCTYPE svg PUBLIC "-//W3C//DTD SVG 1.1//EN"
 "http://www.w3.org/Graphics/SVG/1.1/DTD/svg11.dtd">
<!-- Generated by graphviz version 2.38.0 (20140413.2041)
 -->
<!-- Title: %3 Pages: 1 -->
<svg width="288pt" height="221pt"
 viewBox="0.00 0.00 288.49 221.00" xmlns="http://www.w3.org/2000/svg" xmlns:xlink="http://www.w3.org/1999/xlink">
<g id="graph0" class="graph" transform="scale(1 1) rotate(0) translate(4 217)">
<title>%3</title>
<polygon fill="white" stroke="none" points="-4,4 -4,-217 284.487,-217 284.487,4 -4,4"/>
<!-- (organization) -->
<g id="node1" class="node"><title>(organization)</title>
<ellipse fill="none" stroke="gray" stroke-dasharray="5,2" cx="136.987" cy="-195" rx="44.3" ry="18"/>
<text text-anchor="middle" x="136.987" y="-192.5" font-family="Arial" font-size="10.00" fill="blue">(organization)</text>
</g>
<!-- (organization name) -->
<g id="node2" class="node"><title>(organization name)</title>
<ellipse fill="lavender" stroke="gray" cx="136.987" cy="-101" rx="60.0873" ry="18"/>
<text text-anchor="middle" x="136.987" y="-98.5" font-family="Arial" font-size="10.00" fill="blue">(organization name)</text>
</g>
<!-- (organization)&#45;&gt;(organization name) -->
<g id="edge1" class="edge"><title>(organization)&#45;&gt;(organization name)</title>
<path fill="none" stroke="black" d="M136.987,-176.696C136.987,-163.46 136.987,-144.947 136.987,-129.663"/>
<polygon fill="black" stroke="black" points="140.487,-129.227 136.987,-119.227 133.487,-129.227 140.487,-129.227"/>
<g id="a_edge1&#45;label"><a xlink:href="http://www.cidoc-crm.org/cidoc-crm/P1_is_identified_by" xlink:title="crm:P1_is_identified_by\n(identifies)">
<text text-anchor="middle" x="188.987" y="-151" font-family="Arial" font-size="10.00" fill="maroon">crm:P1_is_identified_by</text>
<text text-anchor="middle" x="188.987" y="-140" font-family="Arial" font-size="10.00" fill="maroon">(identifies)</text>
</a>
</g>
</g>
<!-- crm:E41_Appellation -->
<g id="node3" class="node"><title>crm:E41_Appellation</title>
<g id="a_node3"><a xlink:href="http://www.cidoc-crm.org/cidoc-crm/E41_Appellation" xlink:title="crm:E41_Appellation">
<ellipse fill="thistle" stroke="gray" cx="62.9869" cy="-18" rx="62.9739" ry="18"/>
<text text-anchor="middle" x="62.9869" y="-15.5" font-family="Arial" font-size="10.00" fill="blue">crm:E41_Appellation</text>
</a>
</g>
</g>
<!-- (organization name)&#45;&gt;crm:E41_Appellation -->
<g id="edge2" class="edge"><title>(organization name)&#45;&gt;crm:E41_Appellation</title>
<path fill="none" stroke="black" d="M121.654,-83.2167C111.067,-71.6277 96.8245,-56.0384 85.0242,-43.1219"/>
<polygon fill="black" stroke="black" points="87.3759,-40.5068 78.0469,-35.4846 82.2078,-45.2282 87.3759,-40.5068"/>
<g id="a_edge2&#45;label"><a xlink:href="http://www.w3.org/1999/02/22-rdf-syntax-ns#type" xlink:title="rdf:type">
<text text-anchor="middle" x="121.487" y="-57" font-family="Arial" font-size="10.00" fill="maroon">rdf:type</text>
</a>
</g>
</g>
<!-- &quot;Wessex Archaeology&quot;@en -->
<g id="node4" class="node"><title>&quot;Wessex Archaeology&quot;@en</title>
<polygon fill="ghostwhite" stroke="gray" points="280.487,-36 143.487,-36 143.487,-0 280.487,-0 280.487,-36"/>
<text text-anchor="middle" x="211.987" y="-15.5" font-family="Arial" font-size="10.00">&quot;Wessex Archaeology&quot;@en</text>
</g>
<!-- (organization name)&#45;&gt;&quot;Wessex Archaeology&quot;@en -->
<g id="edge3" class="edge"><title>(organization name)&#45;&gt;&quot;Wessex Archaeology&quot;@en</title>
<path fill="none" stroke="black" d="M152.527,-83.2167C163.115,-71.7812 177.31,-56.4507 189.175,-43.6365"/>
<polygon fill="black" stroke="black" points="191.983,-45.756 196.209,-36.0404 186.846,-41.0001 191.983,-45.756"/>
<g id="a_edge3&#45;label"><a xlink:href="http://www.w3.org/2000/01/rdf-schema#label" xlink:title="rdfs:label">
<text text-anchor="middle" x="197.987" y="-57" font-family="Arial" font-size="10.00" fill="maroon">rdfs:label</text>
</a>
</g>
</g>
</g>
</svg>
