<?xml version="1.0" encoding="UTF-8" standalone="no"?>
<!DOCTYPE svg PUBLIC "-//W3C//DTD SVG 1.1//EN"
 "http://www.w3.org/Graphics/SVG/1.1/DTD/svg11.dtd">
<!-- Generated by graphviz version 2.38.0 (20140413.2041)
 -->
<!-- Title: %3 Pages: 1 -->
<svg width="412pt" height="337pt"
 viewBox="0.00 0.00 411.86 336.98" xmlns="http://www.w3.org/2000/svg" xmlns:xlink="http://www.w3.org/1999/xlink">
<g id="graph0" class="graph" transform="scale(1 1) rotate(0) translate(4 332.983)">
<title>%3</title>
<polygon fill="white" stroke="none" points="-4,4 -4,-332.983 407.859,-332.983 407.859,4 -4,4"/>
<!-- crm:E41_Appellation -->
<g id="node1" class="node"><title>crm:E41_Appellation</title>
<g id="a_node1"><a xlink:href="http://www.cidoc-crm.org/cidoc-crm/E41_Appellation" xlink:title="crm:E41_Appellation" target="crm">
<ellipse fill="thistle" stroke="gray" cx="96.859" cy="-18" rx="62.9739" ry="18"/>
<text text-anchor="middle" x="96.859" y="-15.5" font-family="Arial" font-size="10.00" fill="blue">crm:E41_Appellation</text>
</a>
</g>
</g>
<!-- crm:E53_Place -->
<g id="node2" class="node"><title>crm:E53_Place</title>
<g id="a_node2"><a xlink:href="http://www.cidoc-crm.org/cidoc-crm/E53_Place" xlink:title="crm:E53_Place" target="crm">
<ellipse fill="thistle" stroke="gray" cx="48.859" cy="-111.991" rx="48.7185" ry="18"/>
<text text-anchor="middle" x="48.859" y="-109.491" font-family="Arial" font-size="10.00" fill="blue">crm:E53_Place</text>
</a>
</g>
</g>
<!-- (site) -->
<g id="node3" class="node"><title>(site)</title>
<ellipse fill="none" stroke="gray" stroke-dasharray="5,2" cx="220.859" cy="-310.983" rx="27" ry="18"/>
<text text-anchor="middle" x="220.859" y="-308.483" font-family="Arial" font-size="10.00" fill="blue">(site)</text>
</g>
<!-- (location) -->
<g id="node4" class="node"><title>(location)</title>
<ellipse fill="lavender" stroke="gray" cx="164.859" cy="-216.983" rx="32.9303" ry="18"/>
<text text-anchor="middle" x="164.859" y="-214.483" font-family="Arial" font-size="10.00" fill="blue">(location)</text>
</g>
<!-- (site)&#45;&gt;(location) -->
<g id="edge5" class="edge"><title>(site)&#45;&gt;(location)</title>
<path fill="none" stroke="black" d="M197.826,-301.563C186.051,-295.958 172.775,-287.324 165.859,-274.983 160.884,-266.106 159.744,-255.166 160.161,-245.251"/>
<polygon fill="black" stroke="black" points="163.669,-245.324 161.116,-235.041 156.7,-244.671 163.669,-245.324"/>
<g id="a_edge5&#45;label"><a xlink:href="http://www.cidoc-crm.org/cidoc-crm/P89_falls_within" xlink:title="crm:P89_falls_within\n(contains)">
<text text-anchor="middle" x="210.859" y="-266.983" font-family="Arial" font-size="10.00" fill="maroon">crm:P89_falls_within</text>
<text text-anchor="middle" x="210.859" y="-255.983" font-family="Arial" font-size="10.00" fill="maroon">(contains)</text>
</a>
</g>
</g>
<!-- &quot;POINT(556600 256500)&quot; -->
<g id="node6" class="node"><title>&quot;POINT(556600 256500)&quot;</title>
<polygon fill="ghostwhite" stroke="gray" points="340.359,-234.983 215.359,-234.983 215.359,-198.983 340.359,-198.983 340.359,-234.983"/>
<text text-anchor="middle" x="277.859" y="-214.483" font-family="Arial" font-size="10.00">&quot;POINT(556600 256500)&quot;</text>
</g>
<!-- (site)&#45;&gt;&quot;POINT(556600 256500)&quot; -->
<g id="edge6" class="edge"><title>(site)&#45;&gt;&quot;POINT(556600 256500)&quot;</title>
<path fill="none" stroke="black" d="M236.995,-296.547C243.516,-290.482 250.703,-282.906 255.859,-274.983 261.827,-265.811 266.558,-254.774 270.08,-244.866"/>
<polygon fill="black" stroke="black" points="273.501,-245.667 273.313,-235.074 266.854,-243.472 273.501,-245.667"/>
<g id="a_edge6&#45;label"><a xlink:href="http://www.cidoc-crm.org/cidoc-crm/P168_place_is_defined_by" xlink:title="crm:P168_place_is_defined_by\n(defines place)">
<text text-anchor="middle" x="335.859" y="-266.983" font-family="Arial" font-size="10.00" fill="maroon">crm:P168_place_is_defined_by</text>
<text text-anchor="middle" x="335.859" y="-255.983" font-family="Arial" font-size="10.00" fill="maroon">(defines place)</text>
</a>
</g>
</g>
<!-- (location)&#45;&gt;crm:E53_Place -->
<g id="edge1" class="edge"><title>(location)&#45;&gt;crm:E53_Place</title>
<path fill="none" stroke="black" d="M148.239,-201.227C128.962,-184.111 96.9584,-155.697 74.4895,-135.748"/>
<polygon fill="black" stroke="black" points="76.7778,-133.099 66.9761,-129.077 72.1302,-138.333 76.7778,-133.099"/>
<g id="a_edge1&#45;label"><a xlink:href="http://www.w3.org/1999/02/22-rdf-syntax-ns#type" xlink:title="rdf:type">
<text text-anchor="middle" x="141.359" y="-167.483" font-family="Arial" font-size="10.00" fill="maroon">rdf:type</text>
</a>
</g>
</g>
<!-- (location name) -->
<g id="node5" class="node"><title>(location name)</title>
<ellipse fill="lavender" stroke="gray" cx="164.859" cy="-111.991" rx="48.7185" ry="18"/>
<text text-anchor="middle" x="164.859" y="-109.491" font-family="Arial" font-size="10.00" fill="blue">(location name)</text>
</g>
<!-- (location)&#45;&gt;(location name) -->
<g id="edge3" class="edge"><title>(location)&#45;&gt;(location name)</title>
<path fill="none" stroke="black" d="M164.859,-198.976C164.859,-183.024 164.859,-158.9 164.859,-140.261"/>
<polygon fill="black" stroke="black" points="168.359,-140.024 164.859,-130.024 161.359,-140.024 168.359,-140.024"/>
<g id="a_edge3&#45;label"><a xlink:href="http://www.cidoc-crm.org/cidoc-crm/P87_is_identified_by" xlink:title="crm:87_is_identified_by\n(identifies)">
<text text-anchor="middle" x="216.359" y="-172.983" font-family="Arial" font-size="10.00" fill="maroon">crm:87_is_identified_by</text>
<text text-anchor="middle" x="216.359" y="-161.983" font-family="Arial" font-size="10.00" fill="maroon">(identifies)</text>
</a>
</g>
</g>
<!-- osont:Parish\nosont:District\nosont:EuropeanRegion -->
<g id="node8" class="node"><title>osont:Parish\nosont:District\nosont:EuropeanRegion</title>
<ellipse fill="ghostwhite" stroke="gray" cx="312.859" cy="-111.991" rx="81.135" ry="28.9828"/>
<text text-anchor="middle" x="312.859" y="-120.491" font-family="Arial" font-size="10.00" fill="blue">osont:Parish</text>
<text text-anchor="middle" x="312.859" y="-109.491" font-family="Arial" font-size="10.00" fill="blue">osont:District</text>
<text text-anchor="middle" x="312.859" y="-98.4914" font-family="Arial" font-size="10.00" fill="blue">osont:EuropeanRegion</text>
</g>
<!-- (location)&#45;&gt;osont:Parish\nosont:District\nosont:EuropeanRegion -->
<g id="edge7" class="edge"><title>(location)&#45;&gt;osont:Parish\nosont:District\nosont:EuropeanRegion</title>
<path fill="none" stroke="black" d="M189.818,-205.044C195.07,-202.909 200.61,-200.779 205.859,-198.983 234.627,-189.14 247.603,-199.316 271.859,-180.983 282.445,-172.982 290.867,-161.384 297.256,-150.026"/>
<polygon fill="black" stroke="black" points="300.421,-151.526 301.946,-141.041 294.216,-148.286 300.421,-151.526"/>
<g id="a_edge7&#45;label"><a xlink:href="http://www.cidoc-crm.org/cidoc-crm/P2_has_type" xlink:title="crm:P2_has_type\n(is type of)">
<text text-anchor="middle" x="331.359" y="-172.983" font-family="Arial" font-size="10.00" fill="maroon">crm:P2_has_type</text>
<text text-anchor="middle" x="331.359" y="-161.983" font-family="Arial" font-size="10.00" fill="maroon">(is type of)</text>
</a>
</g>
</g>
<!-- (location name)&#45;&gt;crm:E41_Appellation -->
<g id="edge2" class="edge"><title>(location name)&#45;&gt;crm:E41_Appellation</title>
<path fill="none" stroke="black" d="M152.702,-94.5452C142.388,-80.5917 127.422,-60.3463 115.58,-44.3253"/>
<polygon fill="black" stroke="black" points="118.13,-41.8872 109.371,-35.9262 112.501,-46.0482 118.13,-41.8872"/>
<g id="a_edge2&#45;label"><a xlink:href="http://www.w3.org/1999/02/22-rdf-syntax-ns#type" xlink:title="rdf:type">
<text text-anchor="middle" x="147.359" y="-57" font-family="Arial" font-size="10.00" fill="maroon">rdf:type</text>
</a>
</g>
</g>
<!-- &quot;Cambridgeshire&quot;@en -->
<g id="node7" class="node"><title>&quot;Cambridgeshire&quot;@en</title>
<polygon fill="ghostwhite" stroke="gray" points="289.859,-36 177.859,-36 177.859,-0 289.859,-0 289.859,-36"/>
<text text-anchor="middle" x="233.859" y="-15.5" font-family="Arial" font-size="10.00">&quot;Cambridgeshire&quot;@en</text>
</g>
<!-- (location name)&#45;&gt;&quot;Cambridgeshire&quot;@en -->
<g id="edge4" class="edge"><title>(location name)&#45;&gt;&quot;Cambridgeshire&quot;@en</title>
<path fill="none" stroke="black" d="M177.195,-94.5452C187.596,-80.6789 202.657,-60.5991 214.638,-44.6262"/>
<polygon fill="black" stroke="black" points="217.727,-46.3403 220.927,-36.2405 212.127,-42.1401 217.727,-46.3403"/>
<g id="a_edge4&#45;label"><a xlink:href="http://www.w3.org/2000/01/rdf-schema#label" xlink:title="rdfs:label">
<text text-anchor="middle" x="227.859" y="-57" font-family="Arial" font-size="10.00" fill="maroon">rdfs:label</text>
</a>
</g>
</g>
</g>
</svg>
