<?xml version="1.0" encoding="UTF-8" standalone="no"?>
<!DOCTYPE svg PUBLIC "-//W3C//DTD SVG 1.1//EN"
 "http://www.w3.org/Graphics/SVG/1.1/DTD/svg11.dtd">
<!-- Generated by graphviz version 2.38.0 (20140413.2041)
 -->
<!-- Title: %3 Pages: 1 -->
<svg width="600pt" height="315pt"
 viewBox="0.00 0.00 600.09 315.00" xmlns="http://www.w3.org/2000/svg" xmlns:xlink="http://www.w3.org/1999/xlink">
<g id="graph0" class="graph" transform="scale(1 1) rotate(0) translate(4 311)">
<title>%3</title>
<polygon fill="white" stroke="none" points="-4,4 -4,-311 596.093,-311 596.093,4 -4,4"/>
<!-- aat:300026685 -->
<g id="node1" class="node"><title>aat:300026685</title>
<g id="a_node1"><a xlink:href="http://vocab.getty.edu/aat/300026685" xlink:title="aat:300026685" target="aat">
<ellipse fill="ghostwhite" stroke="gray" cx="141.093" cy="-101" rx="47.1863" ry="18"/>
<text text-anchor="middle" x="141.093" y="-98.5" font-family="Arial" font-size="10.00" fill="blue">aat:300026685</text>
</a>
</g>
</g>
<!-- crm:E55_Type -->
<g id="node4" class="node"><title>crm:E55_Type</title>
<g id="a_node4"><a xlink:href="http://www.cidoc-crm.org/cidoc-crm/E55_Type" xlink:title="crm:E55_Type" target="crm">
<ellipse fill="thistle" stroke="gray" cx="47.093" cy="-18" rx="47.1863" ry="18"/>
<text text-anchor="middle" x="47.093" y="-15.5" font-family="Arial" font-size="10.00" fill="blue">crm:E55_Type</text>
</a>
</g>
</g>
<!-- aat:300026685&#45;&gt;crm:E55_Type -->
<g id="edge3" class="edge"><title>aat:300026685&#45;&gt;crm:E55_Type</title>
<path fill="none" stroke="black" d="M122.969,-84.3824C108.885,-72.2465 89.1539,-55.2439 73.3426,-41.6193"/>
<polygon fill="black" stroke="black" points="75.3425,-38.7225 65.4823,-34.846 70.773,-44.0253 75.3425,-38.7225"/>
<g id="a_edge3&#45;label"><a xlink:href="http://www.w3.org/1999/02/22-rdf-syntax-ns#type" xlink:title="rdf:type">
<text text-anchor="middle" x="116.593" y="-57" font-family="Arial" font-size="10.00" fill="maroon">rdf:type</text>
</a>
</g>
</g>
<!-- &quot;records (documents)&quot;@en -->
<g id="node5" class="node"><title>&quot;records (documents)&quot;@en</title>
<polygon fill="ghostwhite" stroke="gray" points="246.093,-36 112.093,-36 112.093,-0 246.093,-0 246.093,-36"/>
<text text-anchor="middle" x="179.093" y="-15.5" font-family="Arial" font-size="10.00">&quot;records (documents)&quot;@en</text>
</g>
<!-- aat:300026685&#45;&gt;&quot;records (documents)&quot;@en -->
<g id="edge4" class="edge"><title>aat:300026685&#45;&gt;&quot;records (documents)&quot;@en</title>
<path fill="none" stroke="black" d="M148.967,-83.2167C154.129,-72.2128 160.983,-57.6021 166.85,-45.0976"/>
<polygon fill="black" stroke="black" points="170.02,-46.5802 171.099,-36.0404 163.683,-43.6071 170.02,-46.5802"/>
<g id="a_edge4&#45;label"><a xlink:href="http://www.w3.org/2000/01/rdf-schema#label" xlink:title="rdfs:label">
<text text-anchor="middle" x="183.093" y="-57" font-family="Arial" font-size="10.00" fill="maroon">rdfs:label</text>
</a>
</g>
</g>
<!-- crm:E42_Identifier -->
<g id="node2" class="node"><title>crm:E42_Identifier</title>
<g id="a_node2"><a xlink:href="http://www.cidoc-crm.org/cidoc-crm/E42_Identifier" xlink:title="crm:E42_Identifier" target="crm">
<ellipse fill="thistle" stroke="gray" cx="357.093" cy="-18" rx="55.8461" ry="18"/>
<text text-anchor="middle" x="357.093" y="-15.5" font-family="Arial" font-size="10.00" fill="blue">crm:E42_Identifier</text>
</a>
</g>
</g>
<!-- crm:E73_Information_Object -->
<g id="node3" class="node"><title>crm:E73_Information_Object</title>
<g id="a_node3"><a xlink:href="http://www.cidoc-crm.org/cidoc-crm/E73_Information_Object" xlink:title="crm:E73_Information_Object" target="crm">
<ellipse fill="thistle" stroke="gray" cx="289.093" cy="-101" rx="82.3257" ry="18"/>
<text text-anchor="middle" x="289.093" y="-98.5" font-family="Arial" font-size="10.00" fill="blue">crm:E73_Information_Object</text>
</a>
</g>
</g>
<!-- &quot;wardella2&#45;327338&quot; -->
<g id="node6" class="node"><title>&quot;wardella2&#45;327338&quot;</title>
<polygon fill="ghostwhite" stroke="gray" points="529.593,-36 430.593,-36 430.593,-0 529.593,-0 529.593,-36"/>
<text text-anchor="middle" x="480.093" y="-15.5" font-family="Arial" font-size="10.00">&quot;wardella2&#45;327338&quot;</text>
</g>
<!-- (OASIS dataset) -->
<g id="node7" class="node"><title>(OASIS dataset)</title>
<ellipse fill="none" stroke="gray" stroke-dasharray="5,2" cx="329.093" cy="-289" rx="51.6054" ry="18"/>
<text text-anchor="middle" x="329.093" y="-286.5" font-family="Arial" font-size="10.00" fill="blue">(OASIS dataset)</text>
</g>
<!-- (OASIS record) -->
<g id="node8" class="node"><title>(OASIS record)</title>
<ellipse fill="lavender" stroke="gray" cx="329.093" cy="-195" rx="48.7185" ry="18"/>
<text text-anchor="middle" x="329.093" y="-192.5" font-family="Arial" font-size="10.00" fill="blue">(OASIS record)</text>
</g>
<!-- (OASIS dataset)&#45;&gt;(OASIS record) -->
<g id="edge6" class="edge"><title>(OASIS dataset)&#45;&gt;(OASIS record)</title>
<path fill="none" stroke="black" d="M329.093,-270.696C329.093,-257.46 329.093,-238.947 329.093,-223.663"/>
<polygon fill="black" stroke="black" points="332.593,-223.227 329.093,-213.227 325.593,-223.227 332.593,-223.227"/>
<g id="a_edge6&#45;label"><a xlink:href="http://www.cidoc-crm.org/cidoc-crm/P148_has_component" xlink:title="crm:P148_has_component\n(is component of)">
<text text-anchor="middle" x="387.593" y="-245" font-family="Arial" font-size="10.00" fill="maroon">crm:P148_has_component</text>
<text text-anchor="middle" x="387.593" y="-234" font-family="Arial" font-size="10.00" fill="maroon">(is component of)</text>
</a>
</g>
</g>
<!-- (OASIS record)&#45;&gt;aat:300026685 -->
<g id="edge5" class="edge"><title>(OASIS record)&#45;&gt;aat:300026685</title>
<path fill="none" stroke="black" d="M290.155,-183.855C269.911,-177.883 245.08,-169.444 224.093,-159 204.418,-149.209 184.051,-135.288 168.416,-123.654"/>
<polygon fill="black" stroke="black" points="170.335,-120.717 160.251,-117.468 166.107,-126.297 170.335,-120.717"/>
<g id="a_edge5&#45;label"><a xlink:href="http://www.cidoc-crm.org/cidoc-crm/P2_has_type" xlink:title="crm:P2_has_type\n(is type of)">
<text text-anchor="middle" x="262.593" y="-151" font-family="Arial" font-size="10.00" fill="maroon">crm:P2_has_type</text>
<text text-anchor="middle" x="262.593" y="-140" font-family="Arial" font-size="10.00" fill="maroon">(is type of)</text>
</a>
</g>
</g>
<!-- (OASIS record)&#45;&gt;crm:E73_Information_Object -->
<g id="edge1" class="edge"><title>(OASIS record)&#45;&gt;crm:E73_Information_Object</title>
<path fill="none" stroke="black" d="M321.756,-177.126C315.817,-163.465 307.346,-143.982 300.519,-128.281"/>
<polygon fill="black" stroke="black" points="303.716,-126.854 296.519,-119.079 297.296,-129.645 303.716,-126.854"/>
<g id="a_edge1&#45;label"><a xlink:href="http://www.w3.org/1999/02/22-rdf-syntax-ns#type" xlink:title="rdf:type">
<text text-anchor="middle" x="330.593" y="-145.5" font-family="Arial" font-size="10.00" fill="maroon">rdf:type</text>
</a>
</g>
</g>
<!-- (identifier) -->
<g id="node9" class="node"><title>(identifier)</title>
<ellipse fill="ghostwhite" stroke="gray" cx="424.093" cy="-101" rx="34.9638" ry="18"/>
<text text-anchor="middle" x="424.093" y="-98.5" font-family="Arial" font-size="10.00" fill="blue">(identifier)</text>
</g>
<!-- (OASIS record)&#45;&gt;(identifier) -->
<g id="edge7" class="edge"><title>(OASIS record)&#45;&gt;(identifier)</title>
<path fill="none" stroke="black" d="M345.641,-177.975C360.946,-163.153 383.845,-140.977 400.958,-124.404"/>
<polygon fill="black" stroke="black" points="403.617,-126.702 408.366,-117.231 398.747,-121.673 403.617,-126.702"/>
<g id="a_edge7&#45;label"><a xlink:href="http://www.cidoc-crm.org/cidoc-crm/P1_is_identified_by" xlink:title="crm:P1_is_identified_by\n(identifies)">
<text text-anchor="middle" x="440.093" y="-151" font-family="Arial" font-size="10.00" fill="maroon">crm:P1_is_identified_by</text>
<text text-anchor="middle" x="440.093" y="-140" font-family="Arial" font-size="10.00" fill="maroon">(identifies)</text>
</a>
</g>
</g>
<!-- (investigation) -->
<g id="node10" class="node"><title>(investigation)</title>
<ellipse fill="none" stroke="gray" stroke-dasharray="5,2" cx="521.093" cy="-101" rx="44.978" ry="18"/>
<text text-anchor="middle" x="521.093" y="-98.5" font-family="Arial" font-size="10.00" fill="blue">(investigation)</text>
</g>
<!-- (OASIS record)&#45;&gt;(investigation) -->
<g id="edge9" class="edge"><title>(OASIS record)&#45;&gt;(investigation)</title>
<path fill="none" stroke="black" d="M375.383,-189.076C418.194,-183.689 477.869,-173.799 496.093,-159 505.47,-151.386 511.424,-139.553 515.158,-128.638"/>
<polygon fill="black" stroke="black" points="518.523,-129.601 517.996,-119.019 511.809,-127.62 518.523,-129.601"/>
<g id="a_edge9&#45;label"><a xlink:href="http://www.cidoc-crm.org/cidoc-crm/P67_refers_to" xlink:title="crm:P67_refers_to\n(is referred to by)">
<text text-anchor="middle" x="552.093" y="-151" font-family="Arial" font-size="10.00" fill="maroon">crm:P67_refers_to</text>
<text text-anchor="middle" x="552.093" y="-140" font-family="Arial" font-size="10.00" fill="maroon">(is referred to by)</text>
</a>
</g>
</g>
<!-- (identifier)&#45;&gt;crm:E42_Identifier -->
<g id="edge2" class="edge"><title>(identifier)&#45;&gt;crm:E42_Identifier</title>
<path fill="none" stroke="black" d="M410.856,-83.997C401.255,-72.39 388.098,-56.4831 377.202,-43.311"/>
<polygon fill="black" stroke="black" points="379.833,-41.0006 370.763,-35.5259 374.439,-45.4622 379.833,-41.0006"/>
<g id="a_edge2&#45;label"><a xlink:href="http://www.w3.org/1999/02/22-rdf-syntax-ns#type" xlink:title="rdf:type">
<text text-anchor="middle" x="411.593" y="-57" font-family="Arial" font-size="10.00" fill="maroon">rdf:type</text>
</a>
</g>
</g>
<!-- (identifier)&#45;&gt;&quot;wardella2&#45;327338&quot; -->
<g id="edge8" class="edge"><title>(identifier)&#45;&gt;&quot;wardella2&#45;327338&quot;</title>
<path fill="none" stroke="black" d="M435.425,-83.6084C443.164,-72.4156 453.572,-57.3603 462.395,-44.5987"/>
<polygon fill="black" stroke="black" points="465.39,-46.4219 468.198,-36.2059 459.632,-42.4411 465.39,-46.4219"/>
<g id="a_edge8&#45;label"><a xlink:href="http://www.w3.org/2000/01/rdf-schema#label" xlink:title="rdfs:label">
<text text-anchor="middle" x="476.093" y="-57" font-family="Arial" font-size="10.00" fill="maroon">rdfs:label</text>
</a>
</g>
</g>
</g>
</svg>
