<?xml version="1.0" encoding="UTF-8" standalone="no"?>
<!DOCTYPE svg PUBLIC "-//W3C//DTD SVG 1.1//EN"
 "http://www.w3.org/Graphics/SVG/1.1/DTD/svg11.dtd">
<!-- Generated by graphviz version 2.38.0 (20140413.2041)
 -->
<!-- Title: %3 Pages: 1 -->
<svg width="468pt" height="221pt"
 viewBox="0.00 0.00 467.74 221.00" xmlns="http://www.w3.org/2000/svg" xmlns:xlink="http://www.w3.org/1999/xlink">
<g id="graph0" class="graph" transform="scale(1 1) rotate(0) translate(4 217)">
<title>%3</title>
<polygon fill="white" stroke="none" points="-4,4 -4,-217 463.735,-217 463.735,4 -4,4"/>
<!-- crm:E22_Man&#45;Made_Object -->
<g id="node1" class="node"><title>crm:E22_Man&#45;Made_Object</title>
<g id="a_node1"><a xlink:href="http://www.cidoc-crm.org/cidoc-crm/E22_Man-Made_Object" xlink:title="crm:E22_Man&#45;Made_Object" target="crm">
<ellipse fill="thistle" stroke="gray" cx="81.2355" cy="-101" rx="81.4717" ry="18"/>
<text text-anchor="middle" x="81.2355" y="-98.5" font-family="Arial" font-size="10.00" fill="blue">crm:E22_Man&#45;Made_Object</text>
</a>
</g>
</g>
<!-- crm:E55_Type -->
<g id="node2" class="node"><title>crm:E55_Type</title>
<g id="a_node2"><a xlink:href="http://www.cidoc-crm.org/cidoc-crm/E55_Type" xlink:title="crm:E55_Type" target="crm">
<ellipse fill="thistle" stroke="gray" cx="309.235" cy="-18" rx="47.1863" ry="18"/>
<text text-anchor="middle" x="309.235" y="-15.5" font-family="Arial" font-size="10.00" fill="blue">crm:E55_Type</text>
</a>
</g>
</g>
<!-- (site) -->
<g id="node3" class="node"><title>(site)</title>
<ellipse fill="none" stroke="gray" stroke-dasharray="5,2" cx="207.235" cy="-101" rx="27" ry="18"/>
<text text-anchor="middle" x="207.235" y="-98.5" font-family="Arial" font-size="10.00" fill="blue">(site)</text>
</g>
<!-- (monument) -->
<g id="node4" class="node"><title>(monument)</title>
<ellipse fill="lavender" stroke="gray" cx="207.235" cy="-195" rx="40.0582" ry="18"/>
<text text-anchor="middle" x="207.235" y="-192.5" font-family="Arial" font-size="10.00" fill="blue">(monument)</text>
</g>
<!-- (monument)&#45;&gt;crm:E22_Man&#45;Made_Object -->
<g id="edge1" class="edge"><title>(monument)&#45;&gt;crm:E22_Man&#45;Made_Object</title>
<path fill="none" stroke="black" d="M186.991,-179.219C166.794,-164.471 135.495,-141.618 112.18,-124.594"/>
<polygon fill="black" stroke="black" points="114.127,-121.683 103.987,-118.612 109.999,-127.336 114.127,-121.683"/>
<g id="a_edge1&#45;label"><a xlink:href="http://www.w3.org/1999/02/22-rdf-syntax-ns#type" xlink:title="rdf:type">
<text text-anchor="middle" x="175.735" y="-145.5" font-family="Arial" font-size="10.00" fill="maroon">rdf:type</text>
</a>
</g>
</g>
<!-- (monument)&#45;&gt;(site) -->
<g id="edge3" class="edge"><title>(monument)&#45;&gt;(site)</title>
<path fill="none" stroke="black" d="M207.235,-176.696C207.235,-163.46 207.235,-144.947 207.235,-129.663"/>
<polygon fill="black" stroke="black" points="210.736,-129.227 207.235,-119.227 203.736,-129.227 210.736,-129.227"/>
<g id="a_edge3&#45;label"><a xlink:href="http://www.cidoc-crm.org/cidoc-crm/P55_has_current_location" xlink:title="crm:P55_has_current_location\n(currently holds)">
<text text-anchor="middle" x="273.735" y="-151" font-family="Arial" font-size="10.00" fill="maroon">crm:P55_has_current_location</text>
<text text-anchor="middle" x="273.735" y="-140" font-family="Arial" font-size="10.00" fill="maroon">(currently holds)</text>
</a>
</g>
</g>
<!-- mon:69063 -->
<g id="node5" class="node"><title>mon:69063</title>
<ellipse fill="ghostwhite" stroke="gray" cx="363.235" cy="-101" rx="38.0276" ry="18"/>
<text text-anchor="middle" x="363.235" y="-98.5" font-family="Arial" font-size="10.00" fill="blue">mon:69063</text>
</g>
<!-- (monument)&#45;&gt;mon:69063 -->
<g id="edge2" class="edge"><title>(monument)&#45;&gt;mon:69063</title>
<path fill="none" stroke="black" d="M247.215,-192.978C276.512,-190.197 315.5,-181.983 341.235,-159 349.929,-151.236 355.213,-139.636 358.412,-128.923"/>
<polygon fill="black" stroke="black" points="361.843,-129.629 360.884,-119.077 355.054,-127.924 361.843,-129.629"/>
<g id="a_edge2&#45;label"><a xlink:href="http://www.cidoc-crm.org/cidoc-crm/P2_has_type" xlink:title="crm:P2_has_type\n(is type of)">
<text text-anchor="middle" x="394.735" y="-151" font-family="Arial" font-size="10.00" fill="maroon">crm:P2_has_type</text>
<text text-anchor="middle" x="394.735" y="-140" font-family="Arial" font-size="10.00" fill="maroon">(is type of)</text>
</a>
</g>
</g>
<!-- mon:69063&#45;&gt;crm:E55_Type -->
<g id="edge4" class="edge"><title>mon:69063&#45;&gt;crm:E55_Type</title>
<path fill="none" stroke="black" d="M352.308,-83.6084C344.746,-72.2654 334.539,-56.9554 325.96,-44.0861"/>
<polygon fill="black" stroke="black" points="328.792,-42.0242 320.332,-35.6452 322.967,-45.9072 328.792,-42.0242"/>
<g id="a_edge4&#45;label"><a xlink:href="http://www.w3.org/1999/02/22-rdf-syntax-ns#type" xlink:title="rdf:type">
<text text-anchor="middle" x="356.735" y="-57" font-family="Arial" font-size="10.00" fill="maroon">rdf:type</text>
</a>
</g>
</g>
<!-- &quot;Lime Kiln&quot;@en -->
<g id="node6" class="node"><title>&quot;Lime Kiln&quot;@en</title>
<polygon fill="ghostwhite" stroke="gray" points="459.735,-36 374.735,-36 374.735,-0 459.735,-0 459.735,-36"/>
<text text-anchor="middle" x="417.235" y="-15.5" font-family="Arial" font-size="10.00">&quot;Lime Kiln&quot;@en</text>
</g>
<!-- mon:69063&#45;&gt;&quot;Lime Kiln&quot;@en -->
<g id="edge5" class="edge"><title>mon:69063&#45;&gt;&quot;Lime Kiln&quot;@en</title>
<path fill="none" stroke="black" d="M374.163,-83.6084C381.625,-72.4156 391.662,-57.3603 400.17,-44.5987"/>
<polygon fill="black" stroke="black" points="403.13,-46.4679 405.765,-36.2059 397.306,-42.5849 403.13,-46.4679"/>
<g id="a_edge5&#45;label"><a xlink:href="http://www.w3.org/2000/01/rdf-schema#label" xlink:title="rdfs:label">
<text text-anchor="middle" x="414.235" y="-57" font-family="Arial" font-size="10.00" fill="maroon">rdfs:label</text>
</a>
</g>
</g>
</g>
</svg>
