<?xml version="1.0" encoding="UTF-8" standalone="no"?>
<!DOCTYPE svg PUBLIC "-//W3C//DTD SVG 1.1//EN"
 "http://www.w3.org/Graphics/SVG/1.1/DTD/svg11.dtd">
<!-- Generated by graphviz version 2.38.0 (20140413.2041)
 -->
<!-- Title: %3 Pages: 1 -->
<svg width="1288pt" height="315pt"
 viewBox="0.00 0.00 1288.04 315.00" xmlns="http://www.w3.org/2000/svg" xmlns:xlink="http://www.w3.org/1999/xlink">
<g id="graph0" class="graph" transform="scale(1 1) rotate(0) translate(4 311)">
<title>%3</title>
<polygon fill="white" stroke="none" points="-4,4 -4,-311 1284.04,-311 1284.04,4 -4,4"/>
<!-- crm:E7_Activity -->
<g id="node1" class="node"><title>crm:E7_Activity</title>
<g id="a_node1"><a xlink:href="http://www.cidoc-crm.org/cidoc-crm/E7_Activity" xlink:title="crm:E7_Activity">
<ellipse fill="thistle" stroke="gray" cx="50.0364" cy="-101" rx="50.0727" ry="18"/>
<text text-anchor="middle" x="50.0364" y="-98.5" font-family="Arial" font-size="10.00" fill="blue">crm:E7_Activity</text>
</a>
</g>
</g>
<!-- crm:E35_Title -->
<g id="node2" class="node"><title>crm:E35_Title</title>
<g id="a_node2"><a xlink:href="http://www.cidoc-crm.org/cidoc-crm/E35_Title" xlink:title="crm:E35_Title">
<ellipse fill="thistle" stroke="gray" cx="1051.04" cy="-18" rx="45.1548" ry="18"/>
<text text-anchor="middle" x="1051.04" y="-15.5" font-family="Arial" font-size="10.00" fill="blue">crm:E35_Title</text>
</a>
</g>
</g>
<!-- (record) -->
<g id="node3" class="node"><title>(record)</title>
<ellipse fill="none" stroke="gray" stroke-dasharray="5,2" cx="466.036" cy="-289" rx="29.3664" ry="18"/>
<text text-anchor="middle" x="466.036" y="-286.5" font-family="Arial" font-size="10.00" fill="blue">(record)</text>
</g>
<!-- (investigation) -->
<g id="node7" class="node"><title>(investigation)</title>
<ellipse fill="lavender" stroke="gray" cx="517.036" cy="-195" rx="44.978" ry="18"/>
<text text-anchor="middle" x="517.036" y="-192.5" font-family="Arial" font-size="10.00" fill="blue">(investigation)</text>
</g>
<!-- (record)&#45;&gt;(investigation) -->
<g id="edge1" class="edge"><title>(record)&#45;&gt;(investigation)</title>
<path fill="none" stroke="black" d="M462.458,-271.032C460.841,-259.134 460.53,-243.234 467.036,-231 470.312,-224.84 475.211,-219.534 480.681,-215.049"/>
<polygon fill="black" stroke="black" points="482.917,-217.751 488.98,-209.063 478.822,-212.074 482.917,-217.751"/>
<g id="a_edge1&#45;label"><a xlink:href="http://www.cidoc-crm.org/cidoc-crm/P67_refers_to" xlink:title="crm:P67_refers_to\n(is referred to by)">
<text text-anchor="middle" x="507.036" y="-245" font-family="Arial" font-size="10.00" fill="maroon">crm:P67_refers_to</text>
<text text-anchor="middle" x="507.036" y="-234" font-family="Arial" font-size="10.00" fill="maroon">(is referred to by)</text>
</a>
</g>
</g>
<!-- (site) -->
<g id="node4" class="node"><title>(site)</title>
<ellipse fill="none" stroke="gray" stroke-dasharray="5,2" cx="145.036" cy="-101" rx="27" ry="18"/>
<text text-anchor="middle" x="145.036" y="-98.5" font-family="Arial" font-size="10.00" fill="blue">(site)</text>
</g>
<!-- (time span) -->
<g id="node5" class="node"><title>(time span)</title>
<ellipse fill="none" stroke="gray" stroke-dasharray="5,2" cx="266.036" cy="-101" rx="38.0276" ry="18"/>
<text text-anchor="middle" x="266.036" y="-98.5" font-family="Arial" font-size="10.00" fill="blue">(time span)</text>
</g>
<!-- (report) -->
<g id="node6" class="node"><title>(report)</title>
<ellipse fill="none" stroke="gray" stroke-dasharray="5,2" cx="569.036" cy="-289" rx="27.8353" ry="18"/>
<text text-anchor="middle" x="569.036" y="-286.5" font-family="Arial" font-size="10.00" fill="blue">(report)</text>
</g>
<!-- (report)&#45;&gt;(investigation) -->
<g id="edge10" class="edge"><title>(report)&#45;&gt;(investigation)</title>
<path fill="none" stroke="black" d="M564.189,-271.097C560.434,-259.374 554.598,-243.658 547.036,-231 544.82,-227.29 542.204,-223.588 539.455,-220.055"/>
<polygon fill="black" stroke="black" points="542.009,-217.652 532.927,-212.196 536.625,-222.125 542.009,-217.652"/>
<g id="a_edge10&#45;label"><a xlink:href="http://www.cidoc-crm.org/cidoc-crm/P70_documents" xlink:title="crm:P70_documents\n(is documented in)">
<text text-anchor="middle" x="603.536" y="-245" font-family="Arial" font-size="10.00" fill="maroon">crm:P70_documents</text>
<text text-anchor="middle" x="603.536" y="-234" font-family="Arial" font-size="10.00" fill="maroon">(is documented in)</text>
</a>
</g>
</g>
<!-- (investigation)&#45;&gt;crm:E7_Activity -->
<g id="edge2" class="edge"><title>(investigation)&#45;&gt;crm:E7_Activity</title>
<path fill="none" stroke="black" d="M472.189,-193.337C382.2,-191.473 182.863,-184.507 120.036,-159 101.878,-151.628 84.7575,-137.858 71.9931,-125.699"/>
<polygon fill="black" stroke="black" points="74.2042,-122.963 64.6382,-118.408 69.2762,-127.934 74.2042,-122.963"/>
<g id="a_edge2&#45;label"><a xlink:href="http://www.w3.org/1999/02/22-rdf-syntax-ns#type" xlink:title="rdf:type">
<text text-anchor="middle" x="136.536" y="-145.5" font-family="Arial" font-size="10.00" fill="maroon">rdf:type</text>
</a>
</g>
</g>
<!-- (investigation)&#45;&gt;(site) -->
<g id="edge8" class="edge"><title>(investigation)&#45;&gt;(site)</title>
<path fill="none" stroke="black" d="M472.01,-194.624C390.232,-194.924 221.371,-191.448 174.036,-159 163.553,-151.814 156.647,-139.658 152.215,-128.413"/>
<polygon fill="black" stroke="black" points="155.506,-127.22 148.929,-118.914 148.89,-129.509 155.506,-127.22"/>
<g id="a_edge8&#45;label"><a xlink:href="http://www.cidoc-crm.org/cidoc-crm/P7_took_place_at" xlink:title="crm:P7_took_place_at\n(witnessed)">
<text text-anchor="middle" x="223.036" y="-151" font-family="Arial" font-size="10.00" fill="maroon">crm:P7_took_place_at</text>
<text text-anchor="middle" x="223.036" y="-140" font-family="Arial" font-size="10.00" fill="maroon">(witnessed)</text>
</a>
</g>
</g>
<!-- (investigation)&#45;&gt;(time span) -->
<g id="edge7" class="edge"><title>(investigation)&#45;&gt;(time span)</title>
<path fill="none" stroke="black" d="M472.485,-192.01C415.167,-188.628 319.682,-179.955 292.036,-159 282.281,-151.605 276.078,-139.696 272.189,-128.67"/>
<polygon fill="black" stroke="black" points="275.491,-127.498 269.233,-118.948 268.793,-129.534 275.491,-127.498"/>
<g id="a_edge7&#45;label"><a xlink:href="http://www.cidoc-crm.org/cidoc-crm/P4_has_time-span" xlink:title="crm:P4_has_time&#45;span\n(is time&#45;span of)">
<text text-anchor="middle" x="342.536" y="-151" font-family="Arial" font-size="10.00" fill="maroon">crm:P4_has_time&#45;span</text>
<text text-anchor="middle" x="342.536" y="-140" font-family="Arial" font-size="10.00" fill="maroon">(is time&#45;span of)</text>
</a>
</g>
</g>
<!-- (identifier) -->
<g id="node8" class="node"><title>(identifier)</title>
<ellipse fill="none" stroke="gray" stroke-dasharray="5,2" cx="390.036" cy="-101" rx="34.9638" ry="18"/>
<text text-anchor="middle" x="390.036" y="-98.5" font-family="Arial" font-size="10.00" fill="blue">(identifier)</text>
</g>
<!-- (investigation)&#45;&gt;(identifier) -->
<g id="edge4" class="edge"><title>(investigation)&#45;&gt;(identifier)</title>
<path fill="none" stroke="black" d="M474.348,-189.406C452.272,-184.959 426.39,-176.21 409.036,-159 401.037,-151.067 396.406,-139.683 393.724,-129.171"/>
<polygon fill="black" stroke="black" points="397.096,-128.193 391.64,-119.111 390.241,-129.613 397.096,-128.193"/>
<g id="a_edge4&#45;label"><a xlink:href="http://www.cidoc-crm.org/cidoc-crm/P1_is_identified_by" xlink:title="crm:P1_is_identified_by\n(identifies)">
<text text-anchor="middle" x="461.036" y="-151" font-family="Arial" font-size="10.00" fill="maroon">crm:P1_is_identified_by</text>
<text text-anchor="middle" x="461.036" y="-140" font-family="Arial" font-size="10.00" fill="maroon">(identifies)</text>
</a>
</g>
</g>
<!-- (organization) -->
<g id="node9" class="node"><title>(organization)</title>
<ellipse fill="none" stroke="gray" stroke-dasharray="5,2" cx="517.036" cy="-101" rx="44.3" ry="18"/>
<text text-anchor="middle" x="517.036" y="-98.5" font-family="Arial" font-size="10.00" fill="blue">(organization)</text>
</g>
<!-- (investigation)&#45;&gt;(organization) -->
<g id="edge6" class="edge"><title>(investigation)&#45;&gt;(organization)</title>
<path fill="none" stroke="black" d="M517.036,-176.696C517.036,-163.46 517.036,-144.947 517.036,-129.663"/>
<polygon fill="black" stroke="black" points="520.536,-129.227 517.036,-119.227 513.536,-129.227 520.536,-129.227"/>
<g id="a_edge6&#45;label"><a xlink:href="http://www.cidoc-crm.org/cidoc-crm/P14_carried_out_by" xlink:title="crm:P14_carried_out_by\n(performed)">
<text text-anchor="middle" x="570.036" y="-151" font-family="Arial" font-size="10.00" fill="maroon">crm:P14_carried_out_by</text>
<text text-anchor="middle" x="570.036" y="-140" font-family="Arial" font-size="10.00" fill="maroon">(performed)</text>
</a>
</g>
</g>
<!-- (methodology) -->
<g id="node10" class="node"><title>(methodology)</title>
<ellipse fill="none" stroke="gray" stroke-dasharray="5,2" cx="646.036" cy="-101" rx="45.8316" ry="18"/>
<text text-anchor="middle" x="646.036" y="-98.5" font-family="Arial" font-size="10.00" fill="blue">(methodology)</text>
</g>
<!-- (investigation)&#45;&gt;(methodology) -->
<g id="edge3" class="edge"><title>(investigation)&#45;&gt;(methodology)</title>
<path fill="none" stroke="black" d="M559.286,-188.932C581.011,-184.347 606.528,-175.617 624.036,-159 632.432,-151.032 637.668,-139.499 640.912,-128.889"/>
<polygon fill="black" stroke="black" points="644.316,-129.705 643.45,-119.146 637.542,-127.941 644.316,-129.705"/>
<g id="a_edge3&#45;label"><a xlink:href="http://www.cidoc-crm.org/cidoc-crm/P32_used_general_technique" xlink:title="crm:P32_used_general_technique\n(was technique of)">
<text text-anchor="middle" x="712.036" y="-151" font-family="Arial" font-size="10.00" fill="maroon">crm:P32_used_general_technique</text>
<text text-anchor="middle" x="712.036" y="-140" font-family="Arial" font-size="10.00" fill="maroon">(was technique of)</text>
</a>
</g>
</g>
<!-- (reason) -->
<g id="node11" class="node"><title>(reason)</title>
<ellipse fill="none" stroke="gray" stroke-dasharray="5,2" cx="810.036" cy="-101" rx="30.7213" ry="18"/>
<text text-anchor="middle" x="810.036" y="-98.5" font-family="Arial" font-size="10.00" fill="blue">(reason)</text>
</g>
<!-- (investigation)&#45;&gt;(reason) -->
<g id="edge5" class="edge"><title>(investigation)&#45;&gt;(reason)</title>
<path fill="none" stroke="black" d="M561.843,-193.81C630.125,-192.622 755.912,-186.619 790.036,-159 799.056,-151.7 804.015,-140.063 806.738,-129.202"/>
<polygon fill="black" stroke="black" points="810.211,-129.682 808.724,-119.192 803.345,-128.32 810.211,-129.682"/>
<g id="a_edge5&#45;label"><a xlink:href="http://www.cidoc-crm.org/cidoc-crm/P17_was_motivated_by" xlink:title="crm:P17_was_motivated_by\n(motivated)">
<text text-anchor="middle" x="866.036" y="-151" font-family="Arial" font-size="10.00" fill="maroon">crm:P17_was_motivated_by</text>
<text text-anchor="middle" x="866.036" y="-140" font-family="Arial" font-size="10.00" fill="maroon">(motivated)</text>
</a>
</g>
</g>
<!-- &quot;An archaeological evaluation was\nundertaken by Diggs Archaeology in August...&quot; -->
<g id="node13" class="node"><title>&quot;An archaeological evaluation was\nundertaken by Diggs Archaeology in August...&quot;</title>
<polygon fill="ghostwhite" stroke="gray" points="1079.04,-119 859.036,-119 859.036,-83 1079.04,-83 1079.04,-119"/>
<text text-anchor="middle" x="969.036" y="-104" font-family="Arial" font-size="10.00">&quot;An archaeological evaluation was</text>
<text text-anchor="middle" x="969.036" y="-93" font-family="Arial" font-size="10.00">undertaken by Diggs Archaeology in August...&quot;</text>
</g>
<!-- (investigation)&#45;&gt;&quot;An archaeological evaluation was\nundertaken by Diggs Archaeology in August...&quot; -->
<g id="edge13" class="edge"><title>(investigation)&#45;&gt;&quot;An archaeological evaluation was\nundertaken by Diggs Archaeology in August...&quot;</title>
<path fill="none" stroke="black" d="M561.457,-192.415C661.817,-188.525 899.79,-177.458 931.036,-159 942.876,-152.006 951.773,-139.702 957.97,-128.311"/>
<polygon fill="black" stroke="black" points="961.234,-129.608 962.545,-119.095 954.964,-126.495 961.234,-129.608"/>
<g id="a_edge13&#45;label"><a xlink:href="http://www.cidoc-crm.org/cidoc-crm/P3_has_note" xlink:title="crm:P3_has_note">
<text text-anchor="middle" x="990.536" y="-145.5" font-family="Arial" font-size="10.00" fill="maroon">crm:P3_has_note</text>
</a>
</g>
</g>
<!-- (title) -->
<g id="node14" class="node"><title>(title)</title>
<ellipse fill="ghostwhite" stroke="gray" cx="1124.04" cy="-101" rx="27" ry="18"/>
<text text-anchor="middle" x="1124.04" y="-98.5" font-family="Arial" font-size="10.00" fill="blue">(title)</text>
</g>
<!-- (investigation)&#45;&gt;(title) -->
<g id="edge9" class="edge"><title>(investigation)&#45;&gt;(title)</title>
<path fill="none" stroke="black" d="M561.874,-193.748C670.656,-192.692 946.026,-187.223 1033.04,-159 1057.72,-150.992 1082.47,-134.837 1099.91,-121.764"/>
<polygon fill="black" stroke="black" points="1102.07,-124.519 1107.86,-115.643 1097.8,-118.974 1102.07,-124.519"/>
<g id="a_edge9&#45;label"><a xlink:href="http://www.cidoc-crm.org/cidoc-crm/P1_is_identified_by" xlink:title="crm:P1_is_identified_by\n(identifies)">
<text text-anchor="middle" x="1130.04" y="-151" font-family="Arial" font-size="10.00" fill="maroon">crm:P1_is_identified_by</text>
<text text-anchor="middle" x="1130.04" y="-140" font-family="Arial" font-size="10.00" fill="maroon">(identifies)</text>
</a>
</g>
</g>
<!-- &quot;Field Survey at Studfield Hill&quot;@en -->
<g id="node12" class="node"><title>&quot;Field Survey at Studfield Hill&quot;@en</title>
<polygon fill="ghostwhite" stroke="gray" points="1280.04,-36 1114.04,-36 1114.04,-0 1280.04,-0 1280.04,-36"/>
<text text-anchor="middle" x="1197.04" y="-15.5" font-family="Arial" font-size="10.00">&quot;Field Survey at Studfield Hill&quot;@en</text>
</g>
<!-- (title)&#45;&gt;crm:E35_Title -->
<g id="edge11" class="edge"><title>(title)&#45;&gt;crm:E35_Title</title>
<path fill="none" stroke="black" d="M1110.65,-85.1434C1099.98,-73.3079 1084.84,-56.5091 1072.49,-42.803"/>
<polygon fill="black" stroke="black" points="1074.89,-40.2366 1065.59,-35.1514 1069.69,-44.9229 1074.89,-40.2366"/>
<g id="a_edge11&#45;label"><a xlink:href="http://www.w3.org/1999/02/22-rdf-syntax-ns#type" xlink:title="rdf:type">
<text text-anchor="middle" x="1108.54" y="-57" font-family="Arial" font-size="10.00" fill="maroon">rdf:type</text>
</a>
</g>
</g>
<!-- (title)&#45;&gt;&quot;Field Survey at Studfield Hill&quot;@en -->
<g id="edge12" class="edge"><title>(title)&#45;&gt;&quot;Field Survey at Studfield Hill&quot;@en</title>
<path fill="none" stroke="black" d="M1137.43,-85.1434C1147.89,-73.537 1162.65,-57.1575 1174.86,-43.6022"/>
<polygon fill="black" stroke="black" points="1177.62,-45.7765 1181.71,-36.0049 1172.42,-41.0902 1177.62,-45.7765"/>
<g id="a_edge12&#45;label"><a xlink:href="http://www.w3.org/2000/01/rdf-schema#label" xlink:title="rdfs:label">
<text text-anchor="middle" x="1185.04" y="-57" font-family="Arial" font-size="10.00" fill="maroon">rdfs:label</text>
</a>
</g>
</g>
</g>
</svg>
