<?xml version="1.0" encoding="UTF-8" standalone="no"?>
<!DOCTYPE svg PUBLIC "-//W3C//DTD SVG 1.1//EN"
 "http://www.w3.org/Graphics/SVG/1.1/DTD/svg11.dtd">
<!-- Generated by graphviz version 2.38.0 (20140413.2041)
 -->
<!-- Title: %3 Pages: 1 -->
<svg width="292pt" height="221pt"
 viewBox="0.00 0.00 292.49 221.00" xmlns="http://www.w3.org/2000/svg" xmlns:xlink="http://www.w3.org/1999/xlink">
<g id="graph0" class="graph" transform="scale(1 1) rotate(0) translate(4 217)">
<title>%3</title>
<polygon fill="white" stroke="none" points="-4,4 -4,-217 288.487,-217 288.487,4 -4,4"/>
<!-- (site) -->
<g id="node1" class="node"><title>(site)</title>
<ellipse fill="none" stroke="gray" stroke-dasharray="5,2" cx="137.987" cy="-195" rx="27" ry="18"/>
<text text-anchor="middle" x="137.987" y="-192.5" font-family="Arial" font-size="10.00" fill="blue">(site)</text>
</g>
<!-- (site name) -->
<g id="node2" class="node"><title>(site name)</title>
<ellipse fill="lavender" stroke="gray" cx="137.987" cy="-101" rx="38.0276" ry="18"/>
<text text-anchor="middle" x="137.987" y="-98.5" font-family="Arial" font-size="10.00" fill="blue">(site name)</text>
</g>
<!-- (site)&#45;&gt;(site name) -->
<g id="edge1" class="edge"><title>(site)&#45;&gt;(site name)</title>
<path fill="none" stroke="black" d="M137.987,-176.696C137.987,-163.46 137.987,-144.947 137.987,-129.663"/>
<polygon fill="black" stroke="black" points="141.487,-129.227 137.987,-119.227 134.487,-129.227 141.487,-129.227"/>
<g id="a_edge1&#45;label"><a xlink:href="http://www.cidoc-crm.org/cidoc-crm/P1_is_identified_by" xlink:title="crm:P1_is_identified_by\n(identifies)">
<text text-anchor="middle" x="189.987" y="-151" font-family="Arial" font-size="10.00" fill="maroon">crm:P1_is_identified_by</text>
<text text-anchor="middle" x="189.987" y="-140" font-family="Arial" font-size="10.00" fill="maroon">(identifies)</text>
</a>
</g>
</g>
<!-- crm:E41_Appellation -->
<g id="node3" class="node"><title>crm:E41_Appellation</title>
<g id="a_node3"><a xlink:href="http://www.cidoc-crm.org/cidoc-crm/E41_Appellation" xlink:title="crm:E41_Appellation" target="crm">
<ellipse fill="thistle" stroke="gray" cx="62.9869" cy="-18" rx="62.9739" ry="18"/>
<text text-anchor="middle" x="62.9869" y="-15.5" font-family="Arial" font-size="10.00" fill="blue">crm:E41_Appellation</text>
</a>
</g>
</g>
<!-- (site name)&#45;&gt;crm:E41_Appellation -->
<g id="edge2" class="edge"><title>(site name)&#45;&gt;crm:E41_Appellation</title>
<path fill="none" stroke="black" d="M123.169,-83.997C112.321,-72.2805 97.4153,-56.1826 85.1527,-42.939"/>
<polygon fill="black" stroke="black" points="87.6509,-40.4855 78.2887,-35.5259 82.5146,-45.2414 87.6509,-40.4855"/>
<g id="a_edge2&#45;label"><a xlink:href="http://www.w3.org/1999/02/22-rdf-syntax-ns#type" xlink:title="rdf:type">
<text text-anchor="middle" x="121.487" y="-57" font-family="Arial" font-size="10.00" fill="maroon">rdf:type</text>
</a>
</g>
</g>
<!-- &quot;Boundary Wall of Former\nCinema Site, Sandgate&quot;@en -->
<g id="node4" class="node"><title>&quot;Boundary Wall of Former\nCinema Site, Sandgate&quot;@en</title>
<polygon fill="ghostwhite" stroke="gray" points="284.487,-36 143.487,-36 143.487,-0 284.487,-0 284.487,-36"/>
<text text-anchor="middle" x="213.987" y="-21" font-family="Arial" font-size="10.00">&quot;Boundary Wall of Former</text>
<text text-anchor="middle" x="213.987" y="-10" font-family="Arial" font-size="10.00">Cinema Site, Sandgate&quot;@en</text>
</g>
<!-- (site name)&#45;&gt;&quot;Boundary Wall of Former\nCinema Site, Sandgate&quot;@en -->
<g id="edge3" class="edge"><title>(site name)&#45;&gt;&quot;Boundary Wall of Former\nCinema Site, Sandgate&quot;@en</title>
<path fill="none" stroke="black" d="M153.002,-83.997C163.851,-72.4347 178.703,-56.6055 191.034,-43.4632"/>
<polygon fill="black" stroke="black" points="193.663,-45.7758 197.953,-36.0883 188.559,-40.986 193.663,-45.7758"/>
<g id="a_edge3&#45;label"><a xlink:href="http://www.w3.org/2000/01/rdf-schema#label" xlink:title="rdfs:label">
<text text-anchor="middle" x="199.987" y="-57" font-family="Arial" font-size="10.00" fill="maroon">rdfs:label</text>
</a>
</g>
</g>
</g>
</svg>
