<?xml version="1.0" encoding="UTF-8" standalone="no"?>
<!DOCTYPE svg PUBLIC "-//W3C//DTD SVG 1.1//EN"
 "http://www.w3.org/Graphics/SVG/1.1/DTD/svg11.dtd">
<!-- Generated by graphviz version 2.38.0 (20140413.2041)
 -->
<!-- Title: %3 Pages: 1 -->
<svg width="425pt" height="232pt"
 viewBox="0.00 0.00 424.65 232.00" xmlns="http://www.w3.org/2000/svg" xmlns:xlink="http://www.w3.org/1999/xlink">
<g id="graph0" class="graph" transform="scale(1 1) rotate(0) translate(4 228)">
<title>%3</title>
<polygon fill="white" stroke="none" points="-4,4 -4,-228 420.647,-228 420.647,4 -4,4"/>
<!-- (project activities) -->
<g id="node1" class="node"><title>(project activities)</title>
<ellipse fill="none" stroke="gray" stroke-dasharray="5,2" cx="238.61" cy="-206" rx="54.3144" ry="18"/>
<text text-anchor="middle" x="238.61" y="-203.5" font-family="Arial" font-size="10.00" fill="blue">(project activities)</text>
</g>
<!-- (organization) -->
<g id="node2" class="node"><title>(organization)</title>
<ellipse fill="lavender" stroke="gray" cx="238.61" cy="-112" rx="44.3" ry="18"/>
<text text-anchor="middle" x="238.61" y="-109.5" font-family="Arial" font-size="10.00" fill="blue">(organization)</text>
</g>
<!-- (project activities)&#45;&gt;(organization) -->
<g id="edge1" class="edge"><title>(project activities)&#45;&gt;(organization)</title>
<path fill="none" stroke="black" d="M238.61,-187.696C238.61,-174.46 238.61,-155.947 238.61,-140.663"/>
<polygon fill="black" stroke="black" points="242.111,-140.227 238.61,-130.227 235.111,-140.227 242.111,-140.227"/>
<g id="a_edge1&#45;label"><a xlink:href="http://www.cidoc-crm.org/cidoc-crm/P14_carried_out_by" xlink:title="crm:P14_carried_out_by\n(performed)">
<text text-anchor="middle" x="291.61" y="-162" font-family="Arial" font-size="10.00" fill="maroon">crm:P14_carried_out_by</text>
<text text-anchor="middle" x="291.61" y="-151" font-family="Arial" font-size="10.00" fill="maroon">(performed)</text>
</a>
</g>
</g>
<!-- (person) -->
<g id="node3" class="node"><title>(person)</title>
<ellipse fill="none" stroke="gray" stroke-dasharray="5,2" cx="30.6105" cy="-18" rx="30.7213" ry="18"/>
<text text-anchor="middle" x="30.6105" y="-15.5" font-family="Arial" font-size="10.00" fill="blue">(person)</text>
</g>
<!-- (organization)&#45;&gt;(person) -->
<g id="edge3" class="edge"><title>(organization)&#45;&gt;(person)</title>
<path fill="none" stroke="black" d="M195.332,-108.034C146.436,-103.834 70.8826,-94.51 49.6105,-76 40.9041,-68.4241 36.1743,-56.7497 33.6102,-45.9346"/>
<polygon fill="black" stroke="black" points="37.0298,-45.1797 31.7562,-35.9906 30.1484,-46.4627 37.0298,-45.1797"/>
<g id="a_edge3&#45;label"><a xlink:href="http://www.cidoc-crm.org/cidoc-crm/P107_has_current_or_former_member" xlink:title="crm:P107_has_current_or_former_member\n(is current or former member of)">
<text text-anchor="middle" x="142.11" y="-68" font-family="Arial" font-size="10.00" fill="maroon">crm:P107_has_current_or_former_member</text>
<text text-anchor="middle" x="142.11" y="-57" font-family="Arial" font-size="10.00" fill="maroon">(is current or former member of)</text>
</a>
</g>
</g>
<!-- (organization name) -->
<g id="node4" class="node"><title>(organization name)</title>
<ellipse fill="none" stroke="gray" stroke-dasharray="5,2" cx="238.61" cy="-18" rx="60.0873" ry="18"/>
<text text-anchor="middle" x="238.61" y="-15.5" font-family="Arial" font-size="10.00" fill="blue">(organization name)</text>
</g>
<!-- (organization)&#45;&gt;(organization name) -->
<g id="edge4" class="edge"><title>(organization)&#45;&gt;(organization name)</title>
<path fill="none" stroke="black" d="M238.61,-93.6955C238.61,-80.4599 238.61,-61.9471 238.61,-46.6634"/>
<polygon fill="black" stroke="black" points="242.111,-46.2269 238.61,-36.2269 235.111,-46.2269 242.111,-46.2269"/>
<g id="a_edge4&#45;label"><a xlink:href="http://www.cidoc-crm.org/cidoc-crm/P1_is_identified_by" xlink:title="crm:P1_is_identified_by\n(identifies)">
<text text-anchor="middle" x="290.61" y="-68" font-family="Arial" font-size="10.00" fill="maroon">crm:P1_is_identified_by</text>
<text text-anchor="middle" x="290.61" y="-57" font-family="Arial" font-size="10.00" fill="maroon">(identifies)</text>
</a>
</g>
</g>
<!-- crm:E74_Group -->
<g id="node5" class="node"><title>crm:E74_Group</title>
<g id="a_node5"><a xlink:href="http://www.cidoc-crm.org/cidoc-crm/E74_Group" xlink:title="crm:E74_Group">
<ellipse fill="thistle" stroke="gray" cx="366.61" cy="-18" rx="50.0727" ry="18"/>
<text text-anchor="middle" x="366.61" y="-15.5" font-family="Arial" font-size="10.00" fill="blue">crm:E74_Group</text>
</a>
</g>
</g>
<!-- (organization)&#45;&gt;crm:E74_Group -->
<g id="edge2" class="edge"><title>(organization)&#45;&gt;crm:E74_Group</title>
<path fill="none" stroke="black" d="M280.21,-105.894C301.789,-101.297 327.203,-92.5675 344.61,-76 352.995,-68.0198 358.229,-56.4858 361.475,-45.8778"/>
<polygon fill="black" stroke="black" points="364.878,-46.6969 364.016,-36.1373 358.105,-44.9301 364.878,-46.6969"/>
<g id="a_edge2&#45;label"><a xlink:href="http://www.w3.org/1999/02/22-rdf-syntax-ns#type" xlink:title="rdf:type">
<text text-anchor="middle" x="375.11" y="-62.5" font-family="Arial" font-size="10.00" fill="maroon">rdf:type</text>
</a>
</g>
</g>
</g>
</svg>
