<?xml version="1.0" encoding="UTF-8" standalone="no"?>
<!DOCTYPE svg PUBLIC "-//W3C//DTD SVG 1.1//EN"
 "http://www.w3.org/Graphics/SVG/1.1/DTD/svg11.dtd">
<!-- Generated by graphviz version 2.38.0 (20140413.2041)
 -->
<!-- Title: %3 Pages: 1 -->
<svg width="264pt" height="221pt"
 viewBox="0.00 0.00 264.09 221.00" xmlns="http://www.w3.org/2000/svg" xmlns:xlink="http://www.w3.org/1999/xlink">
<g id="graph0" class="graph" transform="scale(1 1) rotate(0) translate(4 217)">
<title>%3</title>
<polygon fill="white" stroke="none" points="-4,4 -4,-217 260.093,-217 260.093,4 -4,4"/>
<!-- crm:E55_Type -->
<g id="node1" class="node"><title>crm:E55_Type</title>
<g id="a_node1"><a xlink:href="http://www.cidoc-crm.org/cidoc-crm/E55_Type" xlink:title="crm:E55_Type" target="crm">
<ellipse fill="thistle" stroke="gray" cx="47.093" cy="-18" rx="47.1863" ry="18"/>
<text text-anchor="middle" x="47.093" y="-15.5" font-family="Arial" font-size="10.00" fill="blue">crm:E55_Type</text>
</a>
</g>
</g>
<!-- (investigation) -->
<g id="node2" class="node"><title>(investigation)</title>
<ellipse fill="none" stroke="gray" stroke-dasharray="5,2" cx="108.093" cy="-195" rx="44.978" ry="18"/>
<text text-anchor="middle" x="108.093" y="-192.5" font-family="Arial" font-size="10.00" fill="blue">(investigation)</text>
</g>
<!-- evt:145112 -->
<g id="node3" class="node"><title>evt:145112</title>
<ellipse fill="lavender" stroke="gray" cx="108.093" cy="-101" rx="37.1717" ry="18"/>
<text text-anchor="middle" x="108.093" y="-98.5" font-family="Arial" font-size="10.00" fill="blue">evt:145112</text>
</g>
<!-- (investigation)&#45;&gt;evt:145112 -->
<g id="edge1" class="edge"><title>(investigation)&#45;&gt;evt:145112</title>
<path fill="none" stroke="black" d="M108.093,-176.696C108.093,-163.46 108.093,-144.947 108.093,-129.663"/>
<polygon fill="black" stroke="black" points="111.593,-129.227 108.093,-119.227 104.593,-129.227 111.593,-129.227"/>
<g id="a_edge1&#45;label"><a xlink:href="http://www.cidoc-crm.org/cidoc-crm/P32_used_general_technique" xlink:title="crm:P32_used_general_technique\n(was_technique_of)">
<text text-anchor="middle" x="182.093" y="-151" font-family="Arial" font-size="10.00" fill="maroon">crm:P32_used_general_technique</text>
<text text-anchor="middle" x="182.093" y="-140" font-family="Arial" font-size="10.00" fill="maroon">(was_technique_of)</text>
</a>
</g>
</g>
<!-- evt:145112&#45;&gt;crm:E55_Type -->
<g id="edge2" class="edge"><title>evt:145112&#45;&gt;crm:E55_Type</title>
<path fill="none" stroke="black" d="M95.7488,-83.6084C87.1243,-72.1563 75.4547,-56.6606 65.706,-43.7155"/>
<polygon fill="black" stroke="black" points="68.44,-41.5278 59.6283,-35.6452 62.8483,-45.7389 68.44,-41.5278"/>
<g id="a_edge2&#45;label"><a xlink:href="http://www.w3.org/1999/02/22-rdf-syntax-ns#type" xlink:title="rdf:type">
<text text-anchor="middle" x="98.593" y="-57" font-family="Arial" font-size="10.00" fill="maroon">rdf:type</text>
</a>
</g>
</g>
<!-- &quot;Borehole Survey&quot;@en -->
<g id="node4" class="node"><title>&quot;Borehole Survey&quot;@en</title>
<polygon fill="ghostwhite" stroke="gray" points="227.593,-36 112.593,-36 112.593,-0 227.593,-0 227.593,-36"/>
<text text-anchor="middle" x="170.093" y="-15.5" font-family="Arial" font-size="10.00">&quot;Borehole Survey&quot;@en</text>
</g>
<!-- evt:145112&#45;&gt;&quot;Borehole Survey&quot;@en -->
<g id="edge3" class="edge"><title>evt:145112&#45;&gt;&quot;Borehole Survey&quot;@en</title>
<path fill="none" stroke="black" d="M120.342,-83.997C129.027,-72.6508 140.857,-57.1957 150.802,-44.2029"/>
<polygon fill="black" stroke="black" points="153.714,-46.1565 157.013,-36.0883 148.156,-41.9018 153.714,-46.1565"/>
<g id="a_edge3&#45;label"><a xlink:href="http://www.w3.org/2000/01/rdf-schema#label" xlink:title="rdfs:label">
<text text-anchor="middle" x="163.093" y="-57" font-family="Arial" font-size="10.00" fill="maroon">rdfs:label</text>
</a>
</g>
</g>
</g>
</svg>
