<?xml version="1.0" encoding="UTF-8" standalone="no"?>
<!DOCTYPE svg PUBLIC "-//W3C//DTD SVG 1.1//EN"
 "http://www.w3.org/Graphics/SVG/1.1/DTD/svg11.dtd">
<!-- Generated by graphviz version 2.38.0 (20140413.2041)
 -->
<!-- Title: %3 Pages: 1 -->
<svg width="465pt" height="221pt"
 viewBox="0.00 0.00 464.81 221.00" xmlns="http://www.w3.org/2000/svg" xmlns:xlink="http://www.w3.org/1999/xlink">
<g id="graph0" class="graph" transform="scale(1 1) rotate(0) translate(4 217)">
<title>%3</title>
<polygon fill="white" stroke="none" points="-4,4 -4,-217 460.81,-217 460.81,4 -4,4"/>
<!-- (investigation) -->
<g id="node1" class="node"><title>(investigation)</title>
<ellipse fill="none" stroke="gray" stroke-dasharray="5,2" cx="199.81" cy="-195" rx="44.978" ry="18"/>
<text text-anchor="middle" x="199.81" y="-192.5" font-family="Arial" font-size="10.00" fill="blue">(investigation)</text>
</g>
<!-- (timespan) -->
<g id="node2" class="node"><title>(timespan)</title>
<ellipse fill="lavender" stroke="gray" cx="199.81" cy="-101" rx="36.4942" ry="18"/>
<text text-anchor="middle" x="199.81" y="-98.5" font-family="Arial" font-size="10.00" fill="blue">(timespan)</text>
</g>
<!-- (investigation)&#45;&gt;(timespan) -->
<g id="edge2" class="edge"><title>(investigation)&#45;&gt;(timespan)</title>
<path fill="none" stroke="black" d="M199.81,-176.696C199.81,-163.46 199.81,-144.947 199.81,-129.663"/>
<polygon fill="black" stroke="black" points="203.31,-129.227 199.81,-119.227 196.31,-129.227 203.31,-129.227"/>
<g id="a_edge2&#45;label"><a xlink:href="http://www.cidoc-crm.org/cidoc-crm/P4_has_time-span" xlink:title="crm:P4_has_time&#45;span\n(is time&#45;span of)">
<text text-anchor="middle" x="250.31" y="-151" font-family="Arial" font-size="10.00" fill="maroon">crm:P4_has_time&#45;span</text>
<text text-anchor="middle" x="250.31" y="-140" font-family="Arial" font-size="10.00" fill="maroon">(is time&#45;span of)</text>
</a>
</g>
</g>
<!-- crm:E52_Time&#45;Span -->
<g id="node3" class="node"><title>crm:E52_Time&#45;Span</title>
<ellipse fill="thistle" stroke="gray" cx="61.8096" cy="-18" rx="61.6198" ry="18"/>
<text text-anchor="middle" x="61.8096" y="-15.5" font-family="Arial" font-size="10.00" fill="blue">crm:E52_Time&#45;Span</text>
</g>
<!-- (timespan)&#45;&gt;crm:E52_Time&#45;Span -->
<g id="edge1" class="edge"><title>(timespan)&#45;&gt;crm:E52_Time&#45;Span</title>
<path fill="none" stroke="black" d="M177.33,-86.8057C155.564,-74.0295 122.235,-54.4673 96.9613,-39.6325"/>
<polygon fill="black" stroke="black" points="98.4464,-36.4459 88.0505,-34.4023 94.903,-42.4828 98.4464,-36.4459"/>
<g id="a_edge1&#45;label"><a xlink:href="http://www.w3.org/1999/02/22-rdf-syntax-ns#type" xlink:title="rdf:type">
<text text-anchor="middle" x="156.31" y="-57" font-family="Arial" font-size="10.00" fill="maroon">rdf:type</text>
</a>
</g>
</g>
<!-- &quot;2019&#45;03&#45;20&quot;^^xsd:date -->
<g id="node4" class="node"><title>&quot;2019&#45;03&#45;20&quot;^^xsd:date</title>
<polygon fill="ghostwhite" stroke="gray" points="258.31,-36 141.31,-36 141.31,-0 258.31,-0 258.31,-36"/>
<text text-anchor="middle" x="199.81" y="-15.5" font-family="Arial" font-size="10.00">&quot;2019&#45;03&#45;20&quot;^^xsd:date</text>
</g>
<!-- (timespan)&#45;&gt;&quot;2019&#45;03&#45;20&quot;^^xsd:date -->
<g id="edge3" class="edge"><title>(timespan)&#45;&gt;&quot;2019&#45;03&#45;20&quot;^^xsd:date</title>
<path fill="none" stroke="black" d="M199.81,-82.822C199.81,-72.1903 199.81,-58.306 199.81,-46.2035"/>
<polygon fill="black" stroke="black" points="203.31,-46.1532 199.81,-36.1533 196.31,-46.1533 203.31,-46.1532"/>
<g id="a_edge3&#45;label"><a xlink:href="http://www.cidoc-crm.org/cidoc-crm/P81a_end_of_the_begin" xlink:title="crm:P81a_end_of_the_begin">
<text text-anchor="middle" x="261.81" y="-57" font-family="Arial" font-size="10.00" fill="maroon">crm:P81a_end_of_the_begin</text>
</a>
</g>
</g>
<!-- &quot;2019&#45;03&#45;21&quot;^^xsd:date -->
<g id="node5" class="node"><title>&quot;2019&#45;03&#45;21&quot;^^xsd:date</title>
<polygon fill="ghostwhite" stroke="gray" points="405.31,-36 288.31,-36 288.31,-0 405.31,-0 405.31,-36"/>
<text text-anchor="middle" x="346.81" y="-15.5" font-family="Arial" font-size="10.00">&quot;2019&#45;03&#45;21&quot;^^xsd:date</text>
</g>
<!-- (timespan)&#45;&gt;&quot;2019&#45;03&#45;21&quot;^^xsd:date -->
<g id="edge4" class="edge"><title>(timespan)&#45;&gt;&quot;2019&#45;03&#45;21&quot;^^xsd:date</title>
<path fill="none" stroke="black" d="M235.822,-97.8227C263.013,-94.459 299.792,-86.0225 324.81,-65 330.867,-59.91 335.376,-52.7673 338.68,-45.6256"/>
<polygon fill="black" stroke="black" points="342.033,-46.6662 342.47,-36.0804 335.527,-44.0827 342.033,-46.6662"/>
<g id="a_edge4&#45;label"><a xlink:href="http://www.cidoc-crm.org/cidoc-crm/P81b_begin_of_the_end" xlink:title="crm:P81b_begin_of_the_end">
<text text-anchor="middle" x="394.81" y="-57" font-family="Arial" font-size="10.00" fill="maroon">crm:P81b_begin_of_the_end</text>
</a>
</g>
</g>
</g>
</svg>
