<?xml version="1.0" encoding="UTF-8" standalone="no"?>
<!DOCTYPE svg PUBLIC "-//W3C//DTD SVG 1.1//EN"
 "http://www.w3.org/Graphics/SVG/1.1/DTD/svg11.dtd">
<!-- Generated by graphviz version 2.38.0 (20140413.2041)
 -->
<!-- Title: %3 Pages: 1 -->
<svg width="329pt" height="221pt"
 viewBox="0.00 0.00 329.00 221.00" xmlns="http://www.w3.org/2000/svg" xmlns:xlink="http://www.w3.org/1999/xlink">
<g id="graph0" class="graph" transform="scale(1 1) rotate(0) translate(4 217)">
<title>%3</title>
<polygon fill="white" stroke="none" points="-4,4 -4,-217 325,-217 325,4 -4,4"/>
<!-- (record) -->
<g id="node1" class="node"><title>(record)</title>
<ellipse fill="none" stroke="gray" stroke-dasharray="5,2" cx="170.5" cy="-195" rx="29.3664" ry="18"/>
<text text-anchor="middle" x="170.5" y="-192.5" font-family="Arial" font-size="10.00" fill="blue">(record)</text>
</g>
<!-- (artefact type) -->
<g id="node2" class="node"><title>(artefact type)</title>
<ellipse fill="lavender" stroke="gray" cx="114.5" cy="-101" rx="45.1548" ry="18"/>
<text text-anchor="middle" x="114.5" y="-98.5" font-family="Arial" font-size="10.00" fill="blue">(artefact type)</text>
</g>
<!-- (record)&#45;&gt;(artefact type) -->
<g id="edge1" class="edge"><title>(record)&#45;&gt;(artefact type)</title>
<path fill="none" stroke="black" d="M148.159,-182.948C138.726,-177.127 128.546,-169.084 122.5,-159 117.217,-150.189 114.887,-139.261 113.99,-129.338"/>
<polygon fill="black" stroke="black" points="117.475,-128.937 113.508,-119.113 110.483,-129.267 117.475,-128.937"/>
<g id="a_edge1&#45;label"><a xlink:href="http://www.cidoc-crm.org/cidoc-crm/P67_refers_to" xlink:title="crm:P67_refers_to\n(is referred to by)">
<text text-anchor="middle" x="162.5" y="-151" font-family="Arial" font-size="10.00" fill="maroon">crm:P67_refers_to</text>
<text text-anchor="middle" x="162.5" y="-140" font-family="Arial" font-size="10.00" fill="maroon">(is referred to by)</text>
</a>
</g>
</g>
<!-- (artefact period) -->
<g id="node3" class="node"><title>(artefact period)</title>
<ellipse fill="lavender" stroke="gray" cx="227.5" cy="-101" rx="49.3954" ry="18"/>
<text text-anchor="middle" x="227.5" y="-98.5" font-family="Arial" font-size="10.00" fill="blue">(artefact period)</text>
</g>
<!-- (record)&#45;&gt;(artefact period) -->
<g id="edge2" class="edge"><title>(record)&#45;&gt;(artefact period)</title>
<path fill="none" stroke="black" d="M185.681,-179.566C191.435,-173.572 197.739,-166.314 202.5,-159 208.645,-149.559 213.931,-138.354 218.039,-128.389"/>
<polygon fill="black" stroke="black" points="221.349,-129.534 221.742,-118.947 214.832,-126.979 221.349,-129.534"/>
<g id="a_edge2&#45;label"><a xlink:href="http://www.cidoc-crm.org/cidoc-crm/P67_refers_to" xlink:title="crm:P67_refers_to\n(is referred to by)">
<text text-anchor="middle" x="254.5" y="-151" font-family="Arial" font-size="10.00" fill="maroon">crm:P67_refers_to</text>
<text text-anchor="middle" x="254.5" y="-140" font-family="Arial" font-size="10.00" fill="maroon">(is referred to by)</text>
</a>
</g>
</g>
<!-- &quot;Axehead&quot;@en -->
<g id="node4" class="node"><title>&quot;Axehead&quot;@en</title>
<polygon fill="ghostwhite" stroke="gray" points="83,-36 0,-36 0,-0 83,-0 83,-36"/>
<text text-anchor="middle" x="41.5" y="-15.5" font-family="Arial" font-size="10.00">&quot;Axehead&quot;@en</text>
</g>
<!-- (artefact type)&#45;&gt;&quot;Axehead&quot;@en -->
<g id="edge5" class="edge"><title>(artefact type)&#45;&gt;&quot;Axehead&quot;@en</title>
<path fill="none" stroke="black" d="M99.7274,-83.6084C89.446,-72.2004 75.5485,-56.7798 63.9092,-43.8651"/>
<polygon fill="black" stroke="black" points="66.3012,-41.2911 57.0065,-36.2059 61.1013,-45.9775 66.3012,-41.2911"/>
<g id="a_edge5&#45;label"><a xlink:href="http://www.w3.org/2000/01/rdf-schema#label" xlink:title="rdfs:label">
<text text-anchor="middle" x="102.5" y="-57" font-family="Arial" font-size="10.00" fill="maroon">rdfs:label</text>
</a>
</g>
</g>
<!-- crm:E55_Type -->
<g id="node6" class="node"><title>crm:E55_Type</title>
<g id="a_node6"><a xlink:href="http://www.cidoc-crm.org/cidoc-crm/E55_Type" xlink:title="crm:E55_Type" target="crm">
<ellipse fill="thistle" stroke="gray" cx="148.5" cy="-18" rx="47.1863" ry="18"/>
<text text-anchor="middle" x="148.5" y="-15.5" font-family="Arial" font-size="10.00" fill="blue">crm:E55_Type</text>
</a>
</g>
</g>
<!-- (artefact type)&#45;&gt;crm:E55_Type -->
<g id="edge3" class="edge"><title>(artefact type)&#45;&gt;crm:E55_Type</title>
<path fill="none" stroke="black" d="M121.545,-83.2167C126.118,-72.3206 132.177,-57.8883 137.391,-45.466"/>
<polygon fill="black" stroke="black" points="140.704,-46.6157 141.347,-36.0404 134.25,-43.9064 140.704,-46.6157"/>
<g id="a_edge3&#45;label"><a xlink:href="http://www.w3.org/1999/02/22-rdf-syntax-ns#type" xlink:title="rdf:type">
<text text-anchor="middle" x="151" y="-57" font-family="Arial" font-size="10.00" fill="maroon">rdf:type</text>
</a>
</g>
</g>
<!-- &quot;Early Medieval&quot;@en -->
<g id="node5" class="node"><title>&quot;Early Medieval&quot;@en</title>
<polygon fill="ghostwhite" stroke="gray" points="321,-36 214,-36 214,-0 321,-0 321,-36"/>
<text text-anchor="middle" x="267.5" y="-15.5" font-family="Arial" font-size="10.00">&quot;Early Medieval&quot;@en</text>
</g>
<!-- (artefact period)&#45;&gt;&quot;Early Medieval&quot;@en -->
<g id="edge6" class="edge"><title>(artefact period)&#45;&gt;&quot;Early Medieval&quot;@en</title>
<path fill="none" stroke="black" d="M235.788,-83.2167C241.222,-72.2128 248.437,-57.6021 254.612,-45.0976"/>
<polygon fill="black" stroke="black" points="257.795,-46.5565 259.085,-36.0404 251.519,-43.457 257.795,-46.5565"/>
<g id="a_edge6&#45;label"><a xlink:href="http://www.w3.org/2000/01/rdf-schema#label" xlink:title="rdfs:label">
<text text-anchor="middle" x="270.5" y="-57" font-family="Arial" font-size="10.00" fill="maroon">rdfs:label</text>
</a>
</g>
</g>
<!-- (artefact period)&#45;&gt;crm:E55_Type -->
<g id="edge4" class="edge"><title>(artefact period)&#45;&gt;crm:E55_Type</title>
<path fill="none" stroke="black" d="M211.513,-83.6084C199.98,-71.7836 184.243,-55.6477 171.381,-42.46"/>
<polygon fill="black" stroke="black" points="173.681,-39.8059 164.193,-35.0908 168.67,-44.6934 173.681,-39.8059"/>
<g id="a_edge4&#45;label"><a xlink:href="http://www.w3.org/1999/02/22-rdf-syntax-ns#type" xlink:title="rdf:type">
<text text-anchor="middle" x="210" y="-57" font-family="Arial" font-size="10.00" fill="maroon">rdf:type</text>
</a>
</g>
</g>
</g>
</svg>
