<?xml version="1.0" encoding="UTF-8" standalone="no"?>
<!DOCTYPE svg PUBLIC "-//W3C//DTD SVG 1.1//EN"
 "http://www.w3.org/Graphics/SVG/1.1/DTD/svg11.dtd">
<!-- Generated by graphviz version 2.38.0 (20140413.2041)
 -->
<!-- Title: %3 Pages: 1 -->
<svg width="651pt" height="232pt"
 viewBox="0.00 0.00 651.04 232.00" xmlns="http://www.w3.org/2000/svg" xmlns:xlink="http://www.w3.org/1999/xlink">
<g id="graph0" class="graph" transform="scale(1 1) rotate(0) translate(4 228)">
<title>%3</title>
<polygon fill="white" stroke="none" points="-4,4 -4,-228 647.036,-228 647.036,4 -4,4"/>
<!-- crm:E7_Activity -->
<g id="node1" class="node"><title>crm:E7_Activity</title>
<g id="a_node1"><a xlink:href="http://www.cidoc-crm.org/cidoc-crm/E7_Activity" xlink:title="crm:E7_Activity" target="crm">
<ellipse fill="thistle" stroke="gray" cx="50.0364" cy="-18" rx="50.0727" ry="18"/>
<text text-anchor="middle" x="50.0364" y="-15.5" font-family="Arial" font-size="10.00" fill="blue">crm:E7_Activity</text>
</a>
</g>
</g>
<!-- (report) -->
<g id="node2" class="node"><title>(report)</title>
<ellipse fill="none" stroke="gray" stroke-dasharray="5,2" cx="146.036" cy="-18" rx="27.8353" ry="18"/>
<text text-anchor="middle" x="146.036" y="-15.5" font-family="Arial" font-size="10.00" fill="blue">(report)</text>
</g>
<!-- (investigation) -->
<g id="node3" class="node"><title>(investigation)</title>
<ellipse fill="none" stroke="gray" stroke-dasharray="5,2" cx="302.036" cy="-206" rx="44.978" ry="18"/>
<text text-anchor="middle" x="302.036" y="-203.5" font-family="Arial" font-size="10.00" fill="blue">(investigation)</text>
</g>
<!-- (report publication) -->
<g id="node7" class="node"><title>(report publication)</title>
<ellipse fill="lavender" stroke="gray" cx="302.036" cy="-112" rx="57.2008" ry="18"/>
<text text-anchor="middle" x="302.036" y="-109.5" font-family="Arial" font-size="10.00" fill="blue">(report publication)</text>
</g>
<!-- (investigation)&#45;&gt;(report publication) -->
<g id="edge3" class="edge"><title>(investigation)&#45;&gt;(report publication)</title>
<path fill="none" stroke="black" d="M302.036,-187.696C302.036,-174.46 302.036,-155.947 302.036,-140.663"/>
<polygon fill="black" stroke="black" points="305.536,-140.227 302.036,-130.227 298.536,-140.227 305.536,-140.227"/>
<g id="a_edge3&#45;label"><a xlink:href="http://www.cidoc-crm.org/cidoc-crm/P9_consists_of" xlink:title="crm:P9_consists_of\n(forms part of)">
<text text-anchor="middle" x="345.536" y="-162" font-family="Arial" font-size="10.00" fill="maroon">crm:P9_consists_of</text>
<text text-anchor="middle" x="345.536" y="-151" font-family="Arial" font-size="10.00" fill="maroon">(forms part of)</text>
</a>
</g>
</g>
<!-- (publisher) -->
<g id="node4" class="node"><title>(publisher)</title>
<ellipse fill="none" stroke="gray" stroke-dasharray="5,2" cx="302.036" cy="-18" rx="36.4942" ry="18"/>
<text text-anchor="middle" x="302.036" y="-15.5" font-family="Arial" font-size="10.00" fill="blue">(publisher)</text>
</g>
<!-- (time span) -->
<g id="node5" class="node"><title>(time span)</title>
<ellipse fill="none" stroke="gray" stroke-dasharray="5,2" cx="431.036" cy="-18" rx="38.0276" ry="18"/>
<text text-anchor="middle" x="431.036" y="-15.5" font-family="Arial" font-size="10.00" fill="blue">(time span)</text>
</g>
<!-- (place) -->
<g id="node6" class="node"><title>(place)</title>
<ellipse fill="none" stroke="gray" stroke-dasharray="5,2" cx="555.036" cy="-18" rx="27.1572" ry="18"/>
<text text-anchor="middle" x="555.036" y="-15.5" font-family="Arial" font-size="10.00" fill="blue">(place)</text>
</g>
<!-- (report publication)&#45;&gt;crm:E7_Activity -->
<g id="edge1" class="edge"><title>(report publication)&#45;&gt;crm:E7_Activity</title>
<path fill="none" stroke="black" d="M246.017,-108.288C207.538,-104.603 156.178,-95.9993 115.036,-76 98.5373,-67.9797 82.976,-54.6245 71.218,-42.8568"/>
<polygon fill="black" stroke="black" points="73.524,-40.2055 64.0689,-35.4251 68.4793,-45.0584 73.524,-40.2055"/>
<g id="a_edge1&#45;label"><a xlink:href="http://www.w3.org/1999/02/22-rdf-syntax-ns#type" xlink:title="rdf:type">
<text text-anchor="middle" x="131.536" y="-62.5" font-family="Arial" font-size="10.00" fill="maroon">rdf:type</text>
</a>
</g>
</g>
<!-- (report publication)&#45;&gt;(report) -->
<g id="edge5" class="edge"><title>(report publication)&#45;&gt;(report)</title>
<path fill="none" stroke="black" d="M245.721,-108.903C218.311,-105.09 186.689,-96.1546 165.036,-76 156.646,-68.1905 151.958,-56.5836 149.34,-45.878"/>
<polygon fill="black" stroke="black" points="152.77,-45.1824 147.411,-36.0434 145.901,-46.5301 152.77,-45.1824"/>
<g id="a_edge5&#45;label"><a xlink:href="http://www.cidoc-crm.org/cidoc-crm/P16_used_specific_object" xlink:title="crm:P16_used_specific_object\n(was used for)">
<text text-anchor="middle" x="231.536" y="-68" font-family="Arial" font-size="10.00" fill="maroon">crm:P16_used_specific_object</text>
<text text-anchor="middle" x="231.536" y="-57" font-family="Arial" font-size="10.00" fill="maroon">(was used for)</text>
</a>
</g>
</g>
<!-- (report publication)&#45;&gt;(publisher) -->
<g id="edge4" class="edge"><title>(report publication)&#45;&gt;(publisher)</title>
<path fill="none" stroke="black" d="M302.036,-93.6955C302.036,-80.4599 302.036,-61.9471 302.036,-46.6634"/>
<polygon fill="black" stroke="black" points="305.536,-46.2269 302.036,-36.2269 298.536,-46.2269 305.536,-46.2269"/>
<g id="a_edge4&#45;label"><a xlink:href="http://www.cidoc-crm.org/cidoc-crm/P14_carried_out_by" xlink:title="crm:P14_carried_out_by\n(performed)">
<text text-anchor="middle" x="355.036" y="-68" font-family="Arial" font-size="10.00" fill="maroon">crm:P14_carried_out_by</text>
<text text-anchor="middle" x="355.036" y="-57" font-family="Arial" font-size="10.00" fill="maroon">(performed)</text>
</a>
</g>
</g>
<!-- (report publication)&#45;&gt;(time span) -->
<g id="edge6" class="edge"><title>(report publication)&#45;&gt;(time span)</title>
<path fill="none" stroke="black" d="M353.168,-103.863C372.686,-98.8731 393.868,-90.3967 409.036,-76 417.432,-68.0315 422.668,-56.4992 425.912,-45.8894"/>
<polygon fill="black" stroke="black" points="429.316,-46.7055 428.45,-36.1461 422.542,-44.9408 429.316,-46.7055"/>
<g id="a_edge6&#45;label"><a xlink:href="http://www.cidoc-crm.org/cidoc-crm/P4_has_time-span" xlink:title="crm:P4_has_time&#45;span\n(is time&#45;span of)">
<text text-anchor="middle" x="473.536" y="-68" font-family="Arial" font-size="10.00" fill="maroon">crm:P4_has_time&#45;span</text>
<text text-anchor="middle" x="473.536" y="-57" font-family="Arial" font-size="10.00" fill="maroon">(is time&#45;span of)</text>
</a>
</g>
</g>
<!-- (report publication)&#45;&gt;(place) -->
<g id="edge2" class="edge"><title>(report publication)&#45;&gt;(place)</title>
<path fill="none" stroke="black" d="M357.981,-108.267C416.01,-104.412 501.863,-95.5293 528.036,-76 537.914,-68.6301 544.325,-56.7234 548.408,-45.6934"/>
<polygon fill="black" stroke="black" points="551.807,-46.557 551.537,-35.9656 545.143,-44.4139 551.807,-46.557"/>
<g id="a_edge2&#45;label"><a xlink:href="http://www.cidoc-crm.org/cidoc-crm/P7_took_place_at" xlink:title="crm:P7_took_place_at\n(witnessed)">
<text text-anchor="middle" x="594.036" y="-68" font-family="Arial" font-size="10.00" fill="maroon">crm:P7_took_place_at</text>
<text text-anchor="middle" x="594.036" y="-57" font-family="Arial" font-size="10.00" fill="maroon">(witnessed)</text>
</a>
</g>
</g>
</g>
</svg>
