<?xml version="1.0" encoding="UTF-8" standalone="no"?>
<!DOCTYPE svg PUBLIC "-//W3C//DTD SVG 1.1//EN"
 "http://www.w3.org/Graphics/SVG/1.1/DTD/svg11.dtd">
<!-- Generated by graphviz version 2.38.0 (20140413.2041)
 -->
<!-- Title: %3 Pages: 1 -->
<svg width="790pt" height="315pt"
 viewBox="0.00 0.00 790.13 315.00" xmlns="http://www.w3.org/2000/svg" xmlns:xlink="http://www.w3.org/1999/xlink">
<g id="graph0" class="graph" transform="scale(1 1) rotate(0) translate(4 311)">
<title>%3</title>
<polygon fill="white" stroke="none" points="-4,4 -4,-311 786.132,-311 786.132,4 -4,4"/>
<!-- crm:E31_Document -->
<g id="node1" class="node"><title>crm:E31_Document</title>
<g id="a_node1"><a xlink:href="http://www.cidoc-crm.org/cidoc-crm/E31_Document" xlink:title="crm:E31_Document" target="crm">
<ellipse fill="thistle" stroke="gray" cx="60.6323" cy="-101" rx="60.7649" ry="18"/>
<text text-anchor="middle" x="60.6323" y="-98.5" font-family="Arial" font-size="10.00" fill="blue">crm:E31_Document</text>
</a>
</g>
</g>
<!-- crm:E35_Title -->
<g id="node2" class="node"><title>crm:E35_Title</title>
<g id="a_node2"><a xlink:href="http://www.cidoc-crm.org/cidoc-crm/E35_Title" xlink:title="crm:E35_Title" target="crm">
<ellipse fill="thistle" stroke="gray" cx="549.632" cy="-18" rx="45.1548" ry="18"/>
<text text-anchor="middle" x="549.632" y="-15.5" font-family="Arial" font-size="10.00" fill="blue">crm:E35_Title</text>
</a>
</g>
</g>
<!-- crm:E55_Type -->
<g id="node3" class="node"><title>crm:E55_Type</title>
<g id="a_node3"><a xlink:href="http://www.cidoc-crm.org/cidoc-crm/E55_Type" xlink:title="crm:E55_Type" target="crm">
<ellipse fill="thistle" stroke="gray" cx="263.632" cy="-18" rx="47.1863" ry="18"/>
<text text-anchor="middle" x="263.632" y="-15.5" font-family="Arial" font-size="10.00" fill="blue">crm:E55_Type</text>
</a>
</g>
</g>
<!-- (investigation) -->
<g id="node4" class="node"><title>(investigation)</title>
<ellipse fill="none" stroke="gray" stroke-dasharray="5,2" cx="183.632" cy="-101" rx="44.978" ry="18"/>
<text text-anchor="middle" x="183.632" y="-98.5" font-family="Arial" font-size="10.00" fill="blue">(investigation)</text>
</g>
<!-- (report production) -->
<g id="node5" class="node"><title>(report production)</title>
<ellipse fill="none" stroke="gray" stroke-dasharray="5,2" cx="297.632" cy="-289" rx="55.8461" ry="18"/>
<text text-anchor="middle" x="297.632" y="-286.5" font-family="Arial" font-size="10.00" fill="blue">(report production)</text>
</g>
<!-- (report) -->
<g id="node6" class="node"><title>(report)</title>
<ellipse fill="lavender" stroke="gray" cx="297.632" cy="-195" rx="27.8353" ry="18"/>
<text text-anchor="middle" x="297.632" y="-192.5" font-family="Arial" font-size="10.00" fill="blue">(report)</text>
</g>
<!-- (report production)&#45;&gt;(report) -->
<g id="edge1" class="edge"><title>(report production)&#45;&gt;(report)</title>
<path fill="none" stroke="black" d="M297.632,-270.696C297.632,-257.46 297.632,-238.947 297.632,-223.663"/>
<polygon fill="black" stroke="black" points="301.132,-223.227 297.632,-213.227 294.132,-223.227 301.132,-223.227"/>
<g id="a_edge1&#45;label"><a xlink:href="http://www.cidoc-crm.org/cidoc-crm/P108_has_produced" xlink:title="crm:P108_has_produced\n(was produced by)">
<text text-anchor="middle" x="352.132" y="-245" font-family="Arial" font-size="10.00" fill="maroon">crm:P108_has_produced</text>
<text text-anchor="middle" x="352.132" y="-234" font-family="Arial" font-size="10.00" fill="maroon">(was produced by)</text>
</a>
</g>
</g>
<!-- (report)&#45;&gt;crm:E31_Document -->
<g id="edge4" class="edge"><title>(report)&#45;&gt;crm:E31_Document</title>
<path fill="none" stroke="black" d="M270.84,-190.056C241.319,-185.129 192.828,-175.302 153.632,-159 131.447,-149.773 108.407,-135.69 90.8101,-123.831"/>
<polygon fill="black" stroke="black" points="92.3611,-120.65 82.1374,-117.87 88.396,-126.419 92.3611,-120.65"/>
<g id="a_edge4&#45;label"><a xlink:href="http://www.w3.org/1999/02/22-rdf-syntax-ns#type" xlink:title="rdf:type">
<text text-anchor="middle" x="170.132" y="-145.5" font-family="Arial" font-size="10.00" fill="maroon">rdf:type</text>
</a>
</g>
</g>
<!-- (report)&#45;&gt;(investigation) -->
<g id="edge2" class="edge"><title>(report)&#45;&gt;(investigation)</title>
<path fill="none" stroke="black" d="M270.411,-190.458C249.27,-186.34 220.615,-177.553 202.632,-159 194.792,-150.911 190.185,-139.502 187.479,-129.014"/>
<polygon fill="black" stroke="black" points="190.852,-128.049 185.357,-118.991 184.004,-129.499 190.852,-128.049"/>
<g id="a_edge2&#45;label"><a xlink:href="http://www.cidoc-crm.org/cidoc-crm/P70_documents" xlink:title="crm:P70_documents\n(is documented in)">
<text text-anchor="middle" x="248.132" y="-151" font-family="Arial" font-size="10.00" fill="maroon">crm:P70_documents</text>
<text text-anchor="middle" x="248.132" y="-140" font-family="Arial" font-size="10.00" fill="maroon">(is documented in)</text>
</a>
</g>
</g>
<!-- (identifier) -->
<g id="node7" class="node"><title>(identifier)</title>
<ellipse fill="none" stroke="gray" stroke-dasharray="5,2" cx="297.632" cy="-101" rx="34.9638" ry="18"/>
<text text-anchor="middle" x="297.632" y="-98.5" font-family="Arial" font-size="10.00" fill="blue">(identifier)</text>
</g>
<!-- (report)&#45;&gt;(identifier) -->
<g id="edge3" class="edge"><title>(report)&#45;&gt;(identifier)</title>
<path fill="none" stroke="black" d="M297.632,-176.696C297.632,-163.46 297.632,-144.947 297.632,-129.663"/>
<polygon fill="black" stroke="black" points="301.132,-129.227 297.632,-119.227 294.132,-129.227 301.132,-129.227"/>
<g id="a_edge3&#45;label"><a xlink:href="http://www.cidoc-crm.org/cidoc-crm/P1_is_identified_by" xlink:title="crm:P1_is_identified_by\n(identifies)">
<text text-anchor="middle" x="349.632" y="-151" font-family="Arial" font-size="10.00" fill="maroon">crm:P1_is_identified_by</text>
<text text-anchor="middle" x="349.632" y="-140" font-family="Arial" font-size="10.00" fill="maroon">(identifies)</text>
</a>
</g>
</g>
<!-- (report type) -->
<g id="node8" class="node"><title>(report type)</title>
<ellipse fill="ghostwhite" stroke="gray" cx="407.632" cy="-101" rx="40.7358" ry="18"/>
<text text-anchor="middle" x="407.632" y="-98.5" font-family="Arial" font-size="10.00" fill="blue">(report type)</text>
</g>
<!-- (report)&#45;&gt;(report type) -->
<g id="edge5" class="edge"><title>(report)&#45;&gt;(report type)</title>
<path fill="none" stroke="black" d="M325.15,-192.871C349.578,-190.277 384.177,-182.377 402.632,-159 409.165,-150.725 411.141,-139.514 411.215,-129.224"/>
<polygon fill="black" stroke="black" points="414.699,-128.813 410.715,-118.996 407.707,-129.155 414.699,-128.813"/>
<g id="a_edge5&#45;label"><a xlink:href="http://www.cidoc-crm.org/cidoc-crm/P2_has_type" xlink:title="crm:P2_has_type\n(is type of)">
<text text-anchor="middle" x="450.132" y="-151" font-family="Arial" font-size="10.00" fill="maroon">crm:P2_has_type</text>
<text text-anchor="middle" x="450.132" y="-140" font-family="Arial" font-size="10.00" fill="maroon">(is type of)</text>
</a>
</g>
</g>
<!-- (report title) -->
<g id="node10" class="node"><title>(report title)</title>
<ellipse fill="ghostwhite" stroke="gray" cx="549.632" cy="-101" rx="38.7041" ry="18"/>
<text text-anchor="middle" x="549.632" y="-98.5" font-family="Arial" font-size="10.00" fill="blue">(report title)</text>
</g>
<!-- (report)&#45;&gt;(report title) -->
<g id="edge8" class="edge"><title>(report)&#45;&gt;(report title)</title>
<path fill="none" stroke="black" d="M325.465,-194.136C364.881,-193.231 438.217,-187.433 492.632,-159 507.749,-151.101 521.391,-137.804 531.537,-126.039"/>
<polygon fill="black" stroke="black" points="534.319,-128.168 537.977,-118.224 528.916,-123.716 534.319,-128.168"/>
<g id="a_edge8&#45;label"><a xlink:href="http://www.cidoc-crm.org/cidoc-crm/P102_has_title" xlink:title="crm:P102_has_title\n(is title of)">
<text text-anchor="middle" x="563.132" y="-151" font-family="Arial" font-size="10.00" fill="maroon">crm:P102_has_title</text>
<text text-anchor="middle" x="563.132" y="-140" font-family="Arial" font-size="10.00" fill="maroon">(is title of)</text>
</a>
</g>
</g>
<!-- (report type)&#45;&gt;crm:E55_Type -->
<g id="edge6" class="edge"><title>(report type)&#45;&gt;crm:E55_Type</title>
<path fill="none" stroke="black" d="M383.53,-86.4424C360.182,-73.309 324.535,-53.2576 298.173,-38.4293"/>
<polygon fill="black" stroke="black" points="299.703,-35.2742 289.272,-33.4221 296.271,-41.3753 299.703,-35.2742"/>
<g id="a_edge6&#45;label"><a xlink:href="http://www.w3.org/1999/02/22-rdf-syntax-ns#type" xlink:title="rdf:type">
<text text-anchor="middle" x="361.132" y="-57" font-family="Arial" font-size="10.00" fill="maroon">rdf:type</text>
</a>
</g>
</g>
<!-- &quot;Geophysical survey report&quot;@en -->
<g id="node9" class="node"><title>&quot;Geophysical survey report&quot;@en</title>
<polygon fill="ghostwhite" stroke="gray" points="486.132,-36 329.132,-36 329.132,-0 486.132,-0 486.132,-36"/>
<text text-anchor="middle" x="407.632" y="-15.5" font-family="Arial" font-size="10.00">&quot;Geophysical survey report&quot;@en</text>
</g>
<!-- (report type)&#45;&gt;&quot;Geophysical survey report&quot;@en -->
<g id="edge7" class="edge"><title>(report type)&#45;&gt;&quot;Geophysical survey report&quot;@en</title>
<path fill="none" stroke="black" d="M407.632,-82.822C407.632,-72.1903 407.632,-58.306 407.632,-46.2035"/>
<polygon fill="black" stroke="black" points="411.132,-46.1532 407.632,-36.1533 404.132,-46.1533 411.132,-46.1532"/>
<g id="a_edge7&#45;label"><a xlink:href="http://www.w3.org/2000/01/rdf-schema#label" xlink:title="rdfs:label">
<text text-anchor="middle" x="427.632" y="-57" font-family="Arial" font-size="10.00" fill="maroon">rdfs:label</text>
</a>
</g>
</g>
<!-- (report title)&#45;&gt;crm:E35_Title -->
<g id="edge9" class="edge"><title>(report title)&#45;&gt;crm:E35_Title</title>
<path fill="none" stroke="black" d="M549.632,-82.822C549.632,-72.1903 549.632,-58.306 549.632,-46.2035"/>
<polygon fill="black" stroke="black" points="553.132,-46.1532 549.632,-36.1533 546.132,-46.1533 553.132,-46.1532"/>
<g id="a_edge9&#45;label"><a xlink:href="http://www.w3.org/1999/02/22-rdf-syntax-ns#type" xlink:title="rdf:type">
<text text-anchor="middle" x="566.132" y="-57" font-family="Arial" font-size="10.00" fill="maroon">rdf:type</text>
</a>
</g>
</g>
<!-- &quot;Investigation of 1 temp street&quot;@en -->
<g id="node11" class="node"><title>&quot;Investigation of 1 temp street&quot;@en</title>
<polygon fill="ghostwhite" stroke="gray" points="782.132,-36 613.132,-36 613.132,-0 782.132,-0 782.132,-36"/>
<text text-anchor="middle" x="697.632" y="-15.5" font-family="Arial" font-size="10.00">&quot;Investigation of 1 temp street&quot;@en</text>
</g>
<!-- (report title)&#45;&gt;&quot;Investigation of 1 temp street&quot;@en -->
<g id="edge10" class="edge"><title>(report title)&#45;&gt;&quot;Investigation of 1 temp street&quot;@en</title>
<path fill="none" stroke="black" d="M573.74,-86.8057C596.308,-74.4547 630.463,-55.7618 657.199,-41.1288"/>
<polygon fill="black" stroke="black" points="659.224,-44.0106 666.316,-36.1393 655.863,-37.8701 659.224,-44.0106"/>
<g id="a_edge10&#45;label"><a xlink:href="http://www.w3.org/2000/01/rdf-schema#label" xlink:title="rdfs:label">
<text text-anchor="middle" x="652.632" y="-57" font-family="Arial" font-size="10.00" fill="maroon">rdfs:label</text>
</a>
</g>
</g>
</g>
</svg>
