<?xml version="1.0" encoding="UTF-8" standalone="no"?>
<!DOCTYPE svg PUBLIC "-//W3C//DTD SVG 1.1//EN"
 "http://www.w3.org/Graphics/SVG/1.1/DTD/svg11.dtd">
<!-- Generated by graphviz version 2.38.0 (20140413.2041)
 -->
<!-- Title: %3 Pages: 1 -->
<svg width="715pt" height="315pt"
 viewBox="0.00 0.00 715.02 315.00" xmlns="http://www.w3.org/2000/svg" xmlns:xlink="http://www.w3.org/1999/xlink">
<g id="graph0" class="graph" transform="scale(1 1) rotate(0) translate(4 311)">
<title>%3</title>
<polygon fill="white" stroke="none" points="-4,4 -4,-311 711.023,-311 711.023,4 -4,4"/>
<!-- (investigation) -->
<g id="node1" class="node"><title>(investigation)</title>
<ellipse fill="none" stroke="gray" stroke-dasharray="5,2" cx="175.263" cy="-289" rx="44.978" ry="18"/>
<text text-anchor="middle" x="175.263" y="-286.5" font-family="Arial" font-size="10.00" fill="blue">(investigation)</text>
</g>
<!-- (site) -->
<g id="node4" class="node"><title>(site)</title>
<ellipse fill="lavender" stroke="gray" cx="296.263" cy="-195" rx="27" ry="18"/>
<text text-anchor="middle" x="296.263" y="-192.5" font-family="Arial" font-size="10.00" fill="blue">(site)</text>
</g>
<!-- (investigation)&#45;&gt;(site) -->
<g id="edge1" class="edge"><title>(investigation)&#45;&gt;(site)</title>
<path fill="none" stroke="black" d="M176.919,-270.942C178.999,-258.37 183.689,-241.668 194.263,-231 211.558,-213.553 237.921,-204.796 259.513,-200.404"/>
<polygon fill="black" stroke="black" points="260.138,-203.848 269.358,-198.629 258.895,-196.959 260.138,-203.848"/>
<g id="a_edge1&#45;label"><a xlink:href="http://www.cidoc-crm.org/cidoc-crm/P7_took_place_at" xlink:title="crm:P7_took_place_at\n(witnessed)">
<text text-anchor="middle" x="243.263" y="-245" font-family="Arial" font-size="10.00" fill="maroon">crm:P7_took_place_at</text>
<text text-anchor="middle" x="243.263" y="-234" font-family="Arial" font-size="10.00" fill="maroon">(witnessed)</text>
</a>
</g>
</g>
<!-- (monument) -->
<g id="node2" class="node"><title>(monument)</title>
<ellipse fill="none" stroke="gray" stroke-dasharray="5,2" cx="296.263" cy="-289" rx="40.0582" ry="18"/>
<text text-anchor="middle" x="296.263" y="-286.5" font-family="Arial" font-size="10.00" fill="blue">(monument)</text>
</g>
<!-- (monument)&#45;&gt;(site) -->
<g id="edge2" class="edge"><title>(monument)&#45;&gt;(site)</title>
<path fill="none" stroke="black" d="M296.263,-270.696C296.263,-257.46 296.263,-238.947 296.263,-223.663"/>
<polygon fill="black" stroke="black" points="299.763,-223.227 296.263,-213.227 292.763,-223.227 299.763,-223.227"/>
<g id="a_edge2&#45;label"><a xlink:href="http://www.cidoc-crm.org/cidoc-crm/P55_has_current_location" xlink:title="crm:P55_has_current_location\n(currently holds)">
<text text-anchor="middle" x="362.763" y="-245" font-family="Arial" font-size="10.00" fill="maroon">crm:P55_has_current_location</text>
<text text-anchor="middle" x="362.763" y="-234" font-family="Arial" font-size="10.00" fill="maroon">(currently holds)</text>
</a>
</g>
</g>
<!-- (artefact) -->
<g id="node3" class="node"><title>(artefact)</title>
<ellipse fill="none" stroke="gray" stroke-dasharray="5,2" cx="452.263" cy="-289" rx="32.2534" ry="18"/>
<text text-anchor="middle" x="452.263" y="-286.5" font-family="Arial" font-size="10.00" fill="blue">(artefact)</text>
</g>
<!-- (artefact)&#45;&gt;(site) -->
<g id="edge3" class="edge"><title>(artefact)&#45;&gt;(site)</title>
<path fill="none" stroke="black" d="M449.912,-270.923C447.269,-258.171 441.735,-241.245 430.263,-231 403.749,-207.321 363.167,-199.319 333.61,-196.784"/>
<polygon fill="black" stroke="black" points="333.48,-193.267 323.265,-196.078 333.004,-200.251 333.48,-193.267"/>
<g id="a_edge3&#45;label"><a xlink:href="http://www.cidoc-crm.org/cidoc-crm/P53_has_former_or_current_location" xlink:title="crm:P53_has_former_or_current_location\n(is former or current location of)">
<text text-anchor="middle" x="534.263" y="-245" font-family="Arial" font-size="10.00" fill="maroon">crm:P53_has_former_or_current_location</text>
<text text-anchor="middle" x="534.263" y="-234" font-family="Arial" font-size="10.00" fill="maroon">(is former or current location of)</text>
</a>
</g>
</g>
<!-- (site name) -->
<g id="node5" class="node"><title>(site name)</title>
<ellipse fill="none" stroke="gray" stroke-dasharray="5,2" cx="38.2631" cy="-101" rx="38.0276" ry="18"/>
<text text-anchor="middle" x="38.2631" y="-98.5" font-family="Arial" font-size="10.00" fill="blue">(site name)</text>
</g>
<!-- (site)&#45;&gt;(site name) -->
<g id="edge5" class="edge"><title>(site)&#45;&gt;(site name)</title>
<path fill="none" stroke="black" d="M269.277,-193.783C230.253,-192.473 156.68,-186.216 101.263,-159 84.8639,-150.946 69.5851,-137.341 58.1817,-125.443"/>
<polygon fill="black" stroke="black" points="60.6247,-122.929 51.2749,-117.946 55.4764,-127.672 60.6247,-122.929"/>
<g id="a_edge5&#45;label"><a xlink:href="http://www.cidoc-crm.org/cidoc-crm/P1_is_identified_by" xlink:title="crm:P1_is_identified_by\n(identifies)">
<text text-anchor="middle" x="153.263" y="-151" font-family="Arial" font-size="10.00" fill="maroon">crm:P1_is_identified_by</text>
<text text-anchor="middle" x="153.263" y="-140" font-family="Arial" font-size="10.00" fill="maroon">(identifies)</text>
</a>
</g>
</g>
<!-- crm:E53_Place -->
<g id="node6" class="node"><title>crm:E53_Place</title>
<g id="a_node6"><a xlink:href="http://www.cidoc-crm.org/cidoc-crm/E53_Place" xlink:title="crm:E53_Place" target="crm">
<ellipse fill="thistle" stroke="gray" cx="154.263" cy="-101" rx="48.7185" ry="18"/>
<text text-anchor="middle" x="154.263" y="-98.5" font-family="Arial" font-size="10.00" fill="blue">crm:E53_Place</text>
</a>
</g>
</g>
<!-- (site)&#45;&gt;crm:E53_Place -->
<g id="edge4" class="edge"><title>(site)&#45;&gt;crm:E53_Place</title>
<path fill="none" stroke="black" d="M277.407,-181.783C254.125,-166.699 214.172,-140.814 186.102,-122.628"/>
<polygon fill="black" stroke="black" points="187.738,-119.517 177.442,-117.017 183.932,-125.392 187.738,-119.517"/>
<g id="a_edge4&#45;label"><a xlink:href="http://www.w3.org/1999/02/22-rdf-syntax-ns#type" xlink:title="rdf:type">
<text text-anchor="middle" x="258.763" y="-145.5" font-family="Arial" font-size="10.00" fill="maroon">rdf:type</text>
</a>
</g>
</g>
<!-- oslod:7000000000043542 -->
<g id="node7" class="node"><title>oslod:7000000000043542</title>
<ellipse fill="ghostwhite" stroke="gray" cx="296.263" cy="-101" rx="74.5212" ry="18"/>
<text text-anchor="middle" x="296.263" y="-98.5" font-family="Arial" font-size="10.00" fill="blue">oslod:7000000000043542</text>
</g>
<!-- (site)&#45;&gt;oslod:7000000000043542 -->
<g id="edge9" class="edge"><title>(site)&#45;&gt;oslod:7000000000043542</title>
<path fill="none" stroke="black" d="M296.263,-176.696C296.263,-163.46 296.263,-144.947 296.263,-129.663"/>
<polygon fill="black" stroke="black" points="299.763,-129.227 296.263,-119.227 292.763,-129.227 299.763,-129.227"/>
<g id="a_edge9&#45;label"><a xlink:href="http://www.cidoc-crm.org/cidoc-crm/P89_falls_within" xlink:title="crm:P89_falls_within\n(contains)">
<text text-anchor="middle" x="341.263" y="-151" font-family="Arial" font-size="10.00" fill="maroon">crm:P89_falls_within</text>
<text text-anchor="middle" x="341.263" y="-140" font-family="Arial" font-size="10.00" fill="maroon">(contains)</text>
</a>
</g>
</g>
<!-- oslod:7000000000043674 -->
<g id="node9" class="node"><title>oslod:7000000000043674</title>
<ellipse fill="ghostwhite" stroke="gray" cx="464.263" cy="-101" rx="74.5212" ry="18"/>
<text text-anchor="middle" x="464.263" y="-98.5" font-family="Arial" font-size="10.00" fill="blue">oslod:7000000000043674</text>
</g>
<!-- (site)&#45;&gt;oslod:7000000000043674 -->
<g id="edge10" class="edge"><title>(site)&#45;&gt;oslod:7000000000043674</title>
<path fill="none" stroke="black" d="M320.7,-187.121C340.206,-181.113 367.877,-171.416 390.263,-159 407.174,-149.62 424.388,-136.611 437.952,-125.388"/>
<polygon fill="black" stroke="black" points="440.511,-127.808 445.891,-118.68 435.993,-122.461 440.511,-127.808"/>
<g id="a_edge10&#45;label"><a xlink:href="http://www.cidoc-crm.org/cidoc-crm/P89_falls_within" xlink:title="crm:P89_falls_within\n(contains)">
<text text-anchor="middle" x="467.263" y="-151" font-family="Arial" font-size="10.00" fill="maroon">crm:P89_falls_within</text>
<text text-anchor="middle" x="467.263" y="-140" font-family="Arial" font-size="10.00" fill="maroon">(contains)</text>
</a>
</g>
</g>
<!-- oslod:7000000000041422 -->
<g id="node11" class="node"><title>oslod:7000000000041422</title>
<ellipse fill="ghostwhite" stroke="gray" cx="632.263" cy="-101" rx="74.5212" ry="18"/>
<text text-anchor="middle" x="632.263" y="-98.5" font-family="Arial" font-size="10.00" fill="blue">oslod:7000000000041422</text>
</g>
<!-- (site)&#45;&gt;oslod:7000000000041422 -->
<g id="edge11" class="edge"><title>(site)&#45;&gt;oslod:7000000000041422</title>
<path fill="none" stroke="black" d="M323.272,-192.307C365.369,-189.093 448.803,-180.405 516.263,-159 544.46,-150.053 574.379,-135.204 596.769,-122.905"/>
<polygon fill="black" stroke="black" points="598.547,-125.921 605.57,-117.989 595.133,-119.81 598.547,-125.921"/>
<g id="a_edge11&#45;label"><a xlink:href="http://www.cidoc-crm.org/cidoc-crm/P89_falls_within" xlink:title="crm:P89_falls_within\n(contains)">
<text text-anchor="middle" x="614.263" y="-151" font-family="Arial" font-size="10.00" fill="maroon">crm:P89_falls_within</text>
<text text-anchor="middle" x="614.263" y="-140" font-family="Arial" font-size="10.00" fill="maroon">(contains)</text>
</a>
</g>
</g>
<!-- osont:Parish -->
<g id="node8" class="node"><title>osont:Parish</title>
<ellipse fill="ghostwhite" stroke="gray" cx="296.263" cy="-18" rx="41.5911" ry="18"/>
<text text-anchor="middle" x="296.263" y="-15.5" font-family="Arial" font-size="10.00" fill="blue">osont:Parish</text>
</g>
<!-- oslod:7000000000043542&#45;&gt;osont:Parish -->
<g id="edge6" class="edge"><title>oslod:7000000000043542&#45;&gt;osont:Parish</title>
<path fill="none" stroke="black" d="M296.263,-82.822C296.263,-72.1903 296.263,-58.306 296.263,-46.2035"/>
<polygon fill="black" stroke="black" points="299.763,-46.1532 296.263,-36.1533 292.763,-46.1533 299.763,-46.1532"/>
<g id="a_edge6&#45;label"><a xlink:href="http://www.w3.org/1999/02/22-rdf-syntax-ns#type" xlink:title="rdf:type">
<text text-anchor="middle" x="312.763" y="-57" font-family="Arial" font-size="10.00" fill="maroon">rdf:type</text>
</a>
</g>
</g>
<!-- osont:District -->
<g id="node10" class="node"><title>osont:District</title>
<ellipse fill="ghostwhite" stroke="gray" cx="464.263" cy="-18" rx="43.6222" ry="18"/>
<text text-anchor="middle" x="464.263" y="-15.5" font-family="Arial" font-size="10.00" fill="blue">osont:District</text>
</g>
<!-- oslod:7000000000043674&#45;&gt;osont:District -->
<g id="edge7" class="edge"><title>oslod:7000000000043674&#45;&gt;osont:District</title>
<path fill="none" stroke="black" d="M464.263,-82.822C464.263,-72.1903 464.263,-58.306 464.263,-46.2035"/>
<polygon fill="black" stroke="black" points="467.763,-46.1532 464.263,-36.1533 460.763,-46.1533 467.763,-46.1532"/>
<g id="a_edge7&#45;label"><a xlink:href="http://www.w3.org/1999/02/22-rdf-syntax-ns#type" xlink:title="rdf:type">
<text text-anchor="middle" x="480.763" y="-57" font-family="Arial" font-size="10.00" fill="maroon">rdf:type</text>
</a>
</g>
</g>
<!-- osont:EuropeanRegion -->
<g id="node12" class="node"><title>osont:EuropeanRegion</title>
<ellipse fill="ghostwhite" stroke="gray" cx="632.263" cy="-18" rx="67.893" ry="18"/>
<text text-anchor="middle" x="632.263" y="-15.5" font-family="Arial" font-size="10.00" fill="blue">osont:EuropeanRegion</text>
</g>
<!-- oslod:7000000000041422&#45;&gt;osont:EuropeanRegion -->
<g id="edge8" class="edge"><title>oslod:7000000000041422&#45;&gt;osont:EuropeanRegion</title>
<path fill="none" stroke="black" d="M632.263,-82.822C632.263,-72.1903 632.263,-58.306 632.263,-46.2035"/>
<polygon fill="black" stroke="black" points="635.763,-46.1532 632.263,-36.1533 628.763,-46.1533 635.763,-46.1532"/>
<g id="a_edge8&#45;label"><a xlink:href="http://www.w3.org/1999/02/22-rdf-syntax-ns#type" xlink:title="rdf:type">
<text text-anchor="middle" x="648.763" y="-57" font-family="Arial" font-size="10.00" fill="maroon">rdf:type</text>
</a>
</g>
</g>
</g>
</svg>
