<?xml version="1.0" encoding="UTF-8" standalone="no"?>
<!DOCTYPE svg PUBLIC "-//W3C//DTD SVG 1.1//EN"
 "http://www.w3.org/Graphics/SVG/1.1/DTD/svg11.dtd">
<!-- Generated by graphviz version 2.38.0 (20140413.2041)
 -->
<!-- Title: %3 Pages: 1 -->
<svg width="471pt" height="221pt"
 viewBox="0.00 0.00 471.09 221.00" xmlns="http://www.w3.org/2000/svg" xmlns:xlink="http://www.w3.org/1999/xlink">
<g id="graph0" class="graph" transform="scale(1 1) rotate(0) translate(4 217)">
<title>%3</title>
<polygon fill="white" stroke="none" points="-4,4 -4,-217 467.093,-217 467.093,4 -4,4"/>
<!-- aat:3000028543 -->
<g id="node1" class="node"><title>aat:3000028543</title>
<g id="a_node1"><a xlink:href="http://vocab.getty.edu/aat/3000028543" xlink:title="aat:3000028543" target="aat">
<ellipse fill="ghostwhite" stroke="gray" cx="102.093" cy="-101" rx="50.7503" ry="18"/>
<text text-anchor="middle" x="102.093" y="-98.5" font-family="Arial" font-size="10.00" fill="blue">aat:3000028543</text>
</a>
</g>
</g>
<!-- crm:E55_Type -->
<g id="node3" class="node"><title>crm:E55_Type</title>
<g id="a_node3"><a xlink:href="http://www.cidoc-crm.org/cidoc-crm/E55_Type" xlink:title="crm:E55_Type" target="crm">
<ellipse fill="thistle" stroke="gray" cx="47.093" cy="-18" rx="47.1863" ry="18"/>
<text text-anchor="middle" x="47.093" y="-15.5" font-family="Arial" font-size="10.00" fill="blue">crm:E55_Type</text>
</a>
</g>
</g>
<!-- aat:3000028543&#45;&gt;crm:E55_Type -->
<g id="edge3" class="edge"><title>aat:3000028543&#45;&gt;crm:E55_Type</title>
<path fill="none" stroke="black" d="M90.697,-83.2167C82.9764,-71.8464 72.6411,-56.6253 63.9705,-43.8558"/>
<polygon fill="black" stroke="black" points="66.7994,-41.7915 58.2863,-35.4846 61.0083,-45.7238 66.7994,-41.7915"/>
<g id="a_edge3&#45;label"><a xlink:href="http://www.w3.org/1999/02/22-rdf-syntax-ns#type" xlink:title="rdf:type">
<text text-anchor="middle" x="94.593" y="-57" font-family="Arial" font-size="10.00" fill="maroon">rdf:type</text>
</a>
</g>
</g>
<!-- &quot;databases&quot;@en -->
<g id="node4" class="node"><title>&quot;databases&quot;@en</title>
<polygon fill="ghostwhite" stroke="gray" points="201.593,-36 112.593,-36 112.593,-0 201.593,-0 201.593,-36"/>
<text text-anchor="middle" x="157.093" y="-15.5" font-family="Arial" font-size="10.00">&quot;databases&quot;@en</text>
</g>
<!-- aat:3000028543&#45;&gt;&quot;databases&quot;@en -->
<g id="edge4" class="edge"><title>aat:3000028543&#45;&gt;&quot;databases&quot;@en</title>
<path fill="none" stroke="black" d="M113.489,-83.2167C121.107,-71.997 131.272,-57.0278 139.87,-44.3645"/>
<polygon fill="black" stroke="black" points="142.8,-46.2797 145.522,-36.0404 137.009,-42.3474 142.8,-46.2797"/>
<g id="a_edge4&#45;label"><a xlink:href="http://www.w3.org/2000/01/rdf-schema#label" xlink:title="rdfs:label">
<text text-anchor="middle" x="153.093" y="-57" font-family="Arial" font-size="10.00" fill="maroon">rdfs:label</text>
</a>
</g>
</g>
<!-- crm:E73_Information_Object -->
<g id="node2" class="node"><title>crm:E73_Information_Object</title>
<g id="a_node2"><a xlink:href="http://www.cidoc-crm.org/cidoc-crm/E73_Information_Object" xlink:title="crm:E73_Information_Object" target="crm">
<ellipse fill="thistle" stroke="gray" cx="253.093" cy="-101" rx="82.3257" ry="18"/>
<text text-anchor="middle" x="253.093" y="-98.5" font-family="Arial" font-size="10.00" fill="blue">crm:E73_Information_Object</text>
</a>
</g>
</g>
<!-- (OASIS dataset) -->
<g id="node5" class="node"><title>(OASIS dataset)</title>
<ellipse fill="lavender" stroke="gray" cx="253.093" cy="-195" rx="51.6054" ry="18"/>
<text text-anchor="middle" x="253.093" y="-192.5" font-family="Arial" font-size="10.00" fill="blue">(OASIS dataset)</text>
</g>
<!-- (OASIS dataset)&#45;&gt;aat:3000028543 -->
<g id="edge5" class="edge"><title>(OASIS dataset)&#45;&gt;aat:3000028543</title>
<path fill="none" stroke="black" d="M218.562,-181.527C203.787,-175.577 186.628,-167.824 172.093,-159 156.007,-149.234 139.61,-136.089 126.734,-124.883"/>
<polygon fill="black" stroke="black" points="129.009,-122.223 119.205,-118.204 124.363,-127.459 129.009,-122.223"/>
<g id="a_edge5&#45;label"><a xlink:href="http://www.cidoc-crm.org/cidoc-crm/P2_has_type" xlink:title="crm:P2_has_type\n(is type of)">
<text text-anchor="middle" x="210.593" y="-151" font-family="Arial" font-size="10.00" fill="maroon">crm:P2_has_type</text>
<text text-anchor="middle" x="210.593" y="-140" font-family="Arial" font-size="10.00" fill="maroon">(is type of)</text>
</a>
</g>
</g>
<!-- (OASIS dataset)&#45;&gt;crm:E73_Information_Object -->
<g id="edge1" class="edge"><title>(OASIS dataset)&#45;&gt;crm:E73_Information_Object</title>
<path fill="none" stroke="black" d="M253.093,-176.696C253.093,-163.46 253.093,-144.947 253.093,-129.663"/>
<polygon fill="black" stroke="black" points="256.593,-129.227 253.093,-119.227 249.593,-129.227 256.593,-129.227"/>
<g id="a_edge1&#45;label"><a xlink:href="http://www.w3.org/1999/02/22-rdf-syntax-ns#type" xlink:title="rdf:type">
<text text-anchor="middle" x="269.593" y="-145.5" font-family="Arial" font-size="10.00" fill="maroon">rdf:type</text>
</a>
</g>
</g>
<!-- (OASIS record) -->
<g id="node6" class="node"><title>(OASIS record)</title>
<ellipse fill="none" stroke="gray" stroke-dasharray="5,2" cx="402.093" cy="-101" rx="48.7185" ry="18"/>
<text text-anchor="middle" x="402.093" y="-98.5" font-family="Arial" font-size="10.00" fill="blue">(OASIS record)</text>
</g>
<!-- (OASIS dataset)&#45;&gt;(OASIS record) -->
<g id="edge2" class="edge"><title>(OASIS dataset)&#45;&gt;(OASIS record)</title>
<path fill="none" stroke="black" d="M277.364,-179.014C302.366,-163.577 341.494,-139.417 369.252,-122.278"/>
<polygon fill="black" stroke="black" points="371.162,-125.212 377.832,-116.98 367.485,-119.255 371.162,-125.212"/>
<g id="a_edge2&#45;label"><a xlink:href="http://www.cidoc-crm.org/cidoc-crm/P148_has_component" xlink:title="crm:P148_has_component\n(is component of)">
<text text-anchor="middle" x="404.593" y="-151" font-family="Arial" font-size="10.00" fill="maroon">crm:P148_has_component</text>
<text text-anchor="middle" x="404.593" y="-140" font-family="Arial" font-size="10.00" fill="maroon">(is component of)</text>
</a>
</g>
</g>
</g>
</svg>
